<mxfile host="Electron" modified="2025-05-15T10:32:34.263Z" agent="Mozilla/5.0 (Windows NT 10.0; Win64; x64) AppleWebKit/537.36 (KHTML, like Gecko) draw.io/24.0.4 Chrome/120.0.6099.109 Electron/28.1.0 Safari/537.36" etag="sn6f-SwLZcmvq2kIuzzu" version="24.0.4" type="device">
  <diagram id="C5RBs43oDa-KdzZeNtuy" name="Page-1">
    <mxGraphModel dx="2074" dy="1204" grid="1" gridSize="10" guides="1" tooltips="1" connect="1" arrows="1" fold="1" page="1" pageScale="1" pageWidth="827" pageHeight="1169" math="0" shadow="0">
      <root>
        <mxCell id="WIyWlLk6GJQsqaUBKTNV-0" />
        <mxCell id="WIyWlLk6GJQsqaUBKTNV-1" parent="WIyWlLk6GJQsqaUBKTNV-0" />
        <mxCell id="BjjVGWqRsL4OBueb088s-115" value="" style="group" parent="WIyWlLk6GJQsqaUBKTNV-1" vertex="1" connectable="0">
          <mxGeometry x="30" y="270" width="713" height="250" as="geometry" />
        </mxCell>
        <mxCell id="BjjVGWqRsL4OBueb088s-65" value="" style="rounded=0;whiteSpace=wrap;html=1;strokeColor=#EA6B66;" parent="BjjVGWqRsL4OBueb088s-115" vertex="1">
          <mxGeometry x="210" y="82" width="150" height="147" as="geometry" />
        </mxCell>
        <mxCell id="BjjVGWqRsL4OBueb088s-66" value="xLIST_ITEM" style="text;html=1;align=center;verticalAlign=middle;whiteSpace=wrap;rounded=0;" parent="BjjVGWqRsL4OBueb088s-115" vertex="1">
          <mxGeometry x="222" y="55" width="60" height="30" as="geometry" />
        </mxCell>
        <mxCell id="BjjVGWqRsL4OBueb088s-67" value="* pvOwner" style="rounded=0;whiteSpace=wrap;html=1;" parent="BjjVGWqRsL4OBueb088s-115" vertex="1">
          <mxGeometry x="222" y="169" width="108" height="20" as="geometry" />
        </mxCell>
        <mxCell id="BjjVGWqRsL4OBueb088s-68" value="*&amp;nbsp; pvContainer" style="rounded=0;whiteSpace=wrap;html=1;" parent="BjjVGWqRsL4OBueb088s-115" vertex="1">
          <mxGeometry x="222" y="199" width="108" height="20" as="geometry" />
        </mxCell>
        <mxCell id="BjjVGWqRsL4OBueb088s-69" value="" style="group" parent="BjjVGWqRsL4OBueb088s-115" vertex="1" connectable="0">
          <mxGeometry x="222" y="119" width="108" height="40" as="geometry" />
        </mxCell>
        <mxCell id="BjjVGWqRsL4OBueb088s-70" value="*&amp;nbsp; pxNext" style="rounded=0;whiteSpace=wrap;html=1;" parent="BjjVGWqRsL4OBueb088s-69" vertex="1">
          <mxGeometry width="108" height="20" as="geometry" />
        </mxCell>
        <mxCell id="BjjVGWqRsL4OBueb088s-71" value="*&amp;nbsp; pxPrevious" style="rounded=0;whiteSpace=wrap;html=1;" parent="BjjVGWqRsL4OBueb088s-69" vertex="1">
          <mxGeometry y="20" width="108" height="20" as="geometry" />
        </mxCell>
        <mxCell id="BjjVGWqRsL4OBueb088s-72" value="xItemValue=1" style="rounded=0;whiteSpace=wrap;html=1;" parent="BjjVGWqRsL4OBueb088s-115" vertex="1">
          <mxGeometry x="222" y="89" width="108" height="20" as="geometry" />
        </mxCell>
        <mxCell id="BjjVGWqRsL4OBueb088s-84" value="" style="endArrow=classic;html=1;rounded=0;entryX=0.737;entryY=1.001;entryDx=0;entryDy=0;entryPerimeter=0;endSize=2;" parent="BjjVGWqRsL4OBueb088s-115" target="BjjVGWqRsL4OBueb088s-73" edge="1">
          <mxGeometry width="50" height="50" relative="1" as="geometry">
            <mxPoint x="630" y="240" as="sourcePoint" />
            <mxPoint x="270" y="162" as="targetPoint" />
            <Array as="points">
              <mxPoint x="140" y="240" />
            </Array>
          </mxGeometry>
        </mxCell>
        <mxCell id="BjjVGWqRsL4OBueb088s-85" value="" style="endArrow=classic;html=1;rounded=0;exitX=1;exitY=0.5;exitDx=0;exitDy=0;endSize=2;" parent="BjjVGWqRsL4OBueb088s-115" source="BjjVGWqRsL4OBueb088s-67" edge="1">
          <mxGeometry width="50" height="50" relative="1" as="geometry">
            <mxPoint x="330" y="184" as="sourcePoint" />
            <mxPoint x="340" y="179" as="targetPoint" />
          </mxGeometry>
        </mxCell>
        <mxCell id="BjjVGWqRsL4OBueb088s-87" value="" style="rounded=0;whiteSpace=wrap;html=1;strokeColor=#EA6B66;" parent="BjjVGWqRsL4OBueb088s-115" vertex="1">
          <mxGeometry x="386" y="82" width="150" height="147" as="geometry" />
        </mxCell>
        <mxCell id="BjjVGWqRsL4OBueb088s-88" value="xLIST_ITEM" style="text;html=1;align=center;verticalAlign=middle;whiteSpace=wrap;rounded=0;" parent="BjjVGWqRsL4OBueb088s-115" vertex="1">
          <mxGeometry x="398" y="57" width="60" height="30" as="geometry" />
        </mxCell>
        <mxCell id="BjjVGWqRsL4OBueb088s-89" value="* pvOwner" style="rounded=0;whiteSpace=wrap;html=1;" parent="BjjVGWqRsL4OBueb088s-115" vertex="1">
          <mxGeometry x="398" y="169" width="108" height="20" as="geometry" />
        </mxCell>
        <mxCell id="BjjVGWqRsL4OBueb088s-90" value="*&amp;nbsp; pvContainer" style="rounded=0;whiteSpace=wrap;html=1;" parent="BjjVGWqRsL4OBueb088s-115" vertex="1">
          <mxGeometry x="398" y="199" width="108" height="20" as="geometry" />
        </mxCell>
        <mxCell id="BjjVGWqRsL4OBueb088s-91" value="" style="group" parent="BjjVGWqRsL4OBueb088s-115" vertex="1" connectable="0">
          <mxGeometry x="398" y="119" width="108" height="40" as="geometry" />
        </mxCell>
        <mxCell id="BjjVGWqRsL4OBueb088s-92" value="*&amp;nbsp; pxNext" style="rounded=0;whiteSpace=wrap;html=1;" parent="BjjVGWqRsL4OBueb088s-91" vertex="1">
          <mxGeometry width="108" height="20" as="geometry" />
        </mxCell>
        <mxCell id="BjjVGWqRsL4OBueb088s-93" value="*&amp;nbsp; pxPrevious" style="rounded=0;whiteSpace=wrap;html=1;" parent="BjjVGWqRsL4OBueb088s-91" vertex="1">
          <mxGeometry y="20" width="108" height="20" as="geometry" />
        </mxCell>
        <mxCell id="BjjVGWqRsL4OBueb088s-94" value="xItemValue=2" style="rounded=0;whiteSpace=wrap;html=1;" parent="BjjVGWqRsL4OBueb088s-115" vertex="1">
          <mxGeometry x="398" y="89" width="108" height="20" as="geometry" />
        </mxCell>
        <mxCell id="BjjVGWqRsL4OBueb088s-95" value="" style="endArrow=classic;html=1;rounded=0;exitX=1;exitY=0.5;exitDx=0;exitDy=0;endSize=2;entryX=0.893;entryY=0.66;entryDx=0;entryDy=0;entryPerimeter=0;" parent="BjjVGWqRsL4OBueb088s-115" source="BjjVGWqRsL4OBueb088s-89" target="BjjVGWqRsL4OBueb088s-87" edge="1">
          <mxGeometry width="50" height="50" relative="1" as="geometry">
            <mxPoint x="506" y="184" as="sourcePoint" />
            <mxPoint x="520" y="180" as="targetPoint" />
          </mxGeometry>
        </mxCell>
        <mxCell id="BjjVGWqRsL4OBueb088s-96" value="" style="rounded=0;whiteSpace=wrap;html=1;strokeColor=#EA6B66;" parent="BjjVGWqRsL4OBueb088s-115" vertex="1">
          <mxGeometry x="563" y="82" width="150" height="147" as="geometry" />
        </mxCell>
        <mxCell id="BjjVGWqRsL4OBueb088s-97" value="xLIST_ITEM" style="text;html=1;align=center;verticalAlign=middle;whiteSpace=wrap;rounded=0;" parent="BjjVGWqRsL4OBueb088s-115" vertex="1">
          <mxGeometry x="575" y="57" width="60" height="30" as="geometry" />
        </mxCell>
        <mxCell id="BjjVGWqRsL4OBueb088s-98" value="* pvOwner" style="rounded=0;whiteSpace=wrap;html=1;" parent="BjjVGWqRsL4OBueb088s-115" vertex="1">
          <mxGeometry x="575" y="169" width="108" height="20" as="geometry" />
        </mxCell>
        <mxCell id="BjjVGWqRsL4OBueb088s-99" value="*&amp;nbsp; pvContainer" style="rounded=0;whiteSpace=wrap;html=1;" parent="BjjVGWqRsL4OBueb088s-115" vertex="1">
          <mxGeometry x="575" y="199" width="108" height="20" as="geometry" />
        </mxCell>
        <mxCell id="BjjVGWqRsL4OBueb088s-100" value="" style="group" parent="BjjVGWqRsL4OBueb088s-115" vertex="1" connectable="0">
          <mxGeometry x="575" y="119" width="108" height="40" as="geometry" />
        </mxCell>
        <mxCell id="BjjVGWqRsL4OBueb088s-101" value="*&amp;nbsp; pxNext" style="rounded=0;whiteSpace=wrap;html=1;" parent="BjjVGWqRsL4OBueb088s-100" vertex="1">
          <mxGeometry width="108" height="20" as="geometry" />
        </mxCell>
        <mxCell id="BjjVGWqRsL4OBueb088s-102" value="*&amp;nbsp; pxPrevious" style="rounded=0;whiteSpace=wrap;html=1;" parent="BjjVGWqRsL4OBueb088s-100" vertex="1">
          <mxGeometry y="20" width="108" height="20" as="geometry" />
        </mxCell>
        <mxCell id="BjjVGWqRsL4OBueb088s-103" value="xItemValue=3" style="rounded=0;whiteSpace=wrap;html=1;" parent="BjjVGWqRsL4OBueb088s-115" vertex="1">
          <mxGeometry x="575" y="89" width="108" height="20" as="geometry" />
        </mxCell>
        <mxCell id="BjjVGWqRsL4OBueb088s-104" value="" style="endArrow=classic;html=1;rounded=0;exitX=1;exitY=0.5;exitDx=0;exitDy=0;endSize=2;" parent="BjjVGWqRsL4OBueb088s-115" source="BjjVGWqRsL4OBueb088s-98" edge="1">
          <mxGeometry width="50" height="50" relative="1" as="geometry">
            <mxPoint x="683" y="184" as="sourcePoint" />
            <mxPoint x="700" y="179" as="targetPoint" />
          </mxGeometry>
        </mxCell>
        <mxCell id="BjjVGWqRsL4OBueb088s-105" value="" style="endArrow=classic;html=1;rounded=0;exitX=1;exitY=0.5;exitDx=0;exitDy=0;entryX=0.005;entryY=0.424;entryDx=0;entryDy=0;entryPerimeter=0;endSize=2;" parent="BjjVGWqRsL4OBueb088s-115" edge="1">
          <mxGeometry width="50" height="50" relative="1" as="geometry">
            <mxPoint x="330" y="125.5" as="sourcePoint" />
            <mxPoint x="386" y="124.5" as="targetPoint" />
          </mxGeometry>
        </mxCell>
        <mxCell id="BjjVGWqRsL4OBueb088s-106" value="" style="endArrow=classic;html=1;rounded=0;exitX=1;exitY=0.5;exitDx=0;exitDy=0;entryX=0.005;entryY=0.424;entryDx=0;entryDy=0;entryPerimeter=0;endSize=2;" parent="BjjVGWqRsL4OBueb088s-115" edge="1">
          <mxGeometry width="50" height="50" relative="1" as="geometry">
            <mxPoint x="506" y="125.5" as="sourcePoint" />
            <mxPoint x="562" y="124.5" as="targetPoint" />
          </mxGeometry>
        </mxCell>
        <mxCell id="BjjVGWqRsL4OBueb088s-107" value="" style="endArrow=classic;html=1;rounded=0;exitX=0.008;exitY=0.387;exitDx=0;exitDy=0;entryX=1.002;entryY=0.493;entryDx=0;entryDy=0;endSize=2;exitPerimeter=0;entryPerimeter=0;" parent="BjjVGWqRsL4OBueb088s-115" target="BjjVGWqRsL4OBueb088s-65" edge="1">
          <mxGeometry width="50" height="50" relative="1" as="geometry">
            <mxPoint x="398" y="152.51999999999998" as="sourcePoint" />
            <mxPoint x="330" y="152.51999999999998" as="targetPoint" />
          </mxGeometry>
        </mxCell>
        <mxCell id="BjjVGWqRsL4OBueb088s-108" value="" style="endArrow=classic;html=1;rounded=0;exitX=0.008;exitY=0.387;exitDx=0;exitDy=0;entryX=1.002;entryY=0.493;entryDx=0;entryDy=0;endSize=2;exitPerimeter=0;entryPerimeter=0;" parent="BjjVGWqRsL4OBueb088s-115" edge="1">
          <mxGeometry width="50" height="50" relative="1" as="geometry">
            <mxPoint x="575" y="149" as="sourcePoint" />
            <mxPoint x="537" y="148.48000000000002" as="targetPoint" />
          </mxGeometry>
        </mxCell>
        <mxCell id="BjjVGWqRsL4OBueb088s-110" value="" style="endArrow=none;html=1;rounded=0;fontFamily=Helvetica;fontSize=12;fontColor=default;entryX=0.51;entryY=0.993;entryDx=0;entryDy=0;entryPerimeter=0;" parent="BjjVGWqRsL4OBueb088s-115" target="BjjVGWqRsL4OBueb088s-99" edge="1">
          <mxGeometry width="50" height="50" relative="1" as="geometry">
            <mxPoint x="630" y="240" as="sourcePoint" />
            <mxPoint x="610" y="270" as="targetPoint" />
          </mxGeometry>
        </mxCell>
        <mxCell id="BjjVGWqRsL4OBueb088s-111" value="" style="endArrow=none;html=1;rounded=0;fontFamily=Helvetica;fontSize=12;fontColor=default;entryX=0.51;entryY=0.993;entryDx=0;entryDy=0;entryPerimeter=0;" parent="BjjVGWqRsL4OBueb088s-115" edge="1">
          <mxGeometry width="50" height="50" relative="1" as="geometry">
            <mxPoint x="451.8" y="240" as="sourcePoint" />
            <mxPoint x="451.8" y="219" as="targetPoint" />
          </mxGeometry>
        </mxCell>
        <mxCell id="BjjVGWqRsL4OBueb088s-112" value="" style="endArrow=none;html=1;rounded=0;fontFamily=Helvetica;fontSize=12;fontColor=default;entryX=0.51;entryY=0.993;entryDx=0;entryDy=0;entryPerimeter=0;" parent="BjjVGWqRsL4OBueb088s-115" edge="1">
          <mxGeometry width="50" height="50" relative="1" as="geometry">
            <mxPoint x="275.8" y="240" as="sourcePoint" />
            <mxPoint x="275.8" y="219" as="targetPoint" />
          </mxGeometry>
        </mxCell>
        <mxCell id="BjjVGWqRsL4OBueb088s-73" value="&lt;div&gt;&lt;span style=&quot;background-color: initial;&quot;&gt;&amp;nbsp; &lt;br&gt;&amp;nbsp; &amp;nbsp;MiniListItem_t&lt;/span&gt;&lt;br&gt;&lt;/div&gt;&lt;div&gt;&lt;br&gt;&lt;/div&gt;" style="rounded=0;whiteSpace=wrap;html=1;align=left;container=0;" parent="BjjVGWqRsL4OBueb088s-115" vertex="1">
          <mxGeometry y="22" width="190" height="170" as="geometry" />
        </mxCell>
        <mxCell id="BjjVGWqRsL4OBueb088s-74" value="&lt;span style=&quot;text-align: left;&quot;&gt;xLIST&lt;/span&gt;" style="text;html=1;align=center;verticalAlign=middle;whiteSpace=wrap;rounded=0;container=0;" parent="BjjVGWqRsL4OBueb088s-115" vertex="1">
          <mxGeometry x="63" width="60" height="30" as="geometry" />
        </mxCell>
        <mxCell id="BjjVGWqRsL4OBueb088s-75" value="&lt;span style=&quot;text-align: left;&quot;&gt;uxNumerOfItems = 3&lt;/span&gt;" style="rounded=0;whiteSpace=wrap;html=1;container=0;" parent="BjjVGWqRsL4OBueb088s-115" vertex="1">
          <mxGeometry x="35" y="30" width="120" height="22" as="geometry" />
        </mxCell>
        <mxCell id="BjjVGWqRsL4OBueb088s-76" value="&lt;span style=&quot;text-align: left;&quot;&gt;* pxIntex&lt;/span&gt;" style="rounded=0;whiteSpace=wrap;html=1;container=0;" parent="BjjVGWqRsL4OBueb088s-115" vertex="1">
          <mxGeometry x="35" y="62" width="120" height="20" as="geometry" />
        </mxCell>
        <mxCell id="BjjVGWqRsL4OBueb088s-77" value="" style="endArrow=classic;html=1;rounded=0;exitX=0.75;exitY=1;exitDx=0;exitDy=0;entryX=0.75;entryY=0;entryDx=0;entryDy=0;endSize=2;" parent="BjjVGWqRsL4OBueb088s-115" source="BjjVGWqRsL4OBueb088s-76" target="BjjVGWqRsL4OBueb088s-78" edge="1">
          <mxGeometry width="50" height="50" relative="1" as="geometry">
            <mxPoint x="170" y="122" as="sourcePoint" />
            <mxPoint x="220" y="72" as="targetPoint" />
          </mxGeometry>
        </mxCell>
        <mxCell id="BjjVGWqRsL4OBueb088s-78" value="&lt;font style=&quot;font-size: 8px;&quot;&gt;xItemValue=portMAX_DELAY&lt;/font&gt;" style="rounded=0;whiteSpace=wrap;html=1;container=0;" parent="BjjVGWqRsL4OBueb088s-115" vertex="1">
          <mxGeometry x="35" y="115" width="120" height="20" as="geometry" />
        </mxCell>
        <mxCell id="BjjVGWqRsL4OBueb088s-79" value="*&amp;nbsp; pxNext" style="rounded=0;whiteSpace=wrap;html=1;container=0;" parent="BjjVGWqRsL4OBueb088s-115" vertex="1">
          <mxGeometry x="35" y="133" width="120" height="20" as="geometry" />
        </mxCell>
        <mxCell id="BjjVGWqRsL4OBueb088s-80" value="*&amp;nbsp; pxPrevious" style="rounded=0;whiteSpace=wrap;html=1;container=0;" parent="BjjVGWqRsL4OBueb088s-115" vertex="1">
          <mxGeometry x="35" y="153" width="120" height="20" as="geometry" />
        </mxCell>
        <mxCell id="BjjVGWqRsL4OBueb088s-86" value="" style="rounded=0;whiteSpace=wrap;html=1;strokeColor=#EA6B66;align=left;verticalAlign=middle;fontFamily=Helvetica;fontSize=12;fontColor=default;fillColor=none;" parent="BjjVGWqRsL4OBueb088s-115" vertex="1">
          <mxGeometry x="35" y="114" width="120" height="60" as="geometry" />
        </mxCell>
        <mxCell id="BjjVGWqRsL4OBueb088s-81" value="" style="endArrow=classic;html=1;rounded=0;exitX=1;exitY=0.5;exitDx=0;exitDy=0;entryX=-0.003;entryY=0.423;entryDx=0;entryDy=0;entryPerimeter=0;endSize=2;" parent="BjjVGWqRsL4OBueb088s-115" source="BjjVGWqRsL4OBueb088s-79" target="BjjVGWqRsL4OBueb088s-65" edge="1">
          <mxGeometry width="50" height="50" relative="1" as="geometry">
            <mxPoint x="150" y="152" as="sourcePoint" />
            <mxPoint x="200" y="102" as="targetPoint" />
          </mxGeometry>
        </mxCell>
        <mxCell id="BjjVGWqRsL4OBueb088s-82" value="" style="endArrow=classic;html=1;rounded=0;entryX=1;entryY=0.5;entryDx=0;entryDy=0;endSize=2;exitX=0;exitY=0.5;exitDx=0;exitDy=0;" parent="BjjVGWqRsL4OBueb088s-115" source="BjjVGWqRsL4OBueb088s-70" target="BjjVGWqRsL4OBueb088s-78" edge="1">
          <mxGeometry width="50" height="50" relative="1" as="geometry">
            <mxPoint x="220" y="130" as="sourcePoint" />
            <mxPoint x="222" y="124.5" as="targetPoint" />
          </mxGeometry>
        </mxCell>
        <mxCell id="BjjVGWqRsL4OBueb088s-83" value="" style="endArrow=classic;html=1;rounded=0;exitX=0.292;exitY=1.007;exitDx=0;exitDy=0;entryX=0.515;entryY=0.999;entryDx=0;entryDy=0;exitPerimeter=0;endSize=2;entryPerimeter=0;" parent="BjjVGWqRsL4OBueb088s-115" source="BjjVGWqRsL4OBueb088s-80" target="BjjVGWqRsL4OBueb088s-96" edge="1">
          <mxGeometry width="50" height="50" relative="1" as="geometry">
            <mxPoint x="90" y="262" as="sourcePoint" />
            <mxPoint x="140" y="212" as="targetPoint" />
            <Array as="points">
              <mxPoint x="70" y="250" />
              <mxPoint x="640" y="250" />
            </Array>
          </mxGeometry>
        </mxCell>
        <mxCell id="BjjVGWqRsL4OBueb088s-117" value="" style="group" parent="WIyWlLk6GJQsqaUBKTNV-1" vertex="1" connectable="0">
          <mxGeometry x="110" y="35" width="190" height="192" as="geometry" />
        </mxCell>
        <mxCell id="BjjVGWqRsL4OBueb088s-0" value="&lt;div&gt;&lt;span style=&quot;background-color: initial;&quot;&gt;&amp;nbsp; &lt;br&gt;&amp;nbsp; &amp;nbsp;MiniListItem_t&lt;/span&gt;&lt;br&gt;&lt;/div&gt;&lt;div&gt;&lt;br&gt;&lt;/div&gt;" style="rounded=0;whiteSpace=wrap;html=1;align=left;container=0;" parent="BjjVGWqRsL4OBueb088s-117" vertex="1">
          <mxGeometry y="22" width="190" height="170" as="geometry" />
        </mxCell>
        <mxCell id="BjjVGWqRsL4OBueb088s-3" value="&lt;span style=&quot;text-align: left;&quot;&gt;xLIST&lt;/span&gt;" style="text;html=1;align=center;verticalAlign=middle;whiteSpace=wrap;rounded=0;container=0;" parent="BjjVGWqRsL4OBueb088s-117" vertex="1">
          <mxGeometry x="63" width="60" height="30" as="geometry" />
        </mxCell>
        <mxCell id="BjjVGWqRsL4OBueb088s-4" value="&lt;span style=&quot;text-align: left;&quot;&gt;uxNumerOfItems = 0&lt;/span&gt;" style="rounded=0;whiteSpace=wrap;html=1;container=0;" parent="BjjVGWqRsL4OBueb088s-117" vertex="1">
          <mxGeometry x="35" y="30" width="120" height="22" as="geometry" />
        </mxCell>
        <mxCell id="BjjVGWqRsL4OBueb088s-5" value="&lt;span style=&quot;text-align: left;&quot;&gt;* pxIntex&lt;/span&gt;" style="rounded=0;whiteSpace=wrap;html=1;container=0;" parent="BjjVGWqRsL4OBueb088s-117" vertex="1">
          <mxGeometry x="35" y="62" width="120" height="20" as="geometry" />
        </mxCell>
        <mxCell id="BjjVGWqRsL4OBueb088s-13" value="" style="endArrow=classic;html=1;rounded=0;exitX=0.75;exitY=1;exitDx=0;exitDy=0;entryX=0.75;entryY=0;entryDx=0;entryDy=0;endSize=2;" parent="BjjVGWqRsL4OBueb088s-117" source="BjjVGWqRsL4OBueb088s-5" target="BjjVGWqRsL4OBueb088s-6" edge="1">
          <mxGeometry width="50" height="50" relative="1" as="geometry">
            <mxPoint x="170" y="122" as="sourcePoint" />
            <mxPoint x="220" y="72" as="targetPoint" />
          </mxGeometry>
        </mxCell>
        <mxCell id="BjjVGWqRsL4OBueb088s-6" value="&lt;font style=&quot;font-size: 8px;&quot;&gt;xItemValue=portMAX_DELAY&amp;nbsp;&lt;/font&gt;" style="rounded=0;whiteSpace=wrap;html=1;container=0;" parent="BjjVGWqRsL4OBueb088s-117" vertex="1">
          <mxGeometry x="35" y="115.83870967741936" width="120" height="18.387096774193548" as="geometry" />
        </mxCell>
        <mxCell id="BjjVGWqRsL4OBueb088s-9" value="*&amp;nbsp; pxNext" style="rounded=0;whiteSpace=wrap;html=1;container=0;" parent="BjjVGWqRsL4OBueb088s-117" vertex="1">
          <mxGeometry x="35" y="132.38709677419354" width="120" height="18.387096774193548" as="geometry" />
        </mxCell>
        <mxCell id="BjjVGWqRsL4OBueb088s-10" value="*&amp;nbsp; pxPrevious" style="rounded=0;whiteSpace=wrap;html=1;container=0;" parent="BjjVGWqRsL4OBueb088s-117" vertex="1">
          <mxGeometry x="35" y="150.7741935483871" width="120" height="18.387096774193548" as="geometry" />
        </mxCell>
        <mxCell id="BjjVGWqRsL4OBueb088s-21" value="" style="curved=1;endArrow=classic;html=1;rounded=0;exitX=1;exitY=0.5;exitDx=0;exitDy=0;entryX=0.902;entryY=-0.011;entryDx=0;entryDy=0;entryPerimeter=0;endSize=2;" parent="BjjVGWqRsL4OBueb088s-117" source="BjjVGWqRsL4OBueb088s-9" target="BjjVGWqRsL4OBueb088s-6" edge="1">
          <mxGeometry width="50" height="50" relative="1" as="geometry">
            <mxPoint x="160" y="140.66129032258064" as="sourcePoint" />
            <mxPoint x="140" y="113.0806451612903" as="targetPoint" />
            <Array as="points">
              <mxPoint x="170" y="140.66129032258064" />
              <mxPoint x="180" y="122.2741935483871" />
              <mxPoint x="160" y="103.88709677419354" />
            </Array>
          </mxGeometry>
        </mxCell>
        <mxCell id="BjjVGWqRsL4OBueb088s-23" value="" style="curved=1;endArrow=classic;html=1;rounded=0;entryX=0.25;entryY=1;entryDx=0;entryDy=0;exitX=0;exitY=0.5;exitDx=0;exitDy=0;endSize=2;" parent="BjjVGWqRsL4OBueb088s-117" source="BjjVGWqRsL4OBueb088s-10" target="BjjVGWqRsL4OBueb088s-10" edge="1">
          <mxGeometry width="50" height="50" relative="1" as="geometry">
            <mxPoint x="10" y="177.43548387096774" as="sourcePoint" />
            <mxPoint x="60" y="131.46774193548387" as="targetPoint" />
            <Array as="points">
              <mxPoint x="30" y="159.0483870967742" />
              <mxPoint x="30" y="177.43548387096774" />
              <mxPoint x="60" y="177.43548387096774" />
            </Array>
          </mxGeometry>
        </mxCell>
        <mxCell id="BjjVGWqRsL4OBueb088s-12" value="" style="group;strokeColor=#EA6B66;container=0;" parent="BjjVGWqRsL4OBueb088s-117" vertex="1" connectable="0">
          <mxGeometry x="35" y="115.97" width="120" height="54.03" as="geometry" />
        </mxCell>
        <mxCell id="BjjVGWqRsL4OBueb088s-39" value="" style="rounded=0;whiteSpace=wrap;html=1;strokeColor=#EA6B66;" parent="WIyWlLk6GJQsqaUBKTNV-1" vertex="1">
          <mxGeometry x="630" y="90" width="150" height="147" as="geometry" />
        </mxCell>
        <mxCell id="BjjVGWqRsL4OBueb088s-40" value="xLIST_ITEM" style="text;html=1;align=center;verticalAlign=middle;whiteSpace=wrap;rounded=0;" parent="WIyWlLk6GJQsqaUBKTNV-1" vertex="1">
          <mxGeometry x="642" y="65" width="60" height="30" as="geometry" />
        </mxCell>
        <mxCell id="BjjVGWqRsL4OBueb088s-43" value="* pvOwner" style="rounded=0;whiteSpace=wrap;html=1;" parent="WIyWlLk6GJQsqaUBKTNV-1" vertex="1">
          <mxGeometry x="642" y="177" width="108" height="20" as="geometry" />
        </mxCell>
        <mxCell id="BjjVGWqRsL4OBueb088s-44" value="*&amp;nbsp; pvContainer" style="rounded=0;whiteSpace=wrap;html=1;" parent="WIyWlLk6GJQsqaUBKTNV-1" vertex="1">
          <mxGeometry x="642" y="207" width="108" height="20" as="geometry" />
        </mxCell>
        <mxCell id="BjjVGWqRsL4OBueb088s-45" value="" style="group" parent="WIyWlLk6GJQsqaUBKTNV-1" vertex="1" connectable="0">
          <mxGeometry x="642" y="127" width="108" height="40" as="geometry" />
        </mxCell>
        <mxCell id="BjjVGWqRsL4OBueb088s-41" value="*&amp;nbsp; pxNext" style="rounded=0;whiteSpace=wrap;html=1;" parent="BjjVGWqRsL4OBueb088s-45" vertex="1">
          <mxGeometry width="108" height="20" as="geometry" />
        </mxCell>
        <mxCell id="BjjVGWqRsL4OBueb088s-42" value="*&amp;nbsp; pxPrevious" style="rounded=0;whiteSpace=wrap;html=1;" parent="BjjVGWqRsL4OBueb088s-45" vertex="1">
          <mxGeometry y="20" width="108" height="20" as="geometry" />
        </mxCell>
        <mxCell id="BjjVGWqRsL4OBueb088s-46" value="xItemValue=1" style="rounded=0;whiteSpace=wrap;html=1;" parent="WIyWlLk6GJQsqaUBKTNV-1" vertex="1">
          <mxGeometry x="642" y="97" width="108" height="20" as="geometry" />
        </mxCell>
        <mxCell id="BjjVGWqRsL4OBueb088s-51" value="" style="endArrow=classic;html=1;rounded=0;exitX=0;exitY=0.5;exitDx=0;exitDy=0;entryX=0.737;entryY=1.001;entryDx=0;entryDy=0;entryPerimeter=0;endSize=2;" parent="WIyWlLk6GJQsqaUBKTNV-1" source="BjjVGWqRsL4OBueb088s-44" target="BjjVGWqRsL4OBueb088s-28" edge="1">
          <mxGeometry width="50" height="50" relative="1" as="geometry">
            <mxPoint x="640" y="222" as="sourcePoint" />
            <mxPoint x="690" y="172" as="targetPoint" />
            <Array as="points">
              <mxPoint x="560" y="217" />
            </Array>
          </mxGeometry>
        </mxCell>
        <mxCell id="BjjVGWqRsL4OBueb088s-52" value="" style="endArrow=classic;html=1;rounded=0;exitX=1;exitY=0.5;exitDx=0;exitDy=0;endSize=2;" parent="WIyWlLk6GJQsqaUBKTNV-1" source="BjjVGWqRsL4OBueb088s-43" edge="1">
          <mxGeometry width="50" height="50" relative="1" as="geometry">
            <mxPoint x="750" y="192" as="sourcePoint" />
            <mxPoint x="770" y="187" as="targetPoint" />
          </mxGeometry>
        </mxCell>
        <mxCell id="BjjVGWqRsL4OBueb088s-28" value="&lt;div&gt;&lt;span style=&quot;background-color: initial;&quot;&gt;&amp;nbsp; &lt;br&gt;&amp;nbsp; &amp;nbsp;MiniListItem_t&lt;/span&gt;&lt;br&gt;&lt;/div&gt;&lt;div&gt;&lt;br&gt;&lt;/div&gt;" style="rounded=0;whiteSpace=wrap;html=1;align=left;container=0;" parent="WIyWlLk6GJQsqaUBKTNV-1" vertex="1">
          <mxGeometry x="420" y="32" width="190" height="170" as="geometry" />
        </mxCell>
        <mxCell id="BjjVGWqRsL4OBueb088s-29" value="&lt;span style=&quot;text-align: left;&quot;&gt;xLIST&lt;/span&gt;" style="text;html=1;align=center;verticalAlign=middle;whiteSpace=wrap;rounded=0;container=0;" parent="WIyWlLk6GJQsqaUBKTNV-1" vertex="1">
          <mxGeometry x="483" y="10" width="60" height="30" as="geometry" />
        </mxCell>
        <mxCell id="BjjVGWqRsL4OBueb088s-30" value="&lt;span style=&quot;text-align: left;&quot;&gt;uxNumerOfItems = 1&lt;/span&gt;" style="rounded=0;whiteSpace=wrap;html=1;container=0;" parent="WIyWlLk6GJQsqaUBKTNV-1" vertex="1">
          <mxGeometry x="455" y="40" width="120" height="22" as="geometry" />
        </mxCell>
        <mxCell id="BjjVGWqRsL4OBueb088s-31" value="&lt;span style=&quot;text-align: left;&quot;&gt;* pxIntex&lt;/span&gt;" style="rounded=0;whiteSpace=wrap;html=1;container=0;" parent="WIyWlLk6GJQsqaUBKTNV-1" vertex="1">
          <mxGeometry x="455" y="72" width="120" height="20" as="geometry" />
        </mxCell>
        <mxCell id="BjjVGWqRsL4OBueb088s-38" value="" style="endArrow=classic;html=1;rounded=0;exitX=0.75;exitY=1;exitDx=0;exitDy=0;entryX=0.75;entryY=0;entryDx=0;entryDy=0;endSize=2;" parent="WIyWlLk6GJQsqaUBKTNV-1" source="BjjVGWqRsL4OBueb088s-31" target="BjjVGWqRsL4OBueb088s-33" edge="1">
          <mxGeometry width="50" height="50" relative="1" as="geometry">
            <mxPoint x="590" y="132" as="sourcePoint" />
            <mxPoint x="640" y="82" as="targetPoint" />
          </mxGeometry>
        </mxCell>
        <mxCell id="BjjVGWqRsL4OBueb088s-33" value="&lt;font style=&quot;font-size: 8px;&quot;&gt;xItemValue=portMAX_DELAY&lt;/font&gt;" style="rounded=0;whiteSpace=wrap;html=1;container=0;" parent="WIyWlLk6GJQsqaUBKTNV-1" vertex="1">
          <mxGeometry x="455" y="125" width="120" height="20" as="geometry" />
        </mxCell>
        <mxCell id="BjjVGWqRsL4OBueb088s-34" value="*&amp;nbsp; pxNext" style="rounded=0;whiteSpace=wrap;html=1;container=0;" parent="WIyWlLk6GJQsqaUBKTNV-1" vertex="1">
          <mxGeometry x="455" y="143" width="120" height="20" as="geometry" />
        </mxCell>
        <mxCell id="BjjVGWqRsL4OBueb088s-35" value="*&amp;nbsp; pxPrevious" style="rounded=0;whiteSpace=wrap;html=1;container=0;" parent="WIyWlLk6GJQsqaUBKTNV-1" vertex="1">
          <mxGeometry x="455" y="163" width="120" height="20" as="geometry" />
        </mxCell>
        <mxCell id="BjjVGWqRsL4OBueb088s-64" value="" style="rounded=0;whiteSpace=wrap;html=1;strokeColor=#EA6B66;align=left;verticalAlign=middle;fontFamily=Helvetica;fontSize=12;fontColor=default;fillColor=none;movable=1;resizable=1;rotatable=1;deletable=1;editable=1;locked=0;connectable=1;" parent="WIyWlLk6GJQsqaUBKTNV-1" vertex="1">
          <mxGeometry x="455" y="124" width="120" height="60" as="geometry" />
        </mxCell>
        <mxCell id="BjjVGWqRsL4OBueb088s-49" value="" style="endArrow=classic;html=1;rounded=0;exitX=0.008;exitY=0.387;exitDx=0;exitDy=0;entryX=1;entryY=0.5;entryDx=0;entryDy=0;endSize=2;exitPerimeter=0;" parent="WIyWlLk6GJQsqaUBKTNV-1" source="BjjVGWqRsL4OBueb088s-41" target="BjjVGWqRsL4OBueb088s-33" edge="1">
          <mxGeometry width="50" height="50" relative="1" as="geometry">
            <mxPoint x="586" y="135.5" as="sourcePoint" />
            <mxPoint x="642" y="134.5" as="targetPoint" />
          </mxGeometry>
        </mxCell>
        <mxCell id="BjjVGWqRsL4OBueb088s-48" value="" style="endArrow=classic;html=1;rounded=0;exitX=1;exitY=0.5;exitDx=0;exitDy=0;entryX=0.005;entryY=0.424;entryDx=0;entryDy=0;entryPerimeter=0;endSize=2;" parent="WIyWlLk6GJQsqaUBKTNV-1" source="BjjVGWqRsL4OBueb088s-34" target="BjjVGWqRsL4OBueb088s-39" edge="1">
          <mxGeometry width="50" height="50" relative="1" as="geometry">
            <mxPoint x="570" y="162" as="sourcePoint" />
            <mxPoint x="620" y="112" as="targetPoint" />
          </mxGeometry>
        </mxCell>
        <mxCell id="BjjVGWqRsL4OBueb088s-118" value="header" style="ellipse;whiteSpace=wrap;html=1;aspect=fixed;rounded=0;strokeColor=default;align=center;verticalAlign=middle;fontFamily=Helvetica;fontSize=12;fontColor=default;fillColor=default;" parent="WIyWlLk6GJQsqaUBKTNV-1" vertex="1">
          <mxGeometry x="120" y="630" width="80" height="80" as="geometry" />
        </mxCell>
        <mxCell id="BjjVGWqRsL4OBueb088s-119" value="item1" style="ellipse;whiteSpace=wrap;html=1;aspect=fixed;rounded=0;strokeColor=default;align=center;verticalAlign=middle;fontFamily=Helvetica;fontSize=12;fontColor=default;fillColor=default;" parent="WIyWlLk6GJQsqaUBKTNV-1" vertex="1">
          <mxGeometry x="320" y="590" width="80" height="80" as="geometry" />
        </mxCell>
        <mxCell id="BjjVGWqRsL4OBueb088s-120" value="item2" style="ellipse;whiteSpace=wrap;html=1;aspect=fixed;rounded=0;strokeColor=default;align=center;verticalAlign=middle;fontFamily=Helvetica;fontSize=12;fontColor=default;fillColor=default;" parent="WIyWlLk6GJQsqaUBKTNV-1" vertex="1">
          <mxGeometry x="455" y="660" width="80" height="80" as="geometry" />
        </mxCell>
        <mxCell id="BjjVGWqRsL4OBueb088s-121" value="item3" style="ellipse;whiteSpace=wrap;html=1;aspect=fixed;rounded=0;strokeColor=default;align=center;verticalAlign=middle;fontFamily=Helvetica;fontSize=12;fontColor=default;fillColor=default;" parent="WIyWlLk6GJQsqaUBKTNV-1" vertex="1">
          <mxGeometry x="310" y="730" width="80" height="80" as="geometry" />
        </mxCell>
        <mxCell id="BjjVGWqRsL4OBueb088s-122" value="" style="endArrow=classic;html=1;rounded=0;fontFamily=Helvetica;fontSize=12;fontColor=default;entryX=0.251;entryY=0.075;entryDx=0;entryDy=0;exitX=1;exitY=0.5;exitDx=0;exitDy=0;entryPerimeter=0;" parent="WIyWlLk6GJQsqaUBKTNV-1" source="BjjVGWqRsL4OBueb088s-119" target="BjjVGWqRsL4OBueb088s-120" edge="1">
          <mxGeometry width="50" height="50" relative="1" as="geometry">
            <mxPoint x="400" y="630" as="sourcePoint" />
            <mxPoint x="450" y="580" as="targetPoint" />
          </mxGeometry>
        </mxCell>
        <mxCell id="BjjVGWqRsL4OBueb088s-123" value="" style="endArrow=classic;html=1;rounded=0;fontFamily=Helvetica;fontSize=12;fontColor=default;exitX=0.04;exitY=0.305;exitDx=0;exitDy=0;entryX=0.883;entryY=0.867;entryDx=0;entryDy=0;entryPerimeter=0;exitPerimeter=0;" parent="WIyWlLk6GJQsqaUBKTNV-1" source="BjjVGWqRsL4OBueb088s-120" target="BjjVGWqRsL4OBueb088s-119" edge="1">
          <mxGeometry width="50" height="50" relative="1" as="geometry">
            <mxPoint x="440" y="710" as="sourcePoint" />
            <mxPoint x="490" y="660" as="targetPoint" />
          </mxGeometry>
        </mxCell>
        <mxCell id="BjjVGWqRsL4OBueb088s-124" value="" style="endArrow=classic;html=1;rounded=0;fontFamily=Helvetica;fontSize=12;fontColor=default;exitX=0;exitY=1;exitDx=0;exitDy=0;entryX=1;entryY=0.5;entryDx=0;entryDy=0;" parent="WIyWlLk6GJQsqaUBKTNV-1" source="BjjVGWqRsL4OBueb088s-120" target="BjjVGWqRsL4OBueb088s-121" edge="1">
          <mxGeometry width="50" height="50" relative="1" as="geometry">
            <mxPoint x="465" y="710" as="sourcePoint" />
            <mxPoint x="370" y="680" as="targetPoint" />
          </mxGeometry>
        </mxCell>
        <mxCell id="BjjVGWqRsL4OBueb088s-125" value="" style="endArrow=classic;html=1;rounded=0;fontFamily=Helvetica;fontSize=12;fontColor=default;entryX=0;entryY=0.5;entryDx=0;entryDy=0;exitX=1;exitY=0;exitDx=0;exitDy=0;" parent="WIyWlLk6GJQsqaUBKTNV-1" source="BjjVGWqRsL4OBueb088s-121" target="BjjVGWqRsL4OBueb088s-120" edge="1">
          <mxGeometry width="50" height="50" relative="1" as="geometry">
            <mxPoint x="370" y="740" as="sourcePoint" />
            <mxPoint x="465" y="770" as="targetPoint" />
          </mxGeometry>
        </mxCell>
        <mxCell id="BjjVGWqRsL4OBueb088s-126" value="" style="endArrow=classic;html=1;rounded=0;fontFamily=Helvetica;fontSize=12;fontColor=default;exitX=0;exitY=0;exitDx=0;exitDy=0;entryX=0;entryY=1;entryDx=0;entryDy=0;" parent="WIyWlLk6GJQsqaUBKTNV-1" source="BjjVGWqRsL4OBueb088s-121" target="BjjVGWqRsL4OBueb088s-119" edge="1">
          <mxGeometry width="50" height="50" relative="1" as="geometry">
            <mxPoint x="385" y="710" as="sourcePoint" />
            <mxPoint x="290" y="680" as="targetPoint" />
          </mxGeometry>
        </mxCell>
        <mxCell id="BjjVGWqRsL4OBueb088s-127" value="" style="endArrow=classic;html=1;rounded=0;fontFamily=Helvetica;fontSize=12;fontColor=default;entryX=0.532;entryY=0.033;entryDx=0;entryDy=0;exitX=0.5;exitY=1;exitDx=0;exitDy=0;entryPerimeter=0;" parent="WIyWlLk6GJQsqaUBKTNV-1" source="BjjVGWqRsL4OBueb088s-119" target="BjjVGWqRsL4OBueb088s-121" edge="1">
          <mxGeometry width="50" height="50" relative="1" as="geometry">
            <mxPoint x="388" y="752" as="sourcePoint" />
            <mxPoint x="465" y="710" as="targetPoint" />
          </mxGeometry>
        </mxCell>
        <mxCell id="BjjVGWqRsL4OBueb088s-128" value="" style="endArrow=classic;html=1;rounded=0;fontFamily=Helvetica;fontSize=12;fontColor=default;exitX=1;exitY=1;exitDx=0;exitDy=0;entryX=0.034;entryY=0.303;entryDx=0;entryDy=0;entryPerimeter=0;" parent="WIyWlLk6GJQsqaUBKTNV-1" source="BjjVGWqRsL4OBueb088s-118" target="BjjVGWqRsL4OBueb088s-121" edge="1">
          <mxGeometry width="50" height="50" relative="1" as="geometry">
            <mxPoint x="166.5642712474619" y="709.9957287525381" as="sourcePoint" />
            <mxPoint x="309.99572875253807" y="669.9957287525381" as="targetPoint" />
          </mxGeometry>
        </mxCell>
        <mxCell id="BjjVGWqRsL4OBueb088s-129" value="" style="endArrow=classic;html=1;rounded=0;fontFamily=Helvetica;fontSize=12;fontColor=default;entryX=1;entryY=0;entryDx=0;entryDy=0;exitX=0;exitY=0;exitDx=0;exitDy=0;" parent="WIyWlLk6GJQsqaUBKTNV-1" source="BjjVGWqRsL4OBueb088s-119" target="BjjVGWqRsL4OBueb088s-118" edge="1">
          <mxGeometry width="50" height="50" relative="1" as="geometry">
            <mxPoint x="370" y="680" as="sourcePoint" />
            <mxPoint x="363" y="743" as="targetPoint" />
          </mxGeometry>
        </mxCell>
        <mxCell id="BjjVGWqRsL4OBueb088s-131" value="" style="curved=1;endArrow=classic;html=1;rounded=0;fontFamily=Helvetica;fontSize=12;fontColor=default;entryX=0.5;entryY=0;entryDx=0;entryDy=0;exitX=0.5;exitY=1;exitDx=0;exitDy=0;" parent="WIyWlLk6GJQsqaUBKTNV-1" source="BjjVGWqRsL4OBueb088s-121" target="BjjVGWqRsL4OBueb088s-118" edge="1">
          <mxGeometry width="50" height="50" relative="1" as="geometry">
            <mxPoint x="600" y="750" as="sourcePoint" />
            <mxPoint x="260" y="540" as="targetPoint" />
            <Array as="points">
              <mxPoint x="450" y="800" />
              <mxPoint x="530" y="760" />
              <mxPoint x="570" y="690" />
              <mxPoint x="530" y="630" />
              <mxPoint x="460" y="590" />
              <mxPoint x="300" y="560" />
            </Array>
          </mxGeometry>
        </mxCell>
        <mxCell id="BjjVGWqRsL4OBueb088s-133" value="" style="curved=1;endArrow=classic;html=1;rounded=0;fontFamily=Helvetica;fontSize=12;fontColor=default;exitX=1;exitY=1;exitDx=0;exitDy=0;" parent="WIyWlLk6GJQsqaUBKTNV-1" source="BjjVGWqRsL4OBueb088s-120" edge="1">
          <mxGeometry width="50" height="50" relative="1" as="geometry">
            <mxPoint x="530" y="730" as="sourcePoint" />
            <mxPoint x="550" y="660" as="targetPoint" />
            <Array as="points">
              <mxPoint x="550" y="730" />
            </Array>
          </mxGeometry>
        </mxCell>
        <mxCell id="BjjVGWqRsL4OBueb088s-136" value="" style="curved=1;endArrow=classic;html=1;rounded=0;fontFamily=Helvetica;fontSize=12;fontColor=default;exitX=0.99;exitY=0.387;exitDx=0;exitDy=0;exitPerimeter=0;" parent="WIyWlLk6GJQsqaUBKTNV-1" source="BjjVGWqRsL4OBueb088s-119" edge="1">
          <mxGeometry width="50" height="50" relative="1" as="geometry">
            <mxPoint x="390" y="608" as="sourcePoint" />
            <mxPoint x="400" y="580" as="targetPoint" />
            <Array as="points">
              <mxPoint x="417" y="610" />
            </Array>
          </mxGeometry>
        </mxCell>
        <mxCell id="BjjVGWqRsL4OBueb088s-138" value="" style="shape=image;verticalLabelPosition=bottom;labelBackgroundColor=default;verticalAlign=top;aspect=fixed;imageAspect=0;image=data:image/png,iVBORw0KGgoAAAANSUhEUgAAAykAAAJbCAYAAADg99sUAAAgAElEQVR4Aex9TcxkR3V2Z49YIbExWQ9qIRb27FjBEim8m1akmGSBhbLAEihsBsWRmij2IoEos8Ijx2SSLFBaQrZsD5GAoFGSxVgjKwRe2WOZBZMJihwx9tgespixqO87VfdUnTr107du3+6+3f28Us+t31OnnvvcW+e5dXt6du/ePbOtv9urj5nf/PJp88HrT5r3b56Zd68/Zu5e+4T55pc+Eg35sy//PMrrDPmIDzAAB8ABcAAcAAcOhwOvvPKKXs6RP3EEiBO4hg/nGt7FuardJ2bkQN+/miFtwwqU2894gXLv+kVz99ojWYHy4PsPTE2o7AIkjIGLBhwAB8ABcAAcGI8DLTGDjiGQP04EIFLGu76O5V5Vu080iZS+l4wTKE+b+298xbx388zcu/6Yeaewg0IC5cGzD81bX/uF+danvp0dIj4RV83Z7IK5dEOd6BuXzIVcecMuzNWzmZnN0s+FSzeg/BtwjM+XOk+wAy6BA+AAOHASHMgGH6uFX2fny/Psmi8LV4uwJkftS3b2Vd45fb6cm9l8aUozs/UcZyxWcqpdemUWs7lJoDlfmnmuPGOhVCSxlLFOhGup80jlhyVSCvHmPSo/M1f5Pnb1zHN61pUjnuwf+2XvEx3fqiLlhz/6sbl8+XLxQ/Wlv+9e+qh57+YX7Cte7/7k03YH5avL7xj+3HryTdNHoJD9OOgtkWYdIC39WtrKcYf2kzaQjs838AAe4AA4AA4cIgfS4IMC8IVxoXkhGJdBxfnSLH0cL9uX7OyrnJ2m8WdlkWKFxrr5y3my3T7Hln4tbeXYQ/sFG/1EyjZiqSE2S32ovBMp9gG5ECw3LplLV+X9qmRDtjntdHqfCHypihQSKA8ePix+qL72R0LlnR88YujIfyRS+O+lz7xc3UHhdvHNeegJb+nX0laSa2g/aQPp+HwDD+ABDoAD4MAhciAJPmiXQ+we0K5C/6f452Y573YYSnb2Vd4FKzSfxXJp5qWdFBIpvk7MJyofKgRa+rW05UiMjkP7BRtHJ1JoF+XCJXODd1WSI+LCdfeu5D4R6GK2KlJoHClQKC9FCuVLr3gJH3vupEgi3DCXLoQt4rOrVBfys7OryqZeAKWte+aeVcrcnxXzpmPoMZFfR2TUgyPgADgADhwOB3TwkYgSKyqWZjmfBbFCZT6Ql5EABchuFyJvZ2X2VW69JKFBAiwSHNJ/lw6vXIlXuqI+JSEgy0ngcEwyM4sV1YW8FIKpB1QibRnns+/POz2bjpEfORUpfWIpF5OdnV0w7nUqFaPZ16/k1wD62OTryLX1r/VHokOPw32onGNBSs+M7w+Rsia+ZgzDUd8nJHO2LlLkYJTWIoXKHn/ulm4W5eNFqUaajqREskSIlPoFoMI4sq1M3zP3rp45Mm48Rm5clIVzACyABTgADoADh8wBHXyURIQLmik4puCZg+QoDDAU3POuS8nOvsqNKe2KxHMwJMDs90o6UcG7StEOkBIQ3oQoj9pzA1HPRcWjbCvTpF8WDueNx8gPnoiUXrEUxWFSCKi4LBIpSnR40aD7yHsL1ZHo4CPXlfrodkEUnUWvepGdkg0eA0d9n5DMWStS7t79tfn8E99LPlTOr3vxAKWjHFCLFBIoV14z5nNff1U2i9LxTbp0wkV5t/MRK1tR70lbIodoG+2idE8qSABtPEZpbJTH5xt4AA9wABwABw6RAxwT8IJeEhG23gbwtCvArfnonuizQKHSkp1JlEe7IjwH3q2IBRgLLzqGeSvR4E2IchpjFkSbayLqfZ9SQrTtbMkv0tudmI3HyI9NnIi43CuWEjGZjd8qeWuPdznkfUP3kXXuATRhEIuMUh8qz4zRzaWfDTX+2rj0eNvr+4RkTi+RQoIk92GRIg2uS0uRwgLlqVfetrsps0evZLtHhC6q0pRMNy7R1iCTLq2P7UoCiLZFwrv2w8eQ4yFdPhfABtiAA+AAOHCIHEiCD/V0PhIVWZEidihkdFCys5fyZfyqFb82pV9ZI990md2BmUXf00lexfLzFsKiKyP8KMZxAiet912ThGhrxUgsnmTz4WNIKyGdiJQuOK/HUiImm7JIuXfP2HlEb/Jo33Ev0/ey5D4R6LL+Oyl37twxpc9QkUJCpa9AIV/jCZVOeL6cCON2VPL1sW0mj2xLabnNyG3CcdgYoX/eB9QDF3AAHAAHwIHD5UASfEQBsQiU/WteVCYCZiU6fOxSsrOvcu9Yt2OSiBFqQHNjQdF1oPlZUSPmrL8v4m1LvHyh2FXK14eWMiXbOr/kTpVsSekgJmU/3apfviRS6Dovx1IyJqPrwb1e5Xcs6JUx/xMUO37d6+ol8ZMYubG174d7PW/rXpzcJwSV1u6klAQKlQ8RKWJsc/GJa9UdFG4bA+NEg7uw3etXiQixhOUvkYUtOf//VkcqN0cYRapuC8+PSf03HiM3Lsricw08gAc4AA6AA4fKgWzw4QNzDtjj17nsk/suyOen+H7tla84JXa6iGFf5RywkFDKihR+5Ytjk/BfFft52n5ONKRzFgJBzHEmRJ3/Un54d4y9Ukdhi2qsuBN+Uf+Nx1BDdtlEpPSKpVRMRrspst/Zmfr9vDhOZDGTjwFjYWF3Qvz/1hXboXMS4k2OLVWbJL7M+H7Cr3bl7mXZ+0THl6pI2eR3UvL0TEtLr3jJlrlJoQwLNzgADoAD4AA4MF0O1IIPucYjfToIJCIFAbt6W2i61/O27rW1+0RVpEzlshkfGKV87XYrq+LTI8j4+AJDYAoOgAPgwKlzoBZ8TCW+OE4/0t0YueOyzzlDpOC+qO+LtftEk0ipGdom6fWEkAfJwQFwABwAB8CBaXNgXzHDNuMR2N4MAYiUaV+z+7in1u4TTSJlM2oO770P0DAmLiRwABwAB8ABcGA4B2rBx/CIAD0PGQGIlOHX07Hei2r3iSaRUjO0zYvmWE8M5oWLFRwAB8ABcOBYObCvmGGb8Qhsb4YARArud/p+V7tPNImUzag5vLeeEPIgOTgADoAD4AA4MG0O1IKP4REBeh4yAhAp075m93FPrd0nmkRKzdCQi2Zse0N8QB8gAASAABAAAkBgfARojccHGIAD4MA6DpTuPk0ipWQE5UAACAABIAAEgAAQkAhQYII/ICARACckGkgTAjVONImUmqEhUI9tj3z4s5d+NcQV9AECQAAIAAEgAARGRGAba/yI7sHUHhAAJ/YA+sSHrHGiSaRMfJ7m0gt3zF/+yzvmGy/embqr8A8IAAEgAASAwFEjUAs+jnrimFwRAXCiCM3JVtQ40SRSaoaGoDumvW+8+N/mb/79/8yV14z563/9AEJlyAlBHyAABIAAEAACIyEw5ho/kksws2cEwIk9n4AJDl/jRJNImeDcrEt/+tKvzF9dv28FComUv//pb83zr75vPvkHL27J5e7XXBcrZZ/K52Z5roo3yo5oc7Uws9nMf+baUa6fL825oXEXRs9wo6mgMxAAAkAACJwMAtngg9eZ2cwka1AOmVL7SZWfm+U8rK1JaJCb14mWZTkxFhbnSzMfPQYrOVeKzUrlJTsor3GiSaTUDA2BeQx7T738P+byv71nnv+P31qR8nc//a156dZD87u/909m9uiVIW716ONIOJ/PTHwz2gY5R7Jpb+hSQLmbalgkaBw5H8qzSBnJhx7IogkQAAJAAAgcBwLpGt+6rpTaT698xU/0bKDMa+dxnMcxZ5FyYkzru7RViotK5bv07bDGqnGiSaRMcdpffO6W+fN//l8rTP7xP51AufD7L1iBsm2RslwtzdzuOjAy2yDnGDadIIkFlTEmupnqcSjPN1pdx/PFEQgAASAABIBAHoEk+KCHZWIhOl/O67sppfZTK4+mL9fOqAKZNf+T02EBVIqLSuWHNbtdepvcJ8TgTSKlZkjY7J0cw94f/8NbhoTKU6+8bV54/UNz8YlrXqD0EymaUJxXOw10U/SChNsYs1rILetQbuzrUnLnIlNHIqd7/Yru23TD5tex4h2OubGCqGsb6lho8DZzLCoWC7K3MKtIjMjTQ3MkH8k3tsHzoTKyF9f5Bcba5D7xuNLX8rwcvjxfsW5JB5EGAkAACACBA0VAr/GJKLFiY2lflfLrmlhr8+1Xdq307QmbTrTsq310ejpfojJkPAKaE71ipWV4VT2c91wMIeOsOD6aL5fidfyuXdZu3M/GUOy9iHtie9yAjmUfKN4JsU5/H8pjyXEPN51yIsylSaSEbtNJ/cUr/2X+6Pk3zePP3YrEST+BQvNQhIryVMeBOgfiuo/sX0rn+syC6KGbmnw/1+Z5PLIp2tqLhMWPHM/dqN0F7Pr4i5n6eIElz527yN1Fo2xZHKQPPKaeSzquF3O1eeFGLk8E0kAACACBo0NABx8lEeHW4XStLbWfWjmdOPLJPnQLUejRnc8xJqQ5sT4Gm4XdNxkbZWMIGce4OIhPhzs/HMe4Ov/QVdqNYsA0vsnbk8iUfXBvr/T1IQia2Hc51nGkU06EeTWJlJqhYLJ/iu21HvUIf/i3txKRotuU85JQ1ErlLXkDWZydTBvLXFku09purW5dW7d7Y4cTqp53JNxFp+zbdiw43Azcv7yTosfkPPfJ2eNdlO6YzJ9t8AWp8p3vXkhRNf6AABAAAkDgaBDgtZ0nVBIXtj6z1pbaT62c5xfmIde9qPbkM5oTScwVxWAq9pB12RhCtKf66OGsqJN23EkLuyydXR9T0UNiim+q9uRpFeNYWxxHuTb09o0Nl9b5UPRdjnUc6ZQTYV5NIiV0m17qi8+94XdS2rwThLIdVT5z40wvKt6RkH1lmgzLvEzrOp3XbXks3pKMLwA7hWgsKhF9XAP3b3QB6XEoz7ZVXdRPGlTtEj90fXj65C5aaQtpIAAEgAAQOGQEkuCD1lNxs4/ERm6tLbWfWrk6SSEQVRXIZn5dXMcFMi/TBJ7O6xhC1FdFhWhnz4nIl+Kbqj15Yuu2AjdEu5wPECkWlSaRktxw5HkZkB7b3u88NuR/81IBvL1R8lMQIhEF6nzkSWpysWCgXQXuu84utyOb2p7MU5q/J8LjSPEg6ti9xB4NQa+UcT8eU/aVY3I9t8/Vyb48cK5dbZ6uX7RQsSkcgQAQAAJA4KARSNb4KACU6wWlM2ttqf3UylcUJfCfnBeX4cgIJJzQD1GTGKwlhpDYU5p3LVjMsC3ZjjyTedcvfcujZo9nl7fldXmJt7Z76gP3oxgpxJZyrONIp5wI82oSKaHbkaXsRcGvLS26bT8nMpioliRe2UoyBSwSImXtUnvdv5Z3de5L8M5HJq4d2ZK+8523JRP7nY/SH3HxutqcDyxS3Ctm0fu2vcbN2exuEpEvYZzOUxyAABAAAkDgwBHIBh/i3u/Wstpayw/YMmtfYqcDax/laj2M1ugDP4dju7+OE7MFx2A0cmsModoLLsRfPlft9DjqfPrdv6I9iZKyHdlikbRmbrZa/mcB8kv/cqzjSGc50U2tSaTUDA2Bamx7Q3xAHyAABIAAEAACQGB8BLDGj4/poVvcGyesWDjQB6KH7HsPwtY40SRSeoyFJkAACAABIAAEgAAQyHz/AKCcOgK1gHSb2NB3Qfz/PLrNgbZg+5B97wNHjRNNIqVmqI8jus3Y9rR95IEAEAACQAAIAIH9IIA1fj+4T3nU3XHCvUYY/peuQ9pFOWTf29lX40STSGkfGj2AABAAAkAACACBU0SgFnycIh6Ys8HuGkiQIFC7TzSJlJqhZNQeBWPb6zEkmgABIAAEgAAQAAI7QABr/A5APrAhwIkDO2E7cLfGiSaRsgNfMQQQAAJAAAgAASBwBAjUgo8jmB6mMAABcGIAaEfepcaJJpFSMzQEw03s3V59bMiQ6AMEgAAQAAJAAAjsAAFa4/EBBuAAOLCOA6XbUZNIKRnZdTkJlN/cftrcePbjux4a4wEBIAAEgAAQAAI9EKDABH9AQCIATkg0kCYEapxoEik1Q0OgHmKPBMr928+Y+69/xbx38wxCZQjw6AMEgAAQAAJAYMsIDFnjt+wSzO8ZAXBizydggsPXONEkUvY9N7uD8sunzQevP2nev3lm3r3+mLl77RPmm1/6SOTaz7788yiPDBAAAkAACAABILBbBGrBx249wWhTQQCcmMqZmI4fNU40iZSaoSHTbbHnXvF6xguUe9cvmrvXHskKlAfff2AgVIacEfQBAkAACAABIDAOAi1r/DgjwsrUEQAnpn6Gdu9fjRNNImX3rrsR+Tso999wr3jdu/6Yeaewg0IC5cGzD81bX/uF+danvr0ll1dmMRvyw0DUb26W51tyC2aBABAAAkAACEwEgWzwsVoY/oG9eY/F0P7a9mxm+0TtS3b2VW4xVz/CN18aLPcxGbOciJtMKFeK2VQMKDg362JDyVvmOx0jDvuZBnvlfkuz6K4DtrdYkQHqOzMzl/EWOXG+nJtZMe48N8vF/jla40STSKkZYkBqxx/+6Mfm8uXLxQ/Vl/6+e+mj5r2bX7CveL37k0/bHZSvLr9j+HPryTfNbgQKeRgIVfI3X079IFLy2KAUCAABIAAEjgmBNGaQa2eP9fB8aZY2ECNUZPuSnX2VG2POl2Y+m5koVoz8P6YzO3wuKSdytuS5ztUPKRtis9RH8Myed/HQOjnnJRtyDsKeL9b9dJ4buvL5PBdbUh0J/LTOipfF0oqU5aIknniM7R5rnGgSKZu6SQLlwcOHxQ/V1/5IqLzzg0cMHfmPRAr/vfSZl7e8g8Ij0YkXpOTitccSydZ2RAMgAASAABAAAgeFQBJ80BNnEcVToJR/spybJu1SdMFWyc6+yo3bQRFTy00AZWv+J6cA0DZipSE2S32ovIsBiXPVHbOSjTDb/INv3U/nub8rXywy15K9Hhblh+NUr4U1m93hMblPiLGbRErNkLBZTG4qUsiwFCiUlyKF8u2veHUnfuWegoTtOHfT8TfQiIjUh0VK139Z2MLunq44u7RdJxStqHNbhLUxi7CiAggAASAABIDA5BDQMUMiSmwQtTTLuXiSG621ckph3c3bWZl9lbtdFI4JpM9IawQ0J0wn8MIrTHSe3et9tswqPxdnUSDuYqUu7vLv0um8i6XqNtmzWtyl7XIfKufzTWnBX27ijyUbvkHh7RzdT+e5P5fTkX2iOpoXxZtcz+35uDILK66onezH9bs7ppwIYzeJlNBtWGoMkaJH1iKF6h9/7pZuVsnTCZwFJWyFAwsJPul8ZDMy3/XnRyhWmfIJd3VcRTfQsO1GdTwOcXTRPVFi23zkMXEEAkAACAABIHA4COjgoyQiwpPk8rpH7+rzQ8OSnX2VW5FSfZp+OOds255qTlDsI3fX3PgqPuq+d8HnP371j3rI9kp0+AnJNr6wSzDv+Mj1pT66nRuTRBHHe2wh9i2Uxiltj2r12JQX4s0LktCOrhE/PsWylpOhPh5zOrmEE8K1JpFSMyRsFpMkUu7e/bX5/BPfSz5Uzq978TiloxxAixQSKFdeM+ZzX39VNquk0xMYnWgrOsSJt5aojxQiQmxIYnmS8PBirGgXpSMesys7JtvAEQgAASAABIDA9BHgNZw9LYkIW19c99Kgs2RnX+XYSeEzvP6oOcHf5QkChGyIWMmRI36oW6u3sRXHZ9IfbVPWuQfFqcgo9aHyzBhdXMehnBuhZEOOn7On++k89xflIuYMcayo5y4TOyacEP41iRTRb1CSRQoJktyHRUqLcSlSWKA89crbdjdl9uiVHqb0CXQ3RE+y7I2T+jBBdX+RF4Rxjqg6b0O5mR1TtUEWCAABIAAEgMCEEUiCD1rb/OJK3zUX79Fn1z1aj+VDwG6yJTv7Ksd3UnqzMOFE15O4EESCiJVsfUN+nyLF/v8J84jjqeDKQUXz45iS69fNOdeuu17o6wt+Z0/b4X7TOZY4QR42iZSaoT7TJRFy586d4meoSCGhMkygkNd0AsM2cvxEhInDR56lzFNa3kRlntJhF8ZdhNzW1cVPD9gfIivVa9Ly+DgCASAABIAAEJg2AknMEAWQeq3MrHtKdPjZluzsq5wcy4ms5H968jM42UTCCYFEEK2SGxZcFWflHiZzbOXq8rEVtxGD2iTHW3zkeu2HLO/is9VS/KxEbuySDbZFRz0ul0l/S3ZUecfDMH9VL4edSLrGiSaRsul8tiFSpE8Xn7jWsIPCPd0JdF/Icq9duQc9MdmswIiUKQsITQCV7whDTwjmy9oX5+n/uY6/QBiPyf7iCASAABAAAkBg+ghkgw+xJq5ba92DPfkevnigmNjp8NhXOQ1vRZLw18cM0z9Xu/Iw4YQ4X/wbI+QLva5EcZPbeVNxlWvg6m0b/T9YUftwHnjzLrbJM14X6wU7Lo6jb+uTfRkDijY8GJu3baXY8BUiIe1xsZ5zPKfYF2mf5sO+kS1th+1P55hwQrjWJFJqhoTNYnKT30kpGlUV/V7xkp2mfwKlt0gDASAABIAAEDgEBDaNGQ5hjvCxDQFwog2vU2hd40STSDlOsCBSjvO8YlZAAAgAASCwTwRqwcc+/cLY+0PgtDmR7obI3aP9nZX9jlzjRJNIqRkaMsWx7Q3x4RC2wobNC72AABAAAkAACOwPgWms8fubP0ZOEQAnUkxOvaTGiSaRcupAYv5AAAgAASAABIBAPwRqwUc/C2h1bAiAE8d2RjefT40TTSKlZmiIm2PbG+ID+gABIAAEgAAQAALjI4A1fnxMD90iOHHoZ3B8/2ucaBIp47sGi0AACAABIAAEgMAxIlALPo5xvpjTegTAifUYnVqLGieaRErN0BBQp25vyJzQBwgAASAABIAAEDCG1nh8gAE4AA6s40DpftkkUkpGUA4EgAAQAAJAAAgAAYkABSb4AwISAXBCooE0IVDjRJNIqRkaAvXU7dGc/uylXw2ZGvoAASAABIAAEDhpBMZe408azCOZPDhxJCdyxGnUONEkUkb06SBMXXrhjvnLf3nHfOPFOwfhL5wEAkAACAABIDAVBGrBx1R8hB+7RQCc2C3ehzBajRNNIqVmaAgQU7b3jRf/2/zNv/+fufKaMX/9rx9AqAw5wegDBIAAEAACJ4vA2Gv8yQJ5RBMHJ47oZI40lRonmkTKSP5M3syfvvQr81fX71uBQiLl73/6W/P8q++bT/7Bixv4Tr80ujCrDSzUuq4WMzNfnsdNVgszW5RGJH/mRneJDSAHBIAAEAACQGAYAtngg9al2cx+kjUrGSb9hW7X51DKkwmdfEGWE2Ohcr40853FNYUYaqc+jAXcfu3UONEkUmqGhkxxivaeevl/zOV/e888/x+/tSLl7376W/PSrYfmd3/vn8zs0StDptn1IUKzSCmQewPrJiNISLgUNYrZgg+b+I++QAAIAAEgcFQIpGt86zpYWqcOpfyoTucok0k5MYrZPRgpcbCvK5v27zvO9NvVONEkUqY/1c09/OJzt8yf//P/WmHyj//pBMqF33/BCpRJixSr3lkEEQ50Aci8xgYXiEYEeSAABIAAEBgPgST4UA/Tzpfz9A2AaPjSOnUo5dFkkFnzPzkdFkAlDvadxab9+44z/XbJfUK43CRSaoaEzd7JKdr74394y5BQeeqVt80Lr39oLj5xzQuUPiJlORevXdENeb407iUsIiSJBjq6rW675c1bHVZkcDmLi47EK9rCdHXUnG7s6Xb5uaGx2ZzcWaEdFW4fXv+SF4hM0+lT+axvvU8zGgIBIAAEgMAJIqDX+ESUWNGytGuXf/UrWTdzryWrNcpjO7Vy7xgSHQKaE0m8EcUf3flc5l4RdDEPxzYu9lHnX8Qu8+VSvOJes2soyPIx10w+7BXlsT15eqUPpXGoPBeXSTunk045EebeJFJCt+NN/cUr/2X+6Pk3zePP3YrESR+B4lAh8rEYYbFBNVzOaXnj7YjMXylZLbqnSx2RWejQzXumRJC4gOQCkH/VS45TSmv/ZDuaBvvmZot/gQAQAAJAAAjkENDBh1yjbHsrUuh7k7TOlNZNEczN+EEctT+E8hwqp12mObFepMzCd2ttDNTFVZ47Ek8ZrziO8INb93CX466OP1wp7UYiScY8NXt1H/zD4do40sSJpVNOBACaRErNUDDZP7Ute2y371F7/Id/eysRKbpNNW+JyDdTbkkEZ9FCab5YtGrvbrz24lHt9MWj86TyraChJwzCfuePe+LA5dK2TJO/Ii+eHPATC3/B8dRwBAJAAAgAASCgEOA1mIvLIsUFg7TGcNzo+oi1iI3Y46GUR04jk33dS59LmZdpgk/ku9jE78BpXvh4iGEXfaWdXD8lgG3MU7XHY9Cx5zhRO9n/9NL6PiERaBIpsuOxp7/43Bt+J6V5roNECgsYOZokO5Wvy3fihF4P490XeyGzbSlepC2ZVuNE/aVvSAMBIAAEgAAQKCOQBB+0NgoVEomW4rrJD9bkOHrN4rqplbNfODICCSeqcY0+nzofXn93tBL1VVEh2lnHRL4U81Tt8ezoKGxF6XV10sZppVNOhPk3iZSaoWCyf2rq9n7nsSH/mxcRlEQBHxkPmZckpnrKi9e4uEuV4NwvvoG7LU1hi278kWDh9tIH926nXzvsYiHbCXveNySAABAAAkAACJQRSNb4KACUaxClS+smr0VyHNl3yuXSN6QJgYQTZl38Ic9//rwHsSvrKR125lxsxLZkO/JK5l2/eIeG25TsyXOrbfGYbIPzsp3sf3rplBMBgyaRErohVUJAfnHeXhQsEJRo8V9mZ2Vgb97iHVtbrkm8Ls+vjvFFQF66G4B9VWu+MAv/Gpiy1T3Fsu0Wi/rraOxzCQSUAwEgAASAwMkjkA0+xFrjlhK3RnFQmK6bcj1jSNX6xcVRsOkLVRC6y3I5FtKEwDpOzKL4Q59nkRc8Cl9uF/U0mGgTf9FdtdO8ycZjNXvy3ErbMm0dimKrJA6UZk4oneVEN/8mkVIzNATPqdsbMif0AQJAAAgAAbZsmmwAACAASURBVCAABAoBKYA5aQTGjvt6gxnt4vXuhYY7QKDGiSaRsgNfMQQQAAJAAAgAASBwBAjUgo8jmB6mMACBfXHC7lr4N1sGOI4uW0OgxokmkVIzNMT7qdsbMif0AQJAAAgAASAABLCTAg6kCIwd96UjcIl41d3+b138HwhxPY5TQaDGiSaRMpUJwQ8gAASAABAAAkBg2gjUgo9pew7vtoUAOLEtZA/Xbo0TTSKlZmgIPFO3N2RO6AMEgAAQAAJAAAhgJwUcSBEYO+5LR0DJoSFQ40STSDm0icNfIAAEgAAQAAJAYD8I1IKP/XiEUfeNADix7zMwvfFrnGgSKTVDQ6Y9JXu3Vx8bMgX0AQJAAAgAASAABDII0BqPDzAAB8CBdRzI3D5sUZNIKRk59HISKL+5/bS58ezHD30q8B8IAAEgAASAwCQQoMAEf0BAIgBOSDSQJgRqnGgSKTVDQ6Cegj0SKPdvP2Puv/4V897NMwiVIScSfYAAEAACQAAIKATGXuOVeWQPEAFw4gBP2pZdrnGiSaRs2c+dm7c7KL982nzw+pPm/Ztn5t3rj5m71z5hvvmlj0S+/OzLP4/yyAABIAAEgAAQAAJ1BGrBR70nao8VAXDiWM/s8HnVONEkUmqGhri3T3vuFa9nvEC5d/2iuXvtkaxAefD9BwZCZcgZRh8gAASAABA4VQTGXuNPFcdjmjc4cUxnc5y51DjRJFLGcWf/Vvg7KPffcK943bv+mHmnsINCAuXBsw/NW1/7hfnWp769JedXZkE/NrRYKftUPjfLc1WMLBAAAkAACACBiSOQDT5WCzOzP643M/Mei5v9pfBc+5KdbZcT5nYM9eOApXHVOTpfzv380zXfGs+v++dLM984HqCYQvmt/Bslm8OnM5zlxCiDbsNIKQZTOIpzP+vwlbxlvtMxz/lgr9xv6eLE7logWy5kpL65+NHh4fhWiiPPzXKxNPsOMWucaBIpNUND6LGpvR/+6Mfm8uXLxQ/Vl/6+e+mj5r2bX7CveL37k0/bHZSvLr9j+HPryTfNbgQKeeguhPmcScdeu/Ie93HuII6b9BVmkAQCQAAIAAEgMACBdI2ndYmD5B5r1PnSLP2zO9m+ZGfb5d2vmC8WYh4EjPatEBRaobFu/tJWC+h9+pXwaRmn1raET+iTciLUhVSfuYTW/VJDbJb6CByjc2qMiThLnpVsSK+FPV+s++k8N3Tl83mOc1Q3M7OMuLXiZbG0ImW5KIknHmO7xxonmkTKdt1st04C5cMPPyx+qL72R0LlnR88YujIfyRS+O+lz7y85R0UHqkj32pp5nOpakuk5H614yZ9a3ZRBwSAABAAAkBgPQJJ8EFPnMUbAxQo5Z8s52xTANwFYiU72y73btH6ymLDBaZy7aan4WKavhcFsKGdmE9UPnTt7tNP+t2nfXC9LSXHiXsmnIiru9w2fBtis9RHzI84F8VtekIlG7KdsOeLdT+d54aufLHIXEv2eiBBnRMwvCNY4Cqb38GxxokmkVIzNGQem9rTIuWTn/2TSLCsEynksxQolJcihfLtr3h1RCLBEW1RuycM/oYcETuQj25uvo1W4FaxkyqmD90gSzbJHrcrbwMOOWfoAwSAABAAAkCgDwJ6jU9EiQ2ilmY5F+tetDbKUWhdc8Igb2dltl0evAm+uDIhOOy6LQRM6GRT4XUeETj2EikhTjDd2s+vES1Wfdd89rvQPokxyOVuXBHTkAAjrHn8ELPwZHkczoej5kS/uTgfKBB3sU/nk39PSeddbMT+1fEpxVFi7n4cnoecH6UFf7mJP2rffIVISHtcrPvpvG6nbTAnK/2suKJ2Zb7yKNs8ppwIozWJlNBtGikSIQ8ePvQfEiky30ek6JlokUL1jz93Szer5IkQs6Cs7UXPNyMmER/ZjCRRn7RTwO7GwLb4mLPJZTgCASAABIAAENgNAjr4KIkIFwhToKTXseCnfIBXsrPtcuGNF0y+TAT42V0UakgCzD7VpnmKB4hWrPF7bVTHMYO3HsQCBcxRe25T6sf11gHht26v8qtF98CUykVMY+cggnKb10Eu9dFlzg/NiX5zcT4EMaR8ZSFlxYQSHX76uo+v6LDN8a/Uh8rl/NyYJIrSc1+ykRtfl0kekB3x8NmPH+xHO3he+IZ6aX1K6YQTwrkmkVIzJGz2Tm5qj0XK55/4ntEfEissUnic0lE6rEUKCZQrrxnzua+/KptV0ikhIuJ0F3hMZNXH34BEubgB8tMBv23ex2bFY1QBASAABIAAEBgbAV5z2W5JRNj67DpGNWnQWbKz7XKeRxBVXYkPCF0+WvO5k13DZWBLWsMF+3F7se5zX3sU5V08EIJ2aiDqo34yQ23YB9W+GGOodsk4up594XHk+Jkf7us1Fz1GJZ/B2Xmg+8R+OQGpRUapD5Vn5tfNpRrfqWGDb9qeHlvn2ZAop/G7V88Cp0Q9d5nYUd8npHtNIkV2nEKaRMjdu7/2H9pJkXkWKS2+SpHCAuWpV962uymzR6/0MKUJ4W6wnrTZG3GpjygvXnjdU5VEwYu+PbxGEyAABIAAEAACYyKQBB/+AZwbJRIV2bWR1k/5NLnzrmRn2+UeHFpfQ1AZzYPaKD9sNypLvrvQPYH3AYLtvH4npfODxg1P7/us+dJv1b4YY6h2Y4uUXnNp8KH3PLqB+UDnp3ccJXFkA+5oz0mv8yn75eytmzP3l+266yX6frOs5z7TOib3CeFek0ipGRI2eyc3tUci5M6dO/5DIkXmh4oUEirDBApNnQghtkKjC4bq6MbGR4YqQyLbj7b2+Aat7HJXb6uHTd8HCSAABIAAEAAC20UgWeOT9VCub5m1MRfsk8slO9su93Cp9VYJEN4h8c1twq3hcfzK/x1zEDzlHRHqz3gFy0Eg5etDS0pJv3V7yovYxXfMtZN+6Ho9jjdkEwknRHV5LnqM3MNf9snVxbtM7BO3EYPaJNnP8M/ilevD7QnSpfiZiNzY2nc9NvsmOcBlcuySHVXeia0wf1WfG37PZTVONImUPc8jGV6LFClQKD1EpMhBLj5xrWEHhXs6QrgveLn3B91NKSavVdv+qUqeRLaNvCl54dK9l0j/fZz4wmFs020l21fDorsi+4kjEAACQAAIAIHtIZANProgKjy1Lq+Nbg2U7+GLIDqx081j2+V2GFqz46Ay8rW05uo1vIsBfF+bJ9u5OYs4QcyRf5eD3CJxVF/zY7+T9to/Ow8xrp/7uuA5Hqc7M/aQcKLXXLQPdrL+i/sz+19Ca58Chnw6kvlaj8r844fOFtPunLjgX86P0mEs/xq+n3TGd1/HCWlPlpXnRD4FX2Q7mo/kZp/xecz9HBNOCDeaRErNkLDZO7mpvU1+J6Wvk/1e8ZLWpk8I6S3SQAAIAAEgAAS2gcCma/w2fILN/SIATuwX/ymOXuNEk0iZ4uSm5xNEyvTOCTwCAkAACACBXSNQCz527ctpjUdxiHi6b9Py6fr+0DhtTkz3vOyPEZn/TEE40yRSxibX1O0JnBqSECkNYKEpEAACQAAIHCkCY6/xRwrTSU0LnDip091rsjVONImUXqOhERAAAkAACAABIHDyCNSCj5MH50QBACdO9MRXpl3jRJNIqRmqjF+smrq9ouOoAAJAAAgAASAABKoIjL3GVwdD5UEgAE4cxGnaqZM1TjSJlJ16jcGAABAAAkAACACBg0WgFnwc7KTg+EYIgBMbwXeUnWucaBIpNUNDkJuSvdurjw2ZAvoAASAABIAAEAACGQRojccHGIAD4MA6DmRuH7aoSaSUjBx6OQmU39x+2tx49uODpnLv3j2DDzAAB8ABcAAcAAcCBygwwR8QkAiAExINpAmBGieaRErN0BCop2CPBMr928+Y+69/xbx382yQUMGiFBYlYAEswAFwABwAB4gDY6/xQ+IM9JkWAuDEtM7HFLypcaJJpExhMmP6YHdQfvm0+eD1J837N8/Mu9cfM3evfcJ880sfiYb52Zd/HuV1BgsyFmRwABwAB8ABcCDmQC340Oso8qeBADhxGue5ZZY1TjSJlJqhFoe47T7tuVe8nvEC5d71i+butUeyAuXB9x+YmlDBwhQvTMADeIAD4AA4AA6MvcZz7IDj4SIAThzuuduW5zVONImUbTm4a7v8HZT7b7hXvO5df8y8U9hBIYHy4NmH5q2v/cJ861Pfzrq6+WJ81ZxFvw57wVy6MdICd+OSuTAb0R6+f4PvH4ED4AA4AA704EA2+FgtzKxb7+bL8+yaKgtXi/DL6VH7kp1tl3fOnS/nZjZfGj+D0rhyMsYY24/X+8VK1VK28IPQ50szn81ND8gyNrmIbG/zl+fPzXIezlduellOsHuTOxbOhT1HAkdx7mcdvpK3zHc6Rhz28w3npdxvaRbMm+7o8KW+MzPLge35VuLNuVkuBIe9P7tN1DjRJFJqhoZMaVN7P/zRj83ly5eLH6ov/X330kfNeze/YF/xevcnn7Y7KF9dfsfw59aTb5o+AoXsjyNSgpC4cemCmV24ZG70WAQ2H3skMQRfR+ABzgX4DA6AA8fDgXSND8FYMRiXi/b50ix9HC8DxpKdbZezczTOTIiU0rjcvjtaocHBLfXJBY+lcmUryfbp19PPxHbfgpVZ8fmK5hr6p5wIdSHVZy6hdb/UEJulPgJHPc+Is+RZyYb0WtjzxbqfznNDVz6fl7hEojGts2J5sbQiZbkoiSceY7vHGieaRMp23Wy3TgLlww8/LH6ovvZHQuWdHzxi6Mh/JFL476XPvFzdQeF2my+qtJMSRMq9ezp/PIvW5lgBC2AIDoAD4MAhcCAJPuiJs3jiS4FS/skyr67ySE/pu2CrZGfb5Z075PdiuTRz3kkpjSvdpzQFtNzHiPlE5aVgVBvT+T79qM06kaTtDs3LsYKNhBOhSqT6zEU075UcYrPUR8yNzr0/pzlHSjZkW2HPF+t+Os8NXflikbmWLC8XBTFM+sntaopLko3u9FjjRJNIqRkaMqNN7WmR8snP/kkkWNaJFPJZChTKS5FC+dIrXnK+8WLRCYyr9JqV2/a8cOmGuXfvhrl0YWZc+p65d/VM7JZoUSLzLn12dsHMZmfmKu1Y2Fe4eEuVypzts6ti4fb2pS3dd2ZCH9UuEkrOPm9Zhj5iPOykYCcFHAAHwAFwQHBAr/GJKLFB1NK+IuTFSjHoC4Fc3s7Kvkrl7dAibe2PV27XfRIUFNUJYVHyR8YJnA6v84in28JW+cm7DFL1a1VUxzFB+dUfZ5tESqE9+eHtKDGzCnVu+vP6a3sd9jxvPmpOGCvWgu+LVc43N3cKxN3rVC4fXn3T+RZ8XFvPm4h/2i7PgsolPrWdiJINtkVHaY/LdT+d1+20DRbBlX5WXFE7ngvb3O0x5UQYv0mkhG7TSJEIefDwof+QSJH5PiJFz0SLFKp//LlbulmUT0XKLAiQ6DshJARIVPCRg/xYIMSve1GdEDeReHBixwofEiVnV/0CefWMBYi07Wx5kZH4VtjNUbbj+fIccAQu4AA4AA6AA4EDOvgoB/McYPExWmJthoJ7DiRLdrZd7gLqTlwIYVEaN5kFBcD21RuapxATUUBfCSr5tZ2oPY9S6sf1dJT46vYqv1p0eFO5eLXNziGcC/c0PgS5hIV9oFl4PK85wUJSepkKNecDn/98PYs+JTq8YTU/Xy5xoTZhLuk43Em3c2PSvNNp18Yt2WOfeE6cD2KOv/sifaRrxI/v+dlnfPZjP8eEE8KNJpFSMyRs9k5uao9Fyuef+J7RHxIrLFJ4nNJROqxFCgmUK68Z87mvvyqbRel4UZKiwN2sg2DodlBmLCD4Zu7EA+9U+B0T+0RK2Yt2UTrCWnFC7bqdFhIy/jstor/ty220b6KdHrcb0+8CiSdl8dx5PjgCF3AAHAAHTp0DvObyglkN5rvg1wdZ3Kl70h4CVPflc5nnQLdkfyvlPggs++OnQAm7SyEDYNroccF+FFwWv8Mggk1rSwgFO5CojwaWGWrDPqj2nc0Qh7CIUu0S/3R9N549nzLIduWaEw6XdXPRY1TyGZzdyLqPxKX06lOpD5UzjsJOh2HM4ZIN0S8Sj1yu++l8ph2N3716FjhV6sf9939MOCFcahIpot8kkiRC7t79tf/QTorMs0hpcVaKFBYoT73ytt1NmT16JWsqXoh0sK9exaJdiaxIkbsYcnFX9jJCg8enHRgSEnx05aJ/pm8QUKKdFimdKLE7PInv0lek+VzgCC6AA+DAqXMgCT7UDkAkHrIihV9ZUUtvyc5Wy9P/XckG9BQUlsaVblOb5LsL3RP4KKotBZVpOeFHPrjuab0c3qWpDQfXqn3v4F71S0RLGDUEyqEs4URXVZ/LujFFfe95BJ9sis6Px5LrhF0uco0FjlGF+9/bep1P2Y/G4fPC5Xpsnc+1664XejXPc63Uj/vv/1jiBHnWJFJqhoZMc1N7JELu3LnjPyRSZH6oSCGh0leg0LzjhYiCffF6ViQMqG79616pPSlglH25q0FjXTgzZxfkbokUH65v/LoXt82JKTmuCzhiAYQgJD5XwAN4gAPgADjAHEjW+CiAlMETpSlI42MXUajg38cZJTvbLvcOqC/Bl8aV7e3cWFCI+dnvgMgAVeIiDeTLg9DL10sL7tUgHku3p7ze0aDeuXZyh0TUr+gM8p8o5yJjTMIJUVeei7blxJ3XAlZgsE+uLtpps2NoG2Jgzztqw/hQfamPaLdaiv8WOjd2yUZufF3Gc1rni2jXia0w/z7jy3F3n65xokmk7N71+ohapEiBQukhIkWOePGJa9UdFG7LN2R3dKLAfdHdvY7lRIETAfzKlN2VyL2SJUVHYUcj/uL8THwXpfuCu/huSvI/hVnRxO81KhHS7fLYp0NnZ+F/HJPl/pUyLMTxeQcewAMcAAfAAcmBbPDRBVHhqXUc2Nkn6t1TYH66btek7gvdPvhK7HQr8rbLeeEnYeKfVofXhcK8uKE4WjHD62/4noefp7VHQaVo44WDCDbFHMN3E9zrYxYrH72LsW2SbIQgnHY6ovbaP2tHjOttiKBYBvKqf86NhBO95qJ9iPGeLfT/YEXtA4bsRzJfO58y/5xICXYIK8c/iWM8lvzf6xz6Gd9dhfhX2uNi3U+NE/kizwfNJ5zjstDicfZ/TDghXGoSKTVDwmbv5Kb2NvmdlL5Oll7xkv3lTTkRBYnowCIW4wU8gAc4AA6AA8fIgU3XeLnOIn0cCIATx3Eex5xFjRNNImVMp47JVry4yNersPDG2AAP4AEOgAPgwKlwoBZ8HFMMML25pE/d5Y7LPv09bU5M97xMlRNNImVsck3dXt+TFi84ECkxHghIgAc4AA6AA6fIgbHX+L5rMtpNFwFwYrrnZl+e1TjRJFL2NYGpj3uKiw/mjKALHAAHwAFwoMaBWvAx9XUd/m0HAXBiO7gestUaJ5pESs3QEICmbq/vnGo3adRhEQcHwAFwABw4RQ6Mvcb3XZPRbroIgBPTPTf78qzGiSaRsq8JTH3cU1x8MGcEXeAAOAAOgAM1DtSCj6mv6/BvOwiAE9vB9ZCt1jjRJFJqhoYANCV7t1cfGzIF9AECQAAIAAEgAAQyCNAajw8wAAfAgXUcyNw+bFGTSCkZOfRyEii/uf20ufHsxw99KvAfCAABIAAEgMAkEKDABH9AQCIATkg0kCYEapxoEik1Q0OgnoI9Eij3bz9j7r/+FfPezTMIlSEnEn2AABAAAkAACCgExl7jlXlkDxABcOIAT9qWXa5xokmkbNnPnZu3Oyi/fNp88PqT5v2bZ+bd64+Zu9c+Yb75pY9Evvzsyz+P8sgAASAABIAAEAACdQRqwUe9J2qPFQFw4ljP7PB51TjRJFJqhoa4t0977hWvZ7xAuXf9orl77ZGsQHnw/QcGQmXIGUYfIAAEgAAQOFUExl7jTxXHY5o3OHFMZ3OcudQ40SRSxnFn/1b4Oyj333CveN27/ph5p7CDQgLlwbMPzVtf+4X51qe+vV3nVwszm838Z7483+54sA4EgAAQAAJAYEsIZIMPsc71WuNK7adWThhanxZmtSU8j8FslhOtEztfmvlsbvIhEv2qe6nu3CwXS4PIqhXw7bavcaJJpNQMDZnCpvZ++KMfm8uXLxc/VF/6++6lj5r3bn7BvuL17k8+bXdQvrr8juHPrSffNLsXKPLCOjfL+cz0uomXJolyIAAEgAAQAAJ7QiBd4ymA5CC+Fkyyw6X2Uyt36/VssRDz4zngKBFIOSFrx0jneXW+nJvZYmlFynKB2GoMpMeyUeNEk0gZy6Gx7JBA+fDDD4sfqq/9kVB55wePGDryH4kU/nvpMy/vZgfFuBvcQj9+sU8L+IbOXuEIBIAAEAACQGD6CCTBB+00iIWOAsfqg7hS+6mV+1MhxZMvREIgkHBC1I2TzIsUa9vudM2MoOA4Q8LKRgjUONEkUmqGhni4qT0tUj752T+JBMs6kUI+S4FCeSlSKN/+ild3gaxoO9K9uuVuwhkhQhfMfGnOi2KE+rjdldVCXljqIqT+9qrrypfhtbFoAbDj8OtkLH5cn8Vibmb+CdeQs4k+QAAIAAEgAAQCAnqNT0SJFRvL+K0BXheNMfn2q8mVhxnTesprayhFKiCgOUFvjESiQZx/E8Ussl0mBvLx1rLwutfKLCjesg+FcY7CGdl/SnNCetQkUmTHKaRJhDx4+NB/SKTIfB+RouehRQrVP/7cLd2skqeLZ+bEB7WyF1n3Gpe9IYftEi88qI29eLRZIWxk39XCzOfhCVS4kXdj8xVPffwNU13UZMO+0On6RGJGu4E8EAACQAAIAIFGBHTwEdaqzpBf12gdosCRj66+1H5q5QGW2P9QjhQjoDlhv8fDMYv9Wg+LEReb+CoZS1me8OvxcTvixqz4nRT2AscpIZBwQjjXJFJqhoTN3slN7bFI+fwT3zP6Q2KFRQqPUzpKh7VIIYFy5TVjPvf1V2WzSpouGL54XDMvRqIbMKt6FjI5ZR92UqzY6YTM6v/veixpp8Y/FeDx9Ngir55I2C/o26tftKnMClVAAAgAASAABFoQ4DWX+5TEha23D9U4QHU9Su2nVs7zM9EaH0qRCghoTsSY1eOiOJbq4p7kIS9imoD2YaRSTgS/m0RK6DaNFImQu3d/7T+0kyLzLFJavJUihQXKU6+8bXdTZo9e6WFKXyBiN0RsX8c32biNH8QKCxYvLFj4Iqb8wqyiC1SPLfKRLT8CPbdIRJWsRRoIAAEgAASAwBAEkuDD75w4a9E6mBEp+im7b1+ys69yDw6tp7xm+0IkBAIJJ0pxUSZmgUgRQB5RMscJnl6TSKkZYoMtx03tkQi5c+eO/5BIkfmhIoWEyjCBQrOnm5T4nyP0hWZFxcIsSGBIsOwNWpYpO3whq9e8Fgt+bYvH5l0VnU/tueGpXPaRTiENBIAAEAACQGAYAskaH62Hcu2hNK1/fOzGK7WfWrmHR/nvy5FgBBJOUEU2LiIsxc5a6Zx3MRe/FkZCFq97MdqHccxyonO9SaRMbbpapEiBQukhIkXO8eIT1xp2ULgnXVhz476I7r6kzhePa+F2TeT/cMI93f+xzl9sFxcnN7AXqRAUOp/sijhf/P8lbtsH+84H1YbHwhEIAAEgAASAwAYIZIOPbseEXjl2a6NbE/l7kTbIlN/RTNp3Dk2t3LpF66l82LgBeEfaNcuJ7n84TeKiKGYRsY+OdQQX5svSF+ePFNAjmFaeE25iTSKlZmgITpva2+R3Uvr62+8VL2kNQb9EA2kgAASAABA4TQQ2XeNPE7XjnjU4cdznd8jsapxoEilDBj+9PhApp3fOMWMgAASAABDQCNSCD90W+dNAAJw4jfPcMssaJ5pESs1Qi0Pcdur22M+2I0RKG15oDQSAABAAAseIwNhr/DFidGpzAidO7Yyvn2+NE00iZf1QaAEEgAAQAAJAAAgAAWNqwQfwOU0EwInTPO+1Wdc40SRSaoZqDpTqpm6v5DfKgQAQAAJAAAgAgToCY6/x9dFQewgIgBOHcJZ262ONE00iZbduYzQgAASAABAAAkDgUBGoBR+HOif4vRkC4MRm+B1j7xonmkRKzdAQ4KZk7/bqY0OmgD5AAAgAASAABIBABgFa4/EBBuAAOLCOA5nbhy1qEiklI4deTgLlN7efNjee/fihTwX+AwEgAASAABCYBAIUmOAPCEgEwAmJBtKEQI0TTSKlZmgI1FOwRwLl/u1nzP3Xv2Leu3kGoTLkRKIPEAACQAAIAAGFwNhrvDKP7AEiAE4c4Enbsss1TjSJlC37uXPzdgfll0+bD15/0rx/88y8e/0xc/faJ8w3v/SRyJefffnnUR4ZIAAEgAAQAAJAoI5ALfio90TtsSIAThzrmR0+rxonmkRKzdAQ9/Zpz73i9YwXKPeuXzR3rz2SFSgPvv/AQKgMOcPoAwSAABAAAqeKwNhr/KnieEzzBieO6WyOM5caJ5pEyjju7N8Kfwfl/hvuFa971x8z7xR2UEigPHj2oXnra78w3/rUt7fs/LlZzmdmNus+86U53/KI1vz50sxnc7PcyWC7mBDGAAJAAAgAgX0jkA0+Vgu/xs17LDqrRVgTo/YlO1suL/pjwe6/hp8v5x6H2WKVOVWFH4YeZb0m2wuTGzXjyKhFWU60jlDFoICbHePcLBc7iqta53TC7WucaBIpNUND8N3U3g9/9GNz+fLl4ofqS3/fvfRR897NL9hXvN79yaftDspXl98x/Ln15JtmpwLFXnQzE92rzpdmudFdpHaxlpBBORAAAkAACACBzRFI13gZHPdYn6I1ULYv2dlyedEfY0zLGm7bskiQ85KYl8plm1y6T78STjl745alnBjXvjH5+VtRuFhakbJczEwkeMd2AfaaEKhxokmkNI26g8YkUD788MPih+prfyRU3vnBI4aO/Ecihf9e+szLO91BiQQKRnQ1VwAAIABJREFUO7HRMX+xbmQSnYEAEAACQAAI9EAgCT5ol0MsdBQ49g8WaZei2/Ev2dl2eTRn4Y9xOyhialHLJEMixb8pIexE5UPX7z79qM06kZR4PUpBwolRrEojlfl3u2y9z5M0i/TWEKhxokmk1AwN8X5Te1qkfPKzfxIJlnUihXyWAoXyUqRQvv0Vr+4CWdErVG6b2t2EMzcxumDoRhU9VSkgaduEbe9wkXXjLfUWOpWH9rwwyK1qLoufPJTsdX5FfsQ3ucWCtq+5rDAPFAMBIAAEgMBJIKDX+ESUWFGxtK85e7HC62KCEK1Nbn3J21mZbZfHLgV/3C5K29oX1mLxqnUvkdKt0fb1bBdX8CviixXVpet+7Dfl2PdC++w6n1oZUqI5Qa+4h3iGXOviIjIe+SHbSQzidvPl0iyyr6+vzMIKQ8Ks7VwNmSf69EdAc0L2bBIpsuMU0iRCHjx86D8kUmS+j0jR89Aiheoff+6WblbJdxc9PyWxF1n+6Q/dpOzFGd2YcqadTX8hS5v2ZjMLT6foAvdCQV3IkWlZp9M97a0W3VMw559fZKJxkAECQAAIAIFTREAHHyUREQfN+QCS1kteY0p2tl0uz6H0xwbTvObLRqW0XacpLnBrp39gSOV+oZfrsjQkyqP23EbUc1FypDaMs26v8n6dT4wMKtCcsKLEz5k0CosR8oPTLERY0Ekf43bEgVlWpAxyF512gEDCCTFmk0ipGRI2eyc3tcci5fNPfM/oD4kVFik8TukoHdYihQTKldeM+dzXX5XNKml58bhm8UUnbgx8U7Oig8szpjP1sU2+cKmvHF+mO7v25shPWrifbCfTyp71g/t2R3tz0X0yc0AREAACQAAInBQCvObypEsiwtZ3a5OIV7tubreABQoVluxsu9w5lPrTtJNSWM9pfmFdp5FK66oo79ZkiU25XwenPZANjjmEPaorrvOy//C05kQQqGSTdzvYD/bRjRfwET6TvxxL2Waibrib6LlDBFJOhMGbREroNo0UiZC7d3/tP7STIvMsUlq8lSKFBcpTr7xtd1Nmj17pYUpfIO6Gxjdevony0RmM2ySDFG5qzqYeT+ZlWl/0NOYQkRLfNJyvapxkAigAAkAACACBU0MgCT7Uk/9oHcyKFLlOCfRKdrZdbr97wuum8KflOynkYxRUkx0XA4RdFCorratpOeFIr3zlYwLpJ6fJBq/lyl4m3uBeYxwTTtjQxH03KeJDxg+IlDHOwPRs5DjBXjaJlJohNthy3NQeiZA7d+74D4kUmR8qUkioDBMoNHu64MO2dPKExar+hVnodyJzN2j/P4k4myx0YpvqBhPd2FSdvDnaGwDfbGU7meb5yHZibv5k6z6+AgkgAASAABA4UQSSNT4KPOW6QWkKmvnYAaZEh4exZGfb5SV/yLHqGu499zGCX89F3/Cqti0sf7ci8zpTCPAlrnJcmZY46/aUX7fOyz4yLcfIpxNOUDM6b3MdFzk/PE6lc9vFXNzOCTaOWfI+oHRaCGQ50bnYJFKmNS1jX+eSokSnh4gUOceLT1xr2EHhnu6CdV8id69E8cXjWuSemHR97UUoXqeST1uiOnkB6htEnKcnD/ZLddaJbmz6Yp29IbAd2UemyS+Vj/zg766oNgwFjkAACAABIHCyCGSDjy6YD0/+3brEryzZILNb+1zAKdZEGTwndjqYt1he9YeG1+ujXMMlCwrtvH3bj9bV3NzFeivmKgVOvO7LgTlNNngnxX0PJMQJmXnY+EGMG8UFspztl49ZTmR3krQfHK+QbTWmwKH8xfmyT6jZLwJ5TjifmkRKzdCQKW5qb5PfSenrb79XvKQ1dfHIKqSBABAAAkAACJwIApuu8ScC00lNE5w4qdPda7I1TjSJlF6jnXwjiJSTpwAAAAJAAAgAAVMLPgDPLhCgeCTejZE7LrvwQI8BTmhEkK9xokmk1AwNgXlse0N8GL8PRMr4mMIiEAACQAAIHBoCx7nGH9pZmJa/4MS0zscUvKlxokmkTGEy8AEIAAEgAASAABCYPgK14GP63sPDbSAATmwD1cO2WeNEk0ipGRoC0dj2hviAPkAACAABIAAEgMD4CGCNHx/TQ7cIThz6GRzf/xonmkTK+K7BIhAAAkAACAABIHCMCNSCj2OcL+a0HgFwYj1Gp9aixokmkVIzNATUTezdXn1syJDoAwSAABAAAkAACOwAAVrj8QEG4AA4sI4DpdtRk0gpGdl1OQmU39x+2tx49uO7HhrjAQEgAASAABAAAj0QoMAEf0BAIgBOSDSQJgRqnGgSKTVDQ6AeYo8Eyv3bz5j7r3/FvHfzDEJlCPDoAwSAABAAAkBgywgMWeO37BLM7xkBcGLPJ2CCw9c40SRS9j03u4Pyy6fNB68/ad6/eWbevf6YuXvtE+abX/pI5NrPvvzzKI8MEAACQAAIAAEgsFsEasHHbj3BaFNBAJyYypmYjh81TjSJlJqhIdNtsede8XrGC5R71y+au9ceyQqUB99/YCBUhpwR9AECQAAIAAEgMA4CLWv8OCPCytQRACemfoZ271+NE00iZfeuuxH5Oyj333CveN27/ph5p7CDQgLlwbMPzVtf+4X51qe+vYHLhR9lPF+a+Wxulud9Tae/+LpY9e3L7Qq+cDWOQAAIAAEgAAQmhkA2+FgtzKz7FfR5j4V0tQi/mB61L9nZV7nF/tws58Hf2XxpeocKEzt323Iny4ltDbax3S5+KwRt58u5mfl4kNoujAvvSv1kLCfb5xyVbWW96if4PuvGl9cMX2t0jK4fbzLYK/dbmkV3zbI9Bwn1nZlZL3z8gEmixokmkVIzlIyaKfjhj35sLl++XPxQfenvu5c+at67+QX7ite7P/m03UH56vI7hj+3nnzTjCdQyIsSQUoecrnup/PcruU4ho2W8dAWCAABIAAEgMBmCKQxA61lMpBb88DvfGmW/qGeXAdLdvZVboyxDzBnJorXIv83w/JYeqecyM1Mnutc/ZCyITZdn/k8x1OqI0HKdZSPuT2fKz5EcaVsn5uPGzvV8aKf5RyP6TgYrheyWbIhxxP2fLHup/Pc0JX3w4f7pMcaJ5pESmq6rYQEyoOHD4sfqq/9kVB55wePGDryH4kU/nvpMy+PsIPC1konhetLR91P50v9auVj2KjZRx0QAAJAAAgAgXERSIIPeuoronh6Ep1/upvzg3YpuoCwZGdf5cbtoIip5SaAsjX/k1MAaBsxzxCbrs9ikeGp5drCLCoiZblamnm0myZ9oLQQGGHyXUq2lZWiH/kQ2ZftKF2yIdsJe75Y99N5bujK++HDfdJjcp8QTZpESs2QsFlMbipSyLAUKJSXIoXyra940dasv0lGJ7x+Upy6jbd2FyvqI7Z67R1rjZ1lYeu7eyrjtuhoq43VehFeVAABIAAEgAAQmAwCOmZIRIkN9Jb2Fan8OiynQmupC+rydlZmX+VuF6UWcMp5nHZac8J0Ai+8RlSOoygYdq806bhK5/vEZnweXNs8/9guHeX5pT4Uk3E92ZJtQjm9QuVtR6JBtmdf5DHYkKXpONJ+3HJXIsXhsA4f7VvIp5wIdU0iJXQblhpDpOiRtUih+sefu6WbVfJMFD5y0xpB8k9zXE/dj/JCuHiid+X86IVu1qqOq+jGG7YU2T8cgQAQAAJAAAhMFwEdfJRERAi8aF2UwU6Ymwz2Snb2VW5FSvWJdpjHqac0J4wVqv6dvg6efByVD/api2yvRIcHXLbxhWI84p3mX+hD/OOYLJzvUB84rP3RbfiBsx4r5xO3lXW6XxBk3j/fXI7tC1VC26Nq3Y/ypTjW+bgeHzWsyCacEHVNIqVmSNgsJkmk3L37a/P5J76XfKicX/ficUpHOYAWKSRQrrxmzOe+/qpsVk9bgSAIaFvrk8QmRHm32xEuHGoj6vva0e3IbnTD0zbZFxyBABAAAkAACEwTAV7D2buSiLD12XWYatKgs2RnX+XYSeEzvP6oOeGw07sBOuZpyOvvaXiXtA1f4RJZ/ok+Ii4LAbmojwSOLKewkF9zlOWUzgvyzqHCGzSFfl08GgsVOZ6ar8/m7Ol+Os+dRflafLhPekw4IZo0iRTRb1CSRQoJktyHRUqLcSlSWKA89crbdjdl9uiVfqbWkTOyIk5KV043RtqqdOTQ9TrPxnS5yIuT7VqLOu6OIxAAAkAACACBCSOQBB8+WHNOR6Iiuw7zazVqkiU7+yrHd1LUCSpnE050TdviKB0TibwN1nPBv2iTcy/LP9mn42L0PRNZT2keV5bTYE5ou68E8O6IbJ91qE2k2O/Nz6PvfKUPzUvjsN9cr/3X+Vy7dfhwn/RY4gS1bBIpNUPpsGkJiZA7d+4UP0NFCgmVwQLFq19NmD4nJcwx3Gx1P53nPrpc5inNoof+0xC87sWo4QgEgAAQAAKHgUASM0QBpF7zKFCiMhEwKdHhZ12ys69yciwX5OJ/9/KnjBMJJ7iiC7LdmymSGxZcFbBz0N91tthz8O/q4jdccjbEwJ53in+2nO2GcxxsSz9lX1nejWO5WfrfwKQvnM7YsFVinNVS/BxGbt4lGzwGHYU9X6z76Tw3VOXdNZDHh/ukxxonmkRKarqtZBsiRXpw8YlrbTso/1+lyS/OWzHgX7Mi8OU7eLwdKU5Kd0LcF77CjZW2Am2Z3VrpYcdOQtilvLA9X+KL8/I8Iw0EgAAQAALTRyAbfIi1zb19EAdXch12D+hy63C8RkavuCT2O5y2XU7D+EC089nHE9M/V7vyMOGEOC/he7kUAuk4SogFclb2W8j/ZctWRvEb8yO2yTMu8y/diaC2IdaL6ymG4zoVz3VDxQ+cZXv2RR6pPsd92U+14Yl6M1SvcPN1nJD2ZJnsp8bxv7mi7dfwYdvpMeGEaNIkUmqGhM1icpPfSSkaVRW9X/FS/ZAFAkAACAABIAAExkNg05hhPE9gaSoIgBNTORPT8aPGiSaRMp0pwRMgAASAABAAAkBgygjUgo8p+w3ftocAOKGxTXcp5I6Sbj08v6tx2j2scaJJpNQMtbuFHkAACAABIAAEgMCxIoCY4VjP7PB5gRPDsTvWnjVONImUYwUI8wICQAAIAAEgAATGRaAWfIw7EqwdCgLgxKGcqd35WeNEk0ipGdrddDASEAACQAAIAAEgMHUEEDNM/Qzt3j9wYveYT33EGieaRMrUJwr/gAAQAAJAAAgAgWkgUAs+puEhvNg1AuDErhGf/ng1TjSJlJqhKcAwdf+mgBF8AAJAAAgAASCwCwRoTcYHGIAD4MA6DpTuR00ipWQE5UAACAABIAAEgAAQkAhQYII/ICARACckGkgTAjVONImUmqEpQL0N//7spV9NYWrwAQgAASAABIDAQSGwjTX5oACAswkC4EQCyckX1DjRJFJODclLL9wxf/kv75hvvHjn1KaO+QIBIAAEgAAQ2AiBWvCxkWF0PlgEwImDPXVbc7zGiSaRUjO0Ne8bDI/p3zde/G/zN//+f+bKa8b89b9+AKHScB7QFAgAASAABIDAmGsy0DwOBMCJ4ziPY86ixokmkTKmU1O29acv/cr81fX7VqCQSPn7n/7WPP/q++aTf/DiBm7Tr30uzGoDC7Wuq8XMzJfncZPVwswWpRHJn7nRXWIDyAEBIAAEgAAQGIZANvigdWk2s59kzUqGSX8l2/U5lPJkQidfkOXEWKicL818Z3FNIYbaqQ9jAbdfOzVONImUmqH9TtGNPoZ/T738P+byv71nnv+P31qR8nc//a156dZD87u/909m9uiVDaZJhGaRUiD3BtZNRpCQcClqFLMFHzbxH32BABAAAkDgqBBI1+TWdbC0Th1K+VGdzlEmk3JiFLN7MFLiYF9XNu3fd5zpt6txokmkTH+qm3v4xedumT//5/+1wuQf/9MJlAu//4IVKJMWKVa9swgiHOgCkHmNDS4QjQjyQAAIAAEgMB4CSfChHqadL+fpGwDR8KV16lDKo8kgs+Z/cjosgEoc7DuLTfv3HWf67ZL7hHC5SaTUDAmbe0uO4d8f/8NbhoTKU6+8bV54/UNz8YlrXqD0ESnLuXjtim7I86VxL2ERIUk00NFtddstb97qsCKDy1lcdCRe0Ramq6PmdGNPt8vPDY3N5uTOCu2ocPvw+pe8QGSaTp/KZ33b22nGwEAACAABIHAACOg1ORElVrQs7drlX/1K1s3ca8lqjfJYTK3cO4ZEh4DmRBJvRPFHdz6XuVcEXczDsY2LfdT5F7HLfLkUr7jX7BoKsnzMNZMPe0V5bE+eXulDaRwqz8Vl0s7ppFNOhLk3iZTQ7XhTf/HKf5k/ev5N8/hztyJx0kegOFSIfCxGWGxQDZdzWt54OyLzV0pWi+7pUkdkFjp0854pESQuILkA5F/1kuOU0to/2Y6mwb652eJfIAAEgAAQAAI5BHTwIdco296KFPreJK0zpXVTBHMzfhBH7Q+hPIfKaZdpTqwXKbPw3VobA3VxleeOxFPGK44j/ODWPdzluKvjD1dKu5FIkjFPzV7dB/9wuDaONHFi6ZQTAYAmkVIzFEzuL8X+tR61x3/4t7cSkaLbVPOWiHwz5ZZEcBYtlOaLRav27sZrLx7VTl88Ok8q3woaesIg7Hf+uCcOXC5tyzT5K/LiyQE/sfAXHE8NRyAABIAAEAACCgFei7m4LFJcMEhrDMeNro9Yi9iIPR5KeeQ0MtnXvfS5lHmZJvhEvotN/A6c5oWPhxh20VfayfVTAtjGPFV7PAYde44TtZP9Ty+t7xMSgSaRIjsee/qLz73hd1Ka5zpIpLCAkaNJslP5unwnTuj1MN59sRcy25biRdqSaTVO1F/6hjQQAAJAAAgAgTICSfBBa6NQIZFoKa6b/GBNjqPXLK6bWjn7hSMjkHCiGtfo86nz4fV3RytRXxUVop11TORLMU/VHs+OjsJWlF5XJ22cVjrlRJh/k0ipGQom95ca27/feWzI/+ZFBCVRwEfGQ+Yliame8uI1Lu5SJTj3i2/gbktT2KIbfyRYuL30wb3b6dcOu1jIdsKe9w0JIAAEgAAQAAJlBJI1OQoA5RpE6dK6yWuRHEf2nXK59A1pQiDhhFkXf8jznz/vQezKekqHnTkXG7Et2Y68knnXL96h4TYle/Lcals8JtvgvGwn+59eOuVEwKBJpIRuSJUQkF+ctxcFCwQlWvyX2VkZ2Ju3eMfWlmsSr8vzq2N8EZCX7gZgX9WaL8zCvwambHVPsWy7xaL+Ohr7XAIB5UAACAABIHDyCGSDD7HWuKXErVEcFKbrplzPGFK1fnFxFGz6QhWE7rJcjoU0IbCOE7Mo/tDnWeQFj8KX20U9DSbaxF90V+00b7LxWM2ePLfStkxbh6LYKokDpZkTSmc50c2/SaTUDE0Bz6n7NwWM4AMQAAJAAAgAgV0ggDV5Fygf1hh740S0i3dYmB27tzVONImUYwcK8wMCQAAIAAEgAATGQaAWfIwzAqwcGgL74oTdtfBvthwaasftb40TTSKlZmgKEE7dvylgBB+AABAAAkAACOwCAazJu0D5sMbYHSfEq+72f+vi/0DosPA6BW9rnGgSKacAFuYIBIAAEAACQAAIbI5ALfjY3DosHCIC4MQhnrXt+lzjRJNIqRna7hT6WZ+6f/1mgVZAAAgAASAABA4fAazJh38Ox54BODE2oodvr8aJJpFy+FBgBkAACAABIAAEgMAuEKgFH7sYH2NMDwFwYnrnZN8e1TjRJFJqhvY9SRp/E/9urz42hSnAByAABIAAEAACR4EArcn4AANwABxYx4HSDa9JpJSMHHo5CZTf3H7a3Hj244c+FfgPBIAAEAACQGASCFBggj8gIBEAJyQaSBMCNU40iZSaoSlAPcQ/Eij3bz9j7r/+FfPezTMIlSmcSPgABIAAEAACB4/AkDX54CeNCVQRACeq8JxkZY0TTSLl2NCzOyi/fNp88PqT5v2bZ+bd64+Zu9c+Yb75pY9EU/3Zl38e5ZEBAkAACAABIAAE6gjUgo96T9QeKwLgxLGe2eHzqnGiSaTUDA13b7yeLf65V7ye8QLl3vWL5u61R7IC5cH3HxgIlfHOEywBASAABIDA8SPQsiYfPxqYISEAToAHGoEaJ5pEijZ8qHn+Dsr9N9wrXveuP2beKeygkEB58OxD89bXfmG+9alvb2nKK7OgHxtarJR9Kp+b5bkqRhYIAAEgAASAwMQRyAYfq4WZ2R/Xm5l5j8XN/lJ4rn3JzrbLCXM7hvpxwNK46hydL+d+/umab43n1/3zpZlvHA9QTKH8Vv6Nks3h0xnOcmKUQbdhpBSDKRzFuZ91+EreMt/pmOd8sFfut3RxYnctkC0XMlLfXPzo8HB8K8WR52a5WJp9h5g1TjSJlJqhbdBjnc0f/ujH5vLly8UP1Zf+vnvpo+a9m1+wr3i9+5NP2x2Ury6/Y/hz68k3zW4ECnnoLoT5nEnHXrvyHvdx7iCOm/QVZpAEAkAACAABIDAAgTRmoHWJg+Qea9T50iz9szvZvmRn2+Xdr5gvFmIeBIz2rRAUWqGxbv7SVgvoffqV8GkZp9a2hE/ok3Ii1IVUn7mE1v1SQ2yW+ggco3NqjIk4S56VbEivhT1frPvpPDd05fN5jnNUNzOzjLi14mWxtCJluSiJJx5ju8caJ5pEynbdbLdOAuXDDz8sfqi+9kdC5Z0fPGLoyH8kUvjvpc+8vOUdFB6pI99qaeZzqWpLpOR+teMmfWt2UQcEgAAQAAJAYD0CSfBBT5zFGwMUKOWfLOdsUwDcBWIlO9su927R+spiwwWmcu2mp+Fimr4XBbChnZhPVD507e7TT/rdp31wvS0lx4l7JpyIq7vcNnwbYrPUR8yPOBfFbXpCJRuynbDni3U/neeGrnyxyFxL9nogQZ0TMLwjWOAqm9/BscaJJpFSM7SDeSRDaJHyyc/+SSRY1okUMigFCuWlSKF8+yteHZFIcERb1O4Jg78hR8QO5KObm2+jFbhV7KSK6UM3yJJNssftytuACaAoAAJAAAgAASAwEgI6ZkhEiQ2ilmY5F+tetDZKR2hdc8Igb2dltl0evAm+uDIhOOy6LQRM6GRT4XUeETj2EikhTjDd2s+vES1Wfdd89rvQPokxyOVuXBHTkAAjrHn8ELPwZHkczoej5kS/uTgfKBB3sU/nk39PSeddbMT+1fEpxVFi7n4cnoecH6UFf7mJP2rffIVISHtcrPvpvG6nbTAnK/2suKJ2Zb7yKNs8ppwIozWJlNBtGikSIQ8ePvQfEiky30ek6JlokUL1jz93Szer5IkQs6Cs7UXPNyMmER/ZjCRRn7RTwO7GwLb4mLPJZTgCASAABIAAENgNAjr4KIkIFwhToKTXseCnfIBXsrPtcuGNF0y+TAT42V0UakgCzD7VpnmKB4hWrPF7bVTHMYO3HsQCBcxRe25T6sf11gHht26v8qtF98CUykVMY+cggnKb10Eu9dFlzg/NiX5zcT4EMaR8ZSFlxYQSHX76uo+v6LDN8a/Uh8rl/NyYJIrSc1+ykRtfl0kekB3x8NmPH+xHO3he+IZ6aX1K6YQTwrkmkVIzJGzuLMki5fNPfM/oD4kVFinsd+koHdYihQTKldeM+dzXX5XNKumUEBFxugs8JrLq429AolzcAPnpgN8272Oz4jGqgAAQAAJAAAiMjQCvuWy3JCJsfXYdo5o06CzZ2XY5zyOIqq7EB4QuH6353Mmu4TKwJa3hgv24vVj3ua89ivIuHghBOzUQ9VE/maE27INqX4wxVLtkHF3PvvA4cvzM/+7Vay56jEo+g7PzQPeJ/XICUouMUh8qz8yvm0s1vlPDBt+0PT22zrMhUU7jd6+eBU6Jeu4ysaO+T0j3mkSK7DiFNImQu3d/7T+0kyLzLFJafJUihQXKU6+8bXdTZo9e6WFKE8LdYD1pszfiUh9RXrzwuqcqiYIXfXt4jSZAAAgAASAABMZEIAk+/AM4N0okKrJrI62f8mly513JzrbLPTi0voagMpoHtVF+2G5Ulnx3oXsC7wME23n9TkrnB40bnt73WfOl36p9McZQ7cYWKb3m0uBD73l0A/OBzk/vOEriyAbc0Z6TXudT9svZWzdn7i/bdddL9P1mWc99pnVM7hPCvSaRUjMkbO4sSSLkzp07/kMiReaHihQSKsMECk2dCCG2QqMLhuroxsZHhipDItuPtvb4Bq3scldvq4dN3wcJIAAEgAAQAALbRSCJGZL1UK5vmbUxF+yTyyU72y73cKn1VgkQ3iHxzW3CreFx/Mr/HXMQPOUdEerPeAXLQSDl60NLSkm/dXvKi9jFd8y1k37oej2ON2QTCSdEdXkueozcw1/2ydXFu0zsE7cRg9ok2c/wz+KV68PtCdKl+JmI3Njadz02+yY5wGVy7JIdVd6JrTB/VZ8bfs9lNU40iZQ9zyMZXosUKVAoPUSkyEEuPnGtYQeFezpCuC94ufcH3U0pJq9V2/6pSp5Eto28KXnh0r2XSP99nPjCYWzTbSXbV8OiuyL7iSMQAAJAAAgAge0hkA0+uiAqPLUur41uDZTv4YsgOrHTzWPb5XYYWrPjoDLytbTm6jW8iwF8X5sn27k5izhBzJF/l4PcInFUX/Njv5P22j87DzGun/u64Dkepzsz9pBwotdctA92sv6L+zP7X0JrnwKGfDqS+VqPyvzjh84W0+6cuOBfzo/SYSz/Gr6fdMZ3X8cJaU+WledEPgVfZDuaj+Rmn/F5zP0cE04IN5pESs2QsLmz5Ca/k9LXyX6veElr0yeE9BZpIAAEgAAQAALbQGBqMcM25gibbQiAE214nULrGieaRMopgLX5HCFSNscQFoAAEAACQODQEagFH4c+t2n7T3GIeLpv0/Lp+v68P21OTPe87I8Rmf9MQTjTJFKmTq5p+AeRIviFJBAAAkAACJwoAtNYk08U/IlOG5yY6InZo1s1TjQtMp/7AAAgAElEQVSJlD3OAUMDASAABIAAEAACB4RALfg4oGnA1RERACdGBPNITNU40SRSaoamgNXU/ZsCRvABCAABIAAEgMAuEMCavAuUD2sMcOKwztcuvK1xokmk7MJZjAEEgAAQAAJAAAgcPgK14OPwZ4cZDEEAnBiC2nH3qXGiSaTUDE0Bwk38u7362BSmAB+AABAAAkAACBwFArQm4wMMwAFwYB0HSje8JpFSMnLo5SRQfnP7aXPj2Y8f+lTgPxAAAkAACACBSSBAgQn+gIBEAJyQaCBNCNQ40SRSaoamAPUQ/0ig3L/9jLn/+lfMezfPIFSmcCLhAxAAAkAACBw8AkPW5IOfNCZQRQCcqMJzkpU1TjSJlGNDz+6g/PJp88HrT5r3b56Zd68/Zu5e+4T55pc+Ek31Z1/+eZRHBggAASAABIAAEKgjUAs+6j1Re6wIgBPHemaHz6vGiSaRUjM03L3xerb4517xesYLlHvXL5q71x7JCpQH339gIFTGO0+wBASAABAAAsePQMuafPxoYIaEADgBHmgEapxoEina8KHm+Tso999wr3jdu/6Yeaewg0IC5cGzD81bX/uF+danvr2lKetfIZ2b5flIQ50vzXw2or2R3IIZIAAEgAAQOG4EssHHamFm3a+hz3ssdKtF+OX0qH3JzrbLu1N2vpyb2Xxp/FJdGledYtuPfw1+sVK1lC38IPQoaznZ3uYvz5+b5Tycr9z0spzIoDCNosK5sOdI4CjO/azDV/KW+U7HiMN+kuG8lPstzYJ50x0dvtR3ZmY5sI0xjm+lGPDcLBeCw96f3SZqnGgSKTVDu52SG+2HP/qxuXz5cvFD9aW/7176qHnv5hfsK17v/uTTdgflq8vvGP7cevJNsxuBQh7GF0Jy8ytNAuVAAAgAASAABCaKQBozhGBMr3vZKZwvzdLH8XKdLNnZdjl7SePMhEgpjcvtu6MVGhzcUp9c8FgqV7aSbJ9+Pf1MbPctWJkVn69orqF/yolQF1J95hJa90sNsVnqI3DU84w4S56VbEivhT1frPvpPDd05fN5iUskGtM6G2cullakLBcl8cRjbPdY40STSNmum+3WSaB8+OGHxQ/V1/5IqLzzg0cMHfmPRAr/vfSZl7e8g8IjafLpPLfDEQgAASAABIDAYSCQBB/0xFk88aVAKf9kOTc/ekrfBVslO9su79wivxfLpZnzTkppXD0NCmi5jxHzicqHrv99+lGbdSJJOz00L8cKNhJOhCqR6jMX0bxXcojNUh8xNzr3/pzmHCnZkG2FPV+s++k8N3Tli0XmWrK8XBTEMOknt6spLkk2utNjjRNNIqVmaKcz6gbTIuWTn/2TSLCsEylkRgoUykuRQvn2V7w6Iq3oNSu37eluwm4b1N+QI2Jr8sl8ICBvIxqr3HlLlW44znZENG9f2rJ7f94v2noMfVS7SP07+7xlGfp0JwIHIAAEgAAQAAIKAR0zJKLEBlFL+4pQfm2UBmmNcgF23s7Kvtri7VBXa3+8cusNrb+0CAphUfJHes/p8DqPeLotbJWfvMs1Wq/JVMcxQfnVH2ebMCy0T2ILC6ILckVM46Y/r7+212HP8+aj5oTp4pcQX+R8c3OnQNzFQS4f3hbU+RZ8XFvPGx87ibn7d/p4FjSeFHu1nQjtG9uQR2mPy3U/ndfttA2aF3Gs0s+KK2rHc2Gbuz2mnAjjN4mU0G0aKRIhDx4+9B8SKTLfR6TomWiRQvWPP3dLN6vkiRBiG9he9HwzYhLxkc3EJKIbXlDmzp6/gCLx4G7Ctk7dEOhG6MSEtO1seZGR+MZ+kl+in7LNXuMIBIAAEAACQKCEgA4+ysE8rTccPOcDJlrTeB0s2dl2uQuou3VSCIvSuAkutJbaV2/cWux3laI1Vqy9kQFRHrXnRqKei5IjtWF8dXuVXy06vKlcxDR2DuFcuKfxbJO/A1EWSpoTLCRjV5Uvnaji8x/FJ7ajbK9Ehzcs2/jCLkF1Of6V+nB7tuPGjB/8cl3JBtfTUdvjMh2TCSGaOY8h7useSFsR0md86cvu0wknhAtNIqVmSNjcWZJFyuef+J7RHxIrLFLY79JROqxFCgmUK68Z87mvvyqbVdIpISLidBe4FwrWEvXJkY8qlb3oSUfXxxqjdnyjWJmF334U/W1fbuOmEHwT7bxP4mZc/MKXs4N/gQAQAAJAAAhIBHjN5bJqMJ9dG6lnGnSW7Oy0vFWkFNZfCrzDOkzz1WsxoyfKuzggBO21ftyf23AMIOxRVWeTdzTs0ccWOliu5bvx7PmU7Vy55gSPW5+L8jXBSNRncHYjizadi9Ehy79SHypnHIWVDsM0vktxEL0aRErOjvCRxu9iv8ApUR8POplcwgnhWZNIEf0mkSQRcvfur/2HdlJknkVKi7NSpLBAeeqVt+1uyuzRKz1MaUK4G6wnbdOFQMMpe8UL0D3BoAs9vlGL/pm+ZSKLft2syW7+SUEPWNAECAABIAAETgqBJPig9c8vhmHNsqBk10ZaPzOBWcnOVsvT/13JBvIUFJbGlWeb2viHh1zRPYEXmCRrPjfVsYDVFXJNTtds39UnqA0H16p9Jj5w3VS7xA9d7wdT4suVJ5zomsfxhbbZkO89j+CnTdH5iV6Bp1I9LvehcsaRy9zRzqPX+ZT9cvb02DrP/WV5d73Qq3mea7Ke+0zrWOIEedkkUmqG9jFlEiF37tzxHxIpMj9UpJBQGSZQCAUihNgKjS4YqiNi85FRq5FI11Fe2GcTdKSx5guziN4vlP1dX3/9RL7lxFS6OMQCSA6ONBAAAkAACACBgEASM0Rrjl6bMmujCv695ZKdbZd7B3i97f771tK4sn0XG/j1l+q6wNh/39S2l7hIA/nysCbn66UFF59wcK3bUz4XW+TaydhA1K8ouuE/Uc5Fa34npTwXbasWr7i6eGeGHNA2hFM+JqM2jE+tj2i3WoqfjMiNXRuXfRD2uCjxt2RHlXecCvNX9d7+dBLJfUK41iRSRL9JJLVIkQKF0kNEipzYxSeuNeygcE9HCPcFL/c6lrspxeS1aruX0s0QzN4Qxeth/q7nxpBPqpILM+orbzTyhknvk4r/EcLfSGlMeQHznHEEAkAACAABIBAjkA0+xHqybm2062T0KrQIohM73djbLucp0lrq1/B4/fRLMrflY7T+hu95+Hlae7Tmi/XdCwcRC4g5yjWZ3owIr2nxoPJINsIanrTX/tmJiHGtqUpe9c/hkHCi11z0mDHeUbzifQwYsh/JfG3bdbFZsEPYuuBf4khp0YYH87BnfPd1nJD2ZJmM0dQ4kS+yHc0nnOMkBmTzEzomnBC+NYmUmiFhc2fJTX4npa+T/V7xktb6EFK2RxoIAAEgAASAwPEhMLWY4fgQPrwZgROHd8627XGNE00iZduOHod9iJTjOI+YBRAAAkAACGyCQC342MQu+q5DIH3qLndc1vXeZv1pc2K652Wb53yd7RonmkRKzdA6J06nHiLldM41ZgoEgAAQAAIlBBAzlJA53XJw4nTPfWnmNU40iZTSACgHAkAACAABIAAEgIBEoBZ8yHZInw4C4MTpnOu+M61xokmk1Az1dQbtgAAQAAJAAAgAgeNHADHD8Z/j1hmCE62IHX/7GieaRMrxQ4UZAgEgAASAABAAAmMgUAs+xrAPG4eHADhxeOds2x7XONEkUmqG1k3i9upj65qgHggAASAABIAAEDgSBChmwAcYgAPgwDoOlG55TSKlZGRdOQmU39x+2tx49uPrmmbr7927Z/ABBuAAOAAOgAPgwOFwgAIT/AEBiQBxAtfw4VzDuzhXtftEk0ipGZIklGkSKPdvP2Puv/4V897Ns0FCZRcgYQxcNOAAOAAOgAPgwHgcGBIzyPgB6eNDACJlvOvrWO5VtftEk0hpvVzsDsovnzYfvP6kef/mmXn3+mPm7rVPmG9+6SORqZ99+edRXmeO5URgHrg4wQFwABwAB06FA7XgQ6/zyJ8GAhApuP/p+1/tPtEkUmqG9OXlXvF6xguUe9cvmrvXHskKlAfff2BqQkVPCHmQHBwAB8ABcAAcmDYHWmIGHUMgf5wIQKRM+5rdxz21dp9oEil9Lxn+Dsr9N9wrXveuP2beKeygkEB58OxD89bXfmG+9alvZ4eIQbtqzmYXzKUb6kTfuGQu5Mqbvs9Cts/M1aY+yo8+fa+emdkuxunjC9rg/VhwABwAB8CBLXAgG3ysFmY2m9nPfHmeXfNl4Wrh2lKfqH3JzrbLyTk7xsKsYkd7zet8OfftZovIQmet8IPQ50szn81ND8ikVypNtpXfqsUo2Rw+neHDEimFePOeihVtTMc8dTHk1TPOx8cLl25k7jXBXrnfJXPWXTd8/ZxdpfiT+s7M7Oxqxu49c+PSBTPbODYeEOc23E+y94mOL1WR8sMf/dhcvny5+KH60t93L33UvHfzC/YVr3d/8mm7g/LV5XcMf249+abpI1DIfi+RshaQEtkk+IEo7sRnxNDacaQ9nb5hLl0gMp3tRgxt5Kv2HfmYh8ADeIAD4AA4UONAGnzIILkQjMug4nxplj6Ol+1LdrZdfm6W85mZLRYq2Ne+FcSEFRosEmQfOelSuWyTS/fpR23WjZ+z3beshE/o30+k9InXWq+9ITZLfUSsaB+Qi4fbNy6ZS1Y8sH8lG1xPR2HPx226n85zf1d+4UIuXqU6Ekm5Ou6//2N6nwh8qYoUEigPHj4sfqi+9kdC5Z0fPGLoyH8kUvjvpc+8XN1B4XbxTbB0otYB3acftWGy9Wm/bsxSvRyn1Abl8XkHHsADHAAHwIFD4kASfNATdrF7QLsK0e4IL/rZIwXAXfBfsrPtcu+XDPaNMSQ+5kvD+0K0+yOm6XvF7cR8ov59xEYwGVJ9+km/+7QP1ttScpy459GJFNpFuXDJ3PDiQt+j+sSSuZhQ99N5HseVn51dMMkuDflmH4pDpMQsFDkpUKhYihTKl17xEiZ67qTIE9jtWHRbY2dXqU5suRW2xYKaLbS3ipntKDFzlV43c3W0Bee22Fw+IU5WNTPhcDykRRi+gq/gADgADuQ5oEVKIkqsqFja3QkvVqhMBPwhFgiBb97Oymy7POeLKxOCwwQ/Q/uQCq+vid2WXiJFiopux6KLORYrquPYhHZ6/PZTGNim2LdCe7vTw3bUjsuKXjdzdWSesObXjvy586PxOL7AJ1KR0ideC4G4e1VexnvEPZ3vY5M569r6OC0SHdou96FyGQPOUoHgRUvJBtti/9kel+t+Oq/bSZ+ojuZF4qTUj/vv/6jvE54sxpit7qTIgTitRQqVP/7cLa7OHuMFoAS4KLfqUb+fJ+o9efTJoTZMFN1e5a+edaSk8llQ0jT2TBDW5tkmjyfH4TIc4/MMPIAHOAAOgAOHzAEdfJREhPGBfTm4peCeg+GSnW2XhwAl46cI8Msagb6PQ+KkEwncMNoBojohYPygojxqzw1EPRclR2qjxAdv/9hzIMZdLTq8qc8sCEcaW34/yObZJg8ox+Eyd0xESq94zcVZXkgkokTGZ0p0+HhPttH3FY7J+Mj1pT66XRBF7nsi3J+OJRu6TS5OlDsgZIcFJB25fbBP32fx49NDdbvDE+qnei/R9wnJmLUi5e7dX5vPP/G95EPl/LoXD1A6ygG1SCGBcuU1Yz739VdlsygdA1sCXJR3Ox6B0EOIIuwRyaNdlI4odkdGtUsIqevZFyaYJCrS8bkGHsADHAAHwIFD5QDHBLygl0SEre+CX47buY8xbteABQqVl+xsuzz4pILwaCeEvlefed3Lipg4mGfhFbcn20Is+EFFeSeIJCZO6OX6eQP0jf+ySBEii3dI3I6MGNeaWpenRnIcOb4xxImIz73iNR1HVfLWXi6+0n3UfaV7wOyDfCtuSn2oPDNGN5d+NuT4OXt6bJ3n/qKcxu9ePQuCRdR7wcZ9p3HU9wnJmF4ihQRJ7sMiRRpcl5YihQXKU6+8bXdTZo9eyXaPCJ2IAAY5PRH8ypUjTFof2yU71IaJp9r3Jr7ql/VXjsP+45ieD2ACTMABcAAcOFQOJMGH2gGIREVWpMjXqER4ULKz7XLvQhyER/OgNsoP243KktfYute2ImWmRQAPmpbTuCQoXPe0nnuGo/Rbtc+IKNdPtdM7LkmeeslxwuiUSkRKFzjX47V1cZWo7x2rqfvKGCLlXveqf/SVAuFbUSTkYkLdT+fZf1neveJFXz/w35OR9dxnWsfkPiEos1ak3Llzx5Q+Q0UKCZW+AoV8jW/QJcDz5UR8t6OSr09tF0SKFRviNS5PNm13XZ7IQW14nGmRJcYDvgEPcAAcAAfAgWEcSIKPKBCWwS8HtXzsopRcsE9VJTvbLvfBU8ZPIUB4h8Q3twnqw4Kiq6H52Vd45A4LtcvtiOTLg0DK16c+8Fi6PeXDK3WhX66d9E/XU08q43GCJUqVRApdY+V4TcdV7vUqv2NhBQa/GrXj172uXhI/iZEbW/ueu5ZyMaHup/NsR5V3Yiu8SaTqfezK/fd/TO4TgjI7FylibHPxiWvVHRRuGy8QBLh8L4+FgzgR3UlyF38QA/7/n45UrjxBZKPSvtvK81uheN1LCUiJJdIxb4EH8AAHwIHT4kA2+PCBOQfs8etcdnegC/h5p8CvuTKITux0EcO2y+0waRAe+RrtjHAkw+JKxC96njZPtkUbP2chBsQcZ0IMkDiyWJXGV+IhaW9Fnhjb2hHj+rmPKFJ6xWsivuMgW/ZL/gerOE5kMZOPAWNhYXd0ol0IgYf/vrGMFeOx0t8ryfjOc/BHaY/vEbqfGifyhQUa9aX5hDi233dieMz9HLP3ie6yqYqUTX4nRVyW1WTpFS/ZCQvbfogD3IE7OAAOgAPgwFAO1IIPucYjfToIECeG8gn9jvNeVLtPVEXKVC6b8YmZKtLwPyUcJwnGxxA4AVNwABwAB8CBMgdqwcdU4ovj9CPdjZE7Lvuc82mLFMSeuftl7T7RJFJqhrZJ+tykUFZeGIANsAEHwAFwABzYNwf2FTNsMx6B7c0QOG2RgntS7p5Uu080iZTNqDm8d25SKAPZwQFwABwAB8CB6XKgFnwMjwjQ85ARgEiZ7vW6r3tp7T7RJFJqhrZ50ewLOIyLiwkcAAfAAXAAHBjGgX3FDNuMR2B7MwQgUoZdS8d8D6rdJ5pEymbUHN77mE8O5oYLFhwAB8ABcOAYOVALPoZHBOh5yAhApOBep+91tftEk0ipGRpy0Yxtb4gP6AMEgAAQAAJAAAiMjwCt8fgAA3AAHFjHgdLdp0mklIygHAgAASAABIAAEAACEgEKTPAHBCQC4IREA2lCoMaJJpFSMzQE6rHtkQ9/9tKvhriCPkAACAABIAAEgMCICGxjjR/RPZjaAwLgxB5An/iQNU40iZSJz9NceuGO+ct/ecd848U7U3cV/gEBIAAEgAAQOGoEasHHUU8ckysiAE4UoTnZihonmkRKzdAQdMe0940X/9v8zb//n7nymjF//a8fQKgMOSHoAwSAABAAAkBgJATGXONHcglm9owAOLHnEzDB4WucaBIpE5ybdelPX/qV+avr961AIZHy9z/9rXn+1ffNJ//gxQ1cpl9sXZjVBhZqXVeLmZkvz+Mmq4WZLUojkj9zo7vEBpADAkAACAABIDANBLLBB61zs5n9JGtgzu1S+6mVk+/Wp+3FDTl4Dq0sy4mxJnG+NPOdxUmFmGynPowF3H7t1DjRJFJqhoZMcQx7T738P+byv71nnv+P31qR8nc//a156dZD87u/909m9uiVIW51faRIKZBxA+v2ZqYECQkXVSRG2IIPwjqSQAAIAAEgAATGRCBd41vX1VL7qZWfm+V8ZmaLxVYfbo55bvZlK+XEvjzZdNxNY7JN+2/q/3T61zjRJFKmM6XgyRefu2X+/J//1wqTf/xPJ1Au/P4LVqBMWqRYtS2fuMibbphfSIHQAQukgAAQAAJAYOoIJMEH7TSIJ3Hny3n6RoGcVKn91Mq9z+vWcd/wZBMJJw4WiU1jsk37HyxwieM1TjSJlJqhZNQeBWPY++N/eMuQUHnqlbfNC69/aC4+cc0LlD4ihZ5++C1nuvHNl8a9hMU3Gzq6rWm7Rc03WCsyuJzFRke6FW05ujpqTjfidHvbPXlhc3JnhXZUuH24oUtCyzQBrfJZ33qcEDQBAkAACAABIDASAnqNT0SJFRtLuwuRW4fz7Vd2TfXtyddOtOyrfYCL1mKOB0IpUgEBzYkkfonimS62WeZeEex2r0SsldgSsdB8uRSvzNfsGgrafAw3k+dTlMf2wvxiH0rjUHkuzpN2TiedciLMvUmkhG7TSf3FK/9l/uj5N83jz92KxEkfgeJmQWShmwofeW4yT2n5fRCVXy06oUPlsyB06MY5UyJIEF7eUPOveslxSmnyt1LnfeN54QgEgAAQAAJAYPsI6OBDrnl29E5cuDUsXYdL7adWHpCktRgiJeCRpjQn4viF2ut4hl6j676ra2OqDl/PHTlG2pe7EmdmPo6jdgW70fhOADtB7Prk7dV9yPqvx5EmTiydciIA0CRSaoaCyf4pttd61CP84d/eSkSKblPNd2KCyefaEiH5ZiOJr1V2p4ZtZ9UuIaGqJ1Vud27oiYAQQZ0/bjeFy2VfmSZvRV4o/XQ3pooCKoEAEAACQAAIjIYAr+1ssCQubH1mHS61n1o5zy+IrVCCVIyA5kQUv9imIp6RsY2u62KdaEdNtvfxFY/fZtfHTyxmqvZ4DDr2HCdqJ/ufXjrlRMCgSaSEbtNLffG5N/xOSrN3mZtjfLORpGORwgJGjqbaJSTU9Z04odfD+DUze+GxbSleZF+ZpvFFPuovfUMaCAABIAAEgMDuEEiCD1prxdPASGzk1uFS+6mVe0hpLeb12xciIRBIOCHjF9tOxDPVOmeUOESCwtFK9K2KCtFOj1mKoar2xAQjnyvjRO1k/9NLp5wIGDSJlJqhYLJ/amx7v/PYkP/Ni0hENxU+sv8ynyOaeI2LuySky/XjnRHXiS8w/zSAbr6RYOH20pZ7F9Pf6+3NXbbL+eadRAIIAAEgAASAwNYRSNb4KACUaxqlM+twqf3Uyj2SPA9fgIRCIOGEWRfPcGxDhiRnguEgdmU9pf8fe18TM1eRtdfZI1ZIs4GsQa0RC+wdq2GJFN5NK1L4kgUWygIk0LDxpxDpEgUWyUwUr8AiQ0iyQGkJzQgwkYAgK8nCyEL5MvPKGMECx/kUEY2NDSYL25pKTtU9dU+d+ulbt2933377eaX2vfV3zqmnzq06z61qN5MX/m4wy5L1tFzXzsdkXk1Jnq+kbFylh+2R7Q/vPvaJDoMqktI1Ozl38ovzljAwQVCkxX+ZnZmBnST1F59KDkmY6XLelZGO6h5Yu9U4X5iFPwam2lpiwkfN6L89FDKStp2cMUNPgAAQAAJAYPoIJIMPsXa55dSteRwUhuswLZvdl6Z5+bU9n1q+Mwo7KSvccpVPuP/GmeMZFffIGEqMf/fldlVf1Am/6K7qSblkfy6GysqTnZay5T3VCdNRXCnFHNB90ifa/leRlJKgIXiOLW+IDWgDBIAAEAACQAAIjI8A1vjxMd13iTvziWD3bd9RPFn2l3yiiqScLFjQGyAABIAAEAACQGBTCJSCj03phNxpI7Arn7C7Fv6kzLQxOjTrSj5RRVJKgoaAOra8ITagDRAAAkAACAABIDA+Aljjx8d03yVuzyfE0Xn7myT4Dw2m6jsln6giKVPtIOwCAkAACAABIAAEpoVAKfiYlqWwZlsIwCe2hfT+6Cn5RBVJKQkaAsfY8obYgDZAAAgAASAABIDA+AhgjR8f032XCJ/Y9xEc3/6ST1SRlPFNg0QgAASAABAAAkDgJCJQCj5OYn/Rp9UIwCdWY3RoNUo+UUVSSoKGgLqOvGvLh4aoRBsgAASAABAAAkBgCwjQGo8PMIAPwAdW+UBuOqoiKTkh284ngvLztdfNpbd+sW3V0AcEgAAQAAJAAAj0QIACE/wBAYkAfEKigXtCoOQTVSSlJGgI1EPkEUG5c+0Nc+fKC+b25SMQlSHAow0QAAJAAAgAgQ0jMGSN37BJEL9jBOATOx6ACaov+UQVSdl13+wOynevm5+uvGh+vHxkfrh4yty48Ih57bkHAtP++PyfgjQSQAAIAAEgAASAwHYRKAUf27UE2qaCAHxiKiMxHTtKPlFFUkqChnS3Rp474vWGJyi3Lp42Ny48nCQod9+/a0BUhowI2gABIAAEgAAQGAeBmjV+HI2QMnUE4BNTH6Ht21fyiSqSsn3TnUb+Dsqdr9wRr1sXT5mbmR0UIih337pnvnn5W/ObX/52QyYvzYJ+HGixVPIpf26aY5WNJBAAAkAACACBA0MgGXwsF2Zmf1xvZuY9Fkv7S+Gp+jk5G87P2mPHVv2AYOEXzo+bucchjiVIWCaeOG7MfO04g2Tv5scNkz4x2eciMwZ2bAR+wudmLa7ST9jf6Zr2+W488u0aF3e2zwLJciEotU3Fow5U52e5uPTYNIvG7DpkLflEFUkpCerjY598+pk5d+5c9kPlub93zj5obl9+xh7x+uHzx+0OykvNm4Y/V1/82myHoJCFznHnc3YStjrn0Fxeuq7TtiQXZUAACAABIAAEto9AHDPQOsfBXY8177gxjX8XKOvn5Gw4P2uPMcaSBxUTBPUF/rbuKhxkf0Xblbd92uVwWil87QqxT6RE9ulDql0pb4jMXBuBXzCWzg86nyV7cjKkrUKez9btdJoruvz5PEVEqGxmZglSa8nLorEkpVnkyBPr2Oy15BNVJGVdM4mg3L9/P/uh8tIfEZWbHz9s6Mp/RFL474MnP9zwDgprap1l2Zh58KYk50TcrnRdp21JLsqAABAAAkAACGwfgSj4oDfO4gQCBUrpN8spW2mXog3EcnI2nR+YJewxbgdFdC2oGSUosPWxg5AT5KZwBw8AACAASURBVA+NCfq0ozqrSFJk9SgZkU8kpfbpQ7JhIXOIzFwbgR/5nB/LlPqcDFlXyPPZup1Oc0WXv1gkniX7PCzyJ3yo3O/IsLztX0s+UUVSSoL6dEuTlMd+9euAsKwiKaRDEhRKS5JC6fojXu3AE+EItpTdpOMn0MARO2ehrTlfRzNmy7CJxdKHJoScTJLH9fLbdn0wRh0gAASAABAAAlNAQMcMESmxQVRjmrlYR4O1VvaC1kkXWKflLM2m86U17g15G+jrt+lhxWSqO9Yj3oD3Iild/GHamMLFGLSL0zeWYCwz9aPYJdmFQZnaJ/r1wfWZAnEXS7l0d1pQp12s1Q+XXFxG3dNyucuUL0me8F+u4q85Gb5Cq4flcb5up9O6nrSJyqhf5FuFdpZcUT2tm2Vv5xr7RKe3iqR0zYbdEQm5e++e/xBJkek+JEVr1iSFyp99+6quVkjTAM46JmwfTp40eND5ymLkoPe5Jx9ctGSGZfE1JZPzcAUCQAAIAAEgsJ8I6OAjRyK6gF+vi12/5QvBnJxN53fW0JIuAtOAXMhamXv7BpsDSPFi0pI2Pt8mYwspR+QH9bmOKOes6Cpx1vVV2scukZBBGdonKDaSu2tOqLLBkgWBd0QeZH1FOryVso7PbG+ojAJ1vnJ5ro2u53SmdyVyMlgHXbU8zuNYlNPiZXZAklw98km/m+d9so9+acv27yOfECZUkZSSICEze8sk5ekz7xn9IbLCJIX15K5SgSYpRFDOf2nMU698IasV7uMBDAbaTiZi4K0k1cY/ZCI/eBPROhZ7Tx+ZBYtRBASAABAAAkBg6gjwGs525kiELU+ui1QSB505OZvOd/2I7XHfR+n5NtrGBmFdJjxB7BEF4oxiHGd0pzmojijnJtGV6rANqn4pdonk1Gdon+Dv8pT7oGyM+ijKE/g6K0WdlNlJ/8u1oXzGTwhrseNQr5deWyklT+vWadYr8kl/e/Ss8yVRzk0mdo18QthXRVJEu0G3REJu3Piz/9BOikwzSakRLkkKE5RXP/re7qbMnjjfQ5QeQDcBeSfr5bjcRsjKPihuVyVm3KJtD6tRBQgAASAABIDAlBGIgg9aT/3iSt81F+fok2stra3ybXLb25ycTef7IzQadY4BdH4iTTZG32Fw7SU2ebIRxwqEYxdTxOWxFVSHg2xVvxS7xIKqcyKfaCWU+6BsnCpJsd+bnwc+nh9HCZ0cD85f1edUvfZ5Cb4vreVwu+lccz5BFlaRlJKgPt0lEnL9+nX/IZIi00NJChGVYQSFrKYBFNuIwQPKjsNX7mVi0G072jHhCVXJ5aZWH00OPWT6NrgBAkAACAABILBfCEQxQ7S+yvUysS4q0uF7n5Oz6fycPWQYlekvISf/dy8XGwiu5tvyf1/r+pmIM2xBOr8jfOlyj52XkSEpOibyDaXc3L2vnL2JfELUzPdB6qMGihRa7NmXXFm4M0NttAyh2MdjVIdxKbUR9ZaN+NmJlO6SXrZByOOsyN6cHJXf+mHXf1Xu5U/npuQTVSRl3S5pkiIJCt0PISnSptNnLlTsoHBLN4DuC1nuWJabPEJnsyzfv/1ID7p7E8APiqXU/sv4NHnN6L97E18QDGW6M66uHp9JZRtxBQJAAAgAASCwXwgkg482iOoC+vxa69ZUeQ5fvFCM5LTYbDC/aA+p9y8rW5t9zKDGLVPPy7ftKM5I9V3EH6KvkuDQUZ9yLEEyumA8qq/ts0GR0BsE0DJf9TORjHyiVx8SOmS7hf4frKh+hx0Twqif1r68//FLbItlK88F/ySf8Qt1hbthpCBhe4SLlMeFup3S41+u63rUH7atr37WuZtr5BPCjCqSUhIkZGZv1/mdlKxQVdDviJdspAdYluEeCAABIAAEgAAQGILAujHDEJ1oM20E4BPTHp9dWFfyiSqSsgvjN68TJGXzGEMDEAACQAAIHBoCpeDj0LDYTX/jt+9yx2UXNh22T0xvPHbhA1pnySeqSEpJkFbaJz22vD464zogKTEmyAECQAAIAAEgsB4C01jj1+sDWo+LAHxiXDxPgrSST1SRlJMABvoABIAAEAACQAAIbB6BUvCxee3QMEUE4BNTHJXd2lTyiSqSUhI0pItjyxtiA9oAASAABIAAEAAC4yOANX58TPddInxi30dwfPtLPlFFUsY3DRKBABAAAkAACACBk4hAKfg4if1Fn1YjAJ9YjdGh1Sj5RBVJKQkaAuo68q4tHxqiEm2AABAAAkAACACBLSBAazw+wAA+AB9Y5QO56aiKpOSEbDufCMrP1143l976xbZVQx8QAAJAAAgAASDQAwEKTPAHBCQC8AmJBu4JgZJPVJGUkqAhUA+RRwTlzrU3zJ0rL5jbl49AVIYAjzZAAAgAASAABDaMwJA1fsMmQfyOEYBP7HgAJqi+5BNVJGXXfbM7KN+9bn668qL58fKR+eHiKXPjwiPmteceCEz74/N/CtJIAAEgAASAABAAAttFoBR8bNcSaJsKAvCJqYzEdOwo+UQVSSkJGtLdGnnuiNcbnqDcunja3LjwcJKg3H3/rgFRGTIiaAMEgAAQAAJAYBwEatb4cTRCytQRgE9MfYS2b1/JJ6pIyvZNdxr5Oyh3vnJHvG5dPGVuZnZQiKDcfeue+eblb81vfvnbDZmsfzV0bprjkVQdN2Y+G1HeSGZBDBAAAkAACACBGgSSwcdyYWazmf3Meyycy4WrS22C+jk5u8q3wBybZt7ZO5s3ZqzQoAb3KddN+sRkDc792DflL8yS7RY+N2vzpd+yv0c+zO1NJy/frjGL9rlheQtrQBuPuoSXyDfHzdzMsjHlsWkWu/fRkk9UkZSSIAakdP3k08/MuXPnsh8qz/29c/ZBc/vyM/aI1w+fP253UF5q3jT8ufri12Y7BIUsDB3XOgEmo9zQIR8IAAEgAAQOEIE4ZuiCMb2OJuE5bkzTRYJm4YOtnJxd5Rtj7AvGmQlixcD+ZA8PLjP2iRQEYYyVqlGfN0Rmro3wMzvugrBEY56TIXsg5Pls3U6nuaLLn89TL7epjEhzXGbj1kVjSUqzUC8AWPSWriWfqCIp69pLBOX+/fvZD5WX/oio3Pz4YUNX/iOSwn8fPPnhhndQWJN2Fp3mergCASAABIAAEDhMBKLgg944iyieAqVgd6QIE+1StMFWTs6u8o3bQRFdK/bkkAsjn0iCsYmYaojMXBvKb4kJ+VzxJXVOhuy4kOezdTud5oouf7FIPEv2eVgIcs9t2iuVzxSxVlW2kSz5RBVJKQnq0xFNUh771a8DwrKKpJAOSVAoLUkKpeuPeLUDv6RjVnIL2k06fgINHFE7i0x3DsPbfvyGxW3RkWMnJjQvX8rq3s6E23vUU1UvSDv5cRtqhz8gAASAABAAAptHQMcMESmxQVRjj0il11ppI615LjBMy1maXeW7NV68TZdm4z5AQPuEaeOhLl6hcRZH5izzc/EOBeIurirFP6ROx0ApmWxWTazHbUgej7eT7f2Xq/irttUXiBspj7N1O53W9bQM6heR+kI7S66oHveFZW73GvtEp7+KpHTNht0RCbl7757/EEmR6T4kRWvWJIXKn337qq5WSNMAzjomHHwnhAedrywmHHSaGDsm7eR1DhvWNcuFe3NkJ2e/j23oHKJ7CyPrO1n+7Uxkm9zCE+2UbLYaVyAABIAAEAAC20JABx85EuFeulGgROtYOmCiNZLX1ZycXeVbklJ8m74txKevR/sExURyd831QMQzNsPFQjz+fV7SdnUZEy2T8+nKfsdXLsu10fU6UuTjNRYRvED2mepGy6NirZvSgrz556Sr18WR7Qtu65NduVI6mWTkE8KyKpJSEiRkZm+ZpDx95j2jP0RWmKSwntxVKtAkhQjK+S+NeeqVL2S1wn08gMFA0wMUbYflnIXUKHntOVV+S2Cv/s0AT8ZLs/ATnGivzzqS9CSZUXpbnfFDWoABRUAACAABIAAERkSA13AWmSMRtjy51lKJetNt4y91tKUNdHPyN52PnRQe4dVX7RN80iSMV0Qc5JxDHVkqlCfiJmeVbqNsTfpfrg3lc/wm5LSxV0hUcjJEO0+SdF7mRbSsJmNO0t/GkvlYMWg8iUTkE8KqKpIi2g26JRJy48af/Yd2UmSaSUqNcElSmKC8+tH3djdl9sT5HqK0A7kJ0TtZleOSOiUv+8DQ9+zcRMtXZ6xon2ibdzzRru01yY0JVg9IUAUIAAEgAASAwJoIRMFHSyZYbLD2JddaWo9loNa2zMnZVX7qCDd3EtcAgcgn2tIwXtHxTEU6ETc5FVpGYBa9AU7ES7k2lJ8gKS2BDneGcjKk/pQ83U6nub3Mb58X+vpC6sU3N5nYNecTZGYVSSkJ6tNnIiHXr1/3HyIpMj2UpBBRGUZQyGoa4G4bOXwjQmXkiHzlXkqn4Dy+6jJKC/lcja6W9S7MIjgPKNu7tp4wBQ9fikzFk3mwCEjduAcCQAAIAAEgsEEEopghWMP0WpdYaxXp8Kbm5OwqnwxLBbnR//Tke3CwN5FPCCS6eEX6hgVX7aSU4h9XFu7MpGQIxT7GI72SfGg7uI2ot2zET1CkdOdksCy2TerlPBnT5eSo/NYPu/6rcql2Ivcln6giKev2R5MUSVDofghJkTadPnOhYgeFW7oBdF/Icuf9HCkInc2y/F7MNOEQduIUZwk71uH+T3WfJptU+6CtdNhuUnRHyMT/4NA6qTtiph2f+40rEAACQAAIAIHNIZAMPsT6tGqt5bfrbi1za6gPviI5bT92lU/qg/VafNd1cxDvneTIJ8R4+f9syIY3bcxknUTFRdRr2W4h4h+LCNXvYi4OsegkiouXuu8D6+OEcazXyaG2zv9IPsdWoa5wF8UaqghWasikPC6nPBnzKT2BLbIexa5sW1/9rHM318gnhBlVJKUkSMjM3q7zOylZoaqg3xEv2Ug7gizDPRAAAkAACAABIDAEgXVjhiE60WbaCMAnpj0+u7Cu5BNVJGUXxm9eJ0jK5jGGBiAABIAAEDg0BErBx6Fhgf46BA7bJ+LdELl7dKg+UvKJKpJSEjQE3LHlDbEhOl41TAhaAQEgAASAABAAAgKBaazxwiDc7hwB+MTOh2ByBpR8ooqkTK5nMAgIAAEgAASAABCYJAKl4GOSBsOojSMAn9g4xHunoOQTVSSlJGgIKmPLG2ID2gABIAAEgAAQAALjI4A1fnxM910ifGLfR3B8+0s+UUVSxjcNEoEAEAACQAAIAIGTiEAp+DiJ/UWfViMAn1iN0aHVKPlEFUkpCRoC6jryri0fGqISbYAAEAACQAAIAIEtIEBrPD7AAD4AH1jlA7npqIqk5IRsO58Iys/XXjeX3vrFtlVDHxAAAkAACAABINADAQpM8AcEJALwCYkG7gmBkk9UkZSSoCFQD5FHBOXOtTfMnSsvmNuXj0BUhgCPNkAACAABIAAENozAkDV+wyZB/I4RgE/seAAmqL7kE1UkZdd9szso371ufrryovnx8pH54eIpc+PCI+a15x4ITPvj838K0kgAASAABIAAEAAC20WgFHxs1xJomwoC8ImpjMR07Cj5RBVJKQka0t0aee6I1xueoNy6eNrcuPBwkqDcff+uAVEZMiJoAwSAABAAAkBgHARq1vhxNELK1BGAT0x9hLZvX8knqkjK9k13Gvk7KHe+cke8bl08ZW5mdlCIoNx965755uVvzW9++dvNmrxcmNls5j/z5niz+iAdCAABIAAEgMCeIJAMPsS62WvNzNXfl/w9GattmZn0iVrlx42Zz+YmHXLRr7rnyo5Ns2gMIrVawDdbv+QTVSSlJKhPFz759DNz7ty57IfKc3/vnH3Q3L78jD3i9cPnj9sdlJeaNw1/rr74tdk+QZEPwrFp5jPTa9LNdRL5QAAIAAEgAAROCAJxzEAB5MIsbf9KwSQDkKu/L/ncD1wZgdgnuGSsa9qvjpu5mS0aS1KaBWK1sdAeQ07JJ6pIyrrGEEG5f/9+9kPlpT8iKjc/ftjQlf+IpPDfB09+uJ0dFOMIycLNtKzeGMvueQLusnEHBIAAEAACQODQEIiCD9r9EAsnBY7FF3u5+vuSf2gD3qO/kU/0aFNXJU1SrIx29024YJ1o1N4IAiWfqCIpJUF9LNck5bFf/TogLKtICumQBIXSkqRQuv6IV+vQS9o+dEe33KSZICLk4PPGHGfJCLVxuyvLxcx0D4J6aKi9LWzzm+7YWDBhWz18nIzJj2uzWMzNzL+R6oM+6gABIAAEgAAQ2B4COmaISIklG014CoHXWUPv/RSJsfWXe5O/PaT3R5P2CTqB0sVKxhgx/u7FL8dAsl4ipvLxW5M57rU0C4rf7Etmjqf2B7eTbKn2CdnXKpIiGw65JxJy9949/yGSItN9SIrWq0kKlT/79lVdrZAmZ5858kG1LDFoj3G1EyI39sSD6lhn5xK+CmIj2y4XZj7vJttu4m118xNKbTzxUA8hybAHMF2bgMywelyBABAAAkAACEwEAR18dGtfa6BfJ2ldo8CRr648V39f8icyDJMyQ/uEJSUcA1mOwmTExTq+SMZm1k/4uH1Yj3xjlv1OyqSggDEtApFPCGSqSEpJkJCZvWWS8vSZ94z+EFlhksJ6clepQJMUIijnvzTmqVe+kNUK9+Tg7OyumicjwYTJLJyJTIqJdzspluy0RGb5/3c9Gtqp8Sye9WndIh3sorRvEuzTKuoUeoUiIAAEgAAQAAK7RIDXcLYhRy5suX1JxwGqa5Grvy/53G9cOwS0T5iKOCuMzdo4KnppjBipQ3s/7mKf6OyuIilds2F3REJu3Piz/9BOikwzSamRLkkKE5RXP/re7qbMnjjfQ5R2aLEbIrabw0kxrOOVWGLB5IUJC5MbSi/MMnigtG6RDmR5DfSeISJVshT3QAAIAAEgAASmgEAUfPidE2ddsK4mSIp+y+7r5+RMLX8KgzAxGyKfyMVZiRgIJGVigzmSOSmfYNFVJKUkiAWWrkRCrl+/7j9EUmR6KEkhojKMoJC1FPSL/+lBPxiWVCzMggiG7JydUGWeksMPnjrmtVjwsS3WzbsqOh3Lc+pBUuQw4B4IAAEgAASmiUAUMwTrq1zL6J7WU762/cnV35f8aQ7LTq2KfIKsScZZ5AtiZy035m0Mx8fCiMjiuNdOh7haedInWilVJKVas2qgSYokKHQ/hKRIFafPXKjYQeGWbqJ0X0R3x6rY2V0Nt2si/0cSbmnf8ojfSQnbtQ+ePEpmH7IcKSGpzhb/f3/b+t2XxpwNqo43BjdAAAgAASAABKaDQDL4aHdM6DfG3Jrp1lj+nqUNMuV3PqP6bf/2JX86wzEJS5I+0f6PqVGcFcRAhdhJ+MK8yX1xfhLdhxEJBNI+4SpWkZSSoITeKGud30mJhGUy+h3xko0R9Es0cA8EgAAQAAJAYAwE1o0ZxrABMqaFAHxiWuMxBWtKPlFFUqbQmfFtAEkZH1NIBAJAAAgAgUNHoBR8HDo2h9p/+MShjny+3yWfqCIpJUF59fmSseXlNZVKQFJK6KAMCAABIAAEgMAQBKaxxg+xHG02hQB8YlPI7q/ckk9UkZT9hQCWAwEgAASAABAAAttEoBR8bNMO6JoOAvCJ6YzFVCwp+UQVSSkJGtLZseUNsQFtgAAQAAJAAAgAgfERwBo/Pqb7LhE+se8jOL79JZ+oIinjmwaJQAAIAAEgAASAwElEoBR8nMT+ok+rEYBPrMbo0GqUfKKKpJQEDQF1HXnXlg8NUYk2QAAIAAEgAASAwBYQoDUeH2AAH4APrPKB3HRURVJyQradTwTl52uvm0tv/WLbqqEPCAABIAAEgAAQ6IEABSb4AwISAfiERAP3hEDJJ6pISknQEKiHyCOCcufaG+bOlRfM7ctHICpDgEcbIAAEgAAQAAIbRmDIGr9hkyB+xwjAJ3Y8ABNUX/KJKpKy677ZHZTvXjc/XXnR/Hj5yPxw8ZS5ceER89pzDwSm/fH5PwVpJIAAEAACQAAIAIHtIlAKPrZrCbRNBQH4xFRGYjp2lHyiiqSUBA3pbo08d8TrDU9Qbl08bW5ceDhJUO6+f9eAqAwZEbQBAkAACAABIDAOAjVr/DgaIWXqCMAnpj5C27ev5BNVJGX7pjuN/B2UO1+5I163Lp4yNzM7KERQ7r51z3zz8rfmN7/87YZNPjbNfGZms/Yzb8zxhjVa8ceNmc/mptmKsm10CDqAABAAAkDgpCGQDD6WC79mznssYstFt8YG9XNydpXfDt5xMzezQixgyzlmWCwTQ575gekR1n2JpY9bZjMT4JqwaMyspE/UKihikcHP6jg2zWJLcVptnw64fsknqkhKSVAffD/59DNz7ty57IfKc3/vnH3Q3L78jD3i9cPnj9sdlJeaNw1/rr74tdkqQbEPycwEc8xxY5rUnJPrVJRferiiysgAAkAACAABIDBZBOKYgda4hXHLZI/1LlhTZf2cnF3l8xCQ/lmepNi4YVX/ZT9Zbp9rTbuaulL30HadjNgnurJx7tI2WnK4aCxJaRbbJWbj9OvkSin5RBVJWRciIij379/Pfqi89EdE5ebHDxu68h+RFP774MkPt7qDEhAUNmKta/rhWkskGgMBIAAEgAAQ2AECUfBBuxxi4aTAsf9bfDq50J4gyMnZVX6LLfVn0TRmnttJIZLiy0R/gvyhcUBNu5q60nGGtutkRD7RFY10V7Cx3WUTLjiSTohZB4GST1SRlJKgPgZqkvLYr34dEJZVJIV0SIJCaUlSKF1/xKt16CUdoXLbym7SdEe5AmcmB6cJJngbkum5rdNtU3dyWn2N3vKm/K4+T+TB9qwXIh/CnLzWrsCO8A3OYjE3M/9WK9MPZAMBIAAEgAAQGICAjhkiUmJJRWOPTXuywutspI/WOreGpeUsza7yram01tIaTVdPRKJOmG5NF0e2gzZyfZftZX541HyxpLI4fpCtw3spyzibfXuOE9bVEWrklPYJOjLvQxuqJMc/iF9kvbz986Yxi+Rx+KVZ2HGhfnEf2Spcd4mA9glpSxVJkQ2H3BMJuXvvnv8QSZHpPiRF69UkhcqfffuqrlZItw83Tyr2oUi/raHJxT5MwYSSEu1k+gdPyjStPi6kB9ITBfXgBaJlmb6fdW+nSvKWi/atlbPBLwqBHiSAABAAAkAACKyPgA4+ciTC2HWRAkdam9IBJK2/vGbl5Owq3xgKfNu4oRQf2PWZ6rk1mF9G2sCcYwKLgSAwfhjEuk9yfH2uIMo5K3uVdeW9IwkW57V1pJVrnwj7ThyFyQjZxfdMpBgXaXNYj3xgliQpaXuQu3sEIp8QJlWRlJIgITN7yyTl6TPvGf0hssIkhfXkrlKBJilEUM5/acxTr3whqxXupbO7auFDwhMms3B+WDg/IdqSkrA8lMkPGrWV+uV9K9dOavyGhNvJevJeybN2cNv2aic23SbRB2QBASAABIAAEFgDAV7DWUSORNjydq2LYm9LADqCQnVzciaRnyMpmbiACEEXH1DvcuuzyG/XdiZtDl9R7jIK/4q6uThhbR1p9donOoJK9ctxVoeTsp9fMluVoixtAnInhkDsE52BVSSlazbsjkjIjRt/9h/aSZFpJik10iVJYYLy6kff292U2RPne4jSDu22OHmi5EmPr05gWCdSkpmMnEytT6blvSZD4k1NMImpNrIsYYezVbeJeoAMIAAEgAAQAAJrIRAFH+rtfLCuJkmKXPeEKTk5O8mn40XqZSClg8DZ7VBEeS0BC3dFcutznE/40f/SlY4tBF7RrZCVjRNco+E6IqU2I/IJQToDf0jYBZKSxnTfc1M+wX2qIiklQSywdCUScv36df8hkiLTQ0kKEZVhBIWspYdVvKXRDwal5wuz0GcYUxOq/59InEwmOvaMqt/CFpODBUum5b2a1KxdlTspum9+cJQen48bIAAEgAAQAALjIBDFDMH6KtchuqfTB3xt9SvS4a3KydlVvjesfbmoCYotp74xoRD9swRHnryQuEjB6fwusE+XSwndvaxL9yIG6ir5u2E6fPPgJvIJKqVxi+IsZ9fqOCqs50gVx0qBaiQmikDSJ1pbq0jKuv3TJEUSFLofQlKkTafPXKjYQeGW7mF1XyJ3b0P8Q2GruF2T8E1H29ZOiOINipyYgjL5wDh93X8PH6bpTYH9/8utEa1u+1aGiBLLkW3kPdml0oEd/N0VVYehwBUIAAEgAASAwEgIJIOP9gVftwPg1jk+umSDzHYtdQGnWGNlMB3JaY3eVT5jZgPuzG9x6PVY99OmaX1O9Vms26KP3Xda3fc5uviBDUpdhSwq1nZR/LG2jpReY5I+kdxR0nZx/ENylf3C1vwX59P2IHf3CKR9wtlVRVJKgvp0c53fSekjn+r0O+IlpSlnl0W4BwJAAAgAASAABAYhsG7MMEgpGk0aAfjEpIdnJ8aVfKKKpOzE+o0rBUnZOMRQAASAABAAAgeHQCn4ODgwttphimvC3Ri547JVU5Qy+IQCBMnM7poDpoqknEznAknBMwIEgAAQAAJAYGwETmbMMDZKhyUPPnFY492ntyWfqCIpfZShDhAAAkAACAABIAAESsEH0DlMBOAThznupV6XfKKKpJQElQxAGRAAAkAACAABIHBYCCBmOKzx7tNb+EQflA6rTsknqkjKYcGG3gIBIAAEgAAQAAJDESgFH0Nlot1+IwCf2O/x24T1JZ+oIiklQasMv7Z8aFUVlAMBIAAEgAAQAAInBAGKGfABBvAB+MAqH8hNeVUkJSdkVT4RlJ+vvW4uvfWLVVWT5bdu3TL4AAP4AHwAPgAfgA/sjw9QYII/ICARIJ/AM7w/z/A2xqo0T1SRlJIg6YTyngjKnWtvmDtXXjC3Lx8NIirbAAk68NDAB+AD8AH4AHxgPB8YEjPI+AH3Jw8BkJTxnq+TMleV5okqklL7uNgdlO9eNz9dedH84Xg+DgAAIABJREFUePnI/HDxlLlx4RHz2nMPBKL++PyfgrROnJSBQD/wcMIH4APwAfjAofhAKfjQ6zzSh4EASArmPz3/leaJKpJSEqQfL3fE6w1PUG5dPG1uXHg4SVDuvn/XlIiK7hDScHL4AHwAPgAfgA9M2wdqYgYdQyB9MhEASZn2M7uLObU0T1SRlL6PDH8H5c5X7ojXrYunzM3MDgoRlLtv3TPfvPyt+c0vf5tUEYL2rjmaPWrOXlIDfemseTSVX/V9FpJ9ZN6taqPsWNH23aPuV2AfPXsJZzNX4BWOfR3WaAu84APwAfjA7nwgGXwsF2bW/hr6vDlOrvkyc7no1sygfk7OhvOz9lijj00z7+ydzRuT6+FxM/c4zBZL2eX2PvND08eNmc/mpgd0CZmcRbIXJqWVa2zqul8kJRNv3lKx4rtH3Vi2MaSM9djf6ZqO+zp5+XZnzVH73LC8o3fp2aa2MzM7ejcZT146+6iZrR0bb3YOSc4TrQMWSconn35mzp07l/1Qee7vnbMPmtuXn7FHvH74/HG7g/JS86bhz9UXvzZ9CArJDxeZnNOsArFPu85R3MAnyNA6QfWls+asdSp2rJHlr2Mb2io/W+VPKA+fS+ABPOAD8IHQB+LgQwbHmSBcBhXHjWl8JC3r5+RsOD9rjzHGkoeZCfhGUF90zNZlkiD7JeqYXL6sk7rv0y6HU0reuHn9SEqfeC30tdXP3hCZuTYiVrQvyMXL7SDOIxtzMqT9Qp6PxXQ7neb2Lv/RR1PxJJURaU6VcfvdX+N5ovO5IkkhgnL33r3sh8pLf0RUbn78sKEr/xFJ4b8PnvywuIPC9ULnyw3UKqD7tKM67Gx96q/SWSq/ZM4mnarUBmWhLwAP4AEfgA/AB6bqA1HwQbscIoqn3YRgd4QX/eSVdinaHYScnE3nB3YJe4zbQRFdC2pGCSIpfpdFyAny+5CNSLIxvcgNSEq/ZyYXB4pYkXZRHj1rLnlyoeejnAxZT8jzcnQ7neb2Lv/o6NF4l4ZsOzpKnz7yeljO7q7RPCHceqMkhfRIgkJpSVIonTviJWxUb7jLA+WOgREB6LZcj96lNl06ty3mGC+RlEx9y5hZjiIz79JxM1dGW3Bui82lV23v9XtYdudAsA/YwwfgA/AB+ECtD+jgIyIlllQ09oiUJyuU5wN4GQl0gXVaztJsOl9a48hAuxsS7IyEtXKp7tiYOLrVi6RI8uLIER//WSypjGOUWUAIQzsYy0x92x+Wwzs+oYShKfKJ0I/6xGtdID6zL5J1HKjTfWTy8+zq+jgtIB1aLrehfBkD5o5xUf2cDJbFdVge5+t2Oq3rSZuojPpFOyi5dtx+91c9T0jf2jhJkcroXpMUynv27au6WpAOHToHuMi37FGfzxPlWQZJddhRdH2VfveoZa2UP+uYNOmW5w5tmmV2zkDnDv1DkbWnqx9igHzgAR+AD8AH4APT9gEdfORIRBfwc/AchAA2QUE9E5mcnE3nS6ukPfaoV5JYyRbinoiY/V5JSxJ4CybYCaIyQWB8c5Ef1OcKopyzoivVYfKh66v0cuFxj8QMyIhISq94zcVZXcyk4rGACCjS4eMr3UY+O1RGcRpfuSzXRtfrSJH7ngi3p2tOhq6j40TdjtJMHOnK9bt6FFd6/fRS3e7wdOVTnS/1PCHdaiVJuXHjz+bpM+9FH8rn416sIHeVCjVJIYJy/ktjnnrlC1ktuA+BzQEu8tsdj86hhziKkEdOHuyitI5iv6ik6kUOqctzD5B0WNyHYw48gAd8AD4AH9g3H+CYgBf0HImw5TZwV9/psAVut4AJCmXl5Gw63/Ujtsd9H4WDflcr+29i14UJD12Zr+SPbQkS0e54SGzy7aRFBZIS7KK0sU5nlBQy6J58IvDjXvGajqMKaSuPA3g5Z+g2suyWudW+YPZBviU3uTaUn9DR9qWfDKk/JU/r1mluL/JJf3v0rCMsotwTNm47jaueJ6Rj9SIpREhSHyYpUuCqe0lSmKC8+tH3djdl9sT5ZPPAoSMSwCDHA8FHrpzDxOWhXJJDddjxVP3ejq/aBfby9hvbjGs8BsAEmMAH4APwgZPgA1Hwod78B6QiSVLE9zVkdJCTs+l8+92T1O6GIy69YnmyMdp1ce3l93XyZEOQlBYTwpFOcDj9cbmEzt2vIik9CVcseGVORFLawLkcr5XiKporRHnvWE3NMWOQlFvtUf/gf9oStmVJAtXh2JPt0u10OlWvjTHp6wf+ezK5dtx+99donhBetJKkXL9+3eQ+Q0kKEZW+BIVsDSfrHODpfHJ8t6OSLo9ls6Po+pROHdFK1ZP/k4IoT25r7t5BQgxgD/CAD8AH4APwgfV9IAo+gl0EGUxz0MzXNkpRpMPHLjk5m87P2UOGUZknCq2lyf/di/rIhEL00x7lkeRA4uN7nv1ifEf4cu20DNal6zv7wt0Zaivr5e6ljvR9jqTQ85aP10QcZQN9dyLF71hYgsFxV+60ipYh/ZvKKPbjK5fl2oh6754VP4mR0p2TwTroKuR5IqPb6TS3V/kt2epOEqlyL5/b7/4azRPCdbZOUoRuc/rMheIOCtcNFwsCXJ7LY+IgBqIdJPdlMiYdt4z//6cDlisHiGQU6rdbeU4u/7/UQq8d/Hya3xT49knSI+3BfTj2wAN4wAfgA/CBffGBZPDRBvNdQB8en7K7Au1OA+8QyDXTB8+RnDZi2GB+0R5Sr49KRTsmrY2Zel6+befIQtx3QRBEX2f+OybEl1Yd0yIZTFIS9bV9dotG6M0SFo7a8teIpPSK13Rc1R3PsvhE/4MV1e/iRCYz6RgwJBY2Tgt2ITo5pKt76c2xYqgr/o+ZErZHRIHqsDye33Q7pSewhQkataX+SFlaDsufzjU5T7QuVCQp6/xOSt5Fw5LcES9Za18mZNg5HafHWGAs4APwAfjAbn2gFHzINR73h4NARFKigH23Pos5Y/v4l+aJIkmZymMzvtPEjLT7nxK2P0Dj9w99AKbwAfgAfAA+sFsfKAUfU4kvTrYd8W6M3HHZRd8Pm6Qg9kzNyaV5ooqklARt0tlTnULebhcf4A/84QPwAfgAfKDkA7uKGTYZj0D2eggcNknBfJGaL0rzRBVJWc81h7dOdQp5cHb4AHwAPgAfgA9M1wdKwcfwiAAt9xkBkJTpPq+7mktL80QVSSkJ2uRDsyvgoBcPE3wAPgAfgA/AB4b5wK5ihk3GI5C9HgIgKcOepZM8B5XmiSqSsp5rDm99kgcHfcMDCx+AD8AH4AMn0QdKwcfwiAAt9xkBkBTMdXquK80TVSSlJGjIQzO2vCE2oA0QAAJAAAgAASAwPgK0xuMDDOAD8IFVPpCbfapISk4I8oEAEAACQAAIAAEgIBGgwAR/QEAiAJ+QaOCeECj5RBVJKQkaAvXY8siGf/rB3w4xBW2AABAAAkAACACBERHYxBo/onkQtQME4BM7AH3iKks+UUVSJt5Pc/b3182/+M83zV//4frUTYV9QAAIAAEgAARONAKl4ONEdxydyyIAn8hCc7AFJZ+oIiklQUPQHVPeX//hf5l//d/+rzn/pTH/6r/8BKIyZEDQBggAASAABIDASAiMucaPZBLE7BgB+MSOB2CC6ks+UUVSJtg3a9I/+eBvzb+8eMcSFCIp/+5v/mJ+98WP5rF/8Ic1TKZfal2Y5RoSSk2Xi5mZN8dhleXCzBY5jWTP3OgmoQCkgAAQAAJAAAhMA4Fk8EHr3GxmP9EamDI7V39i+bSmV/Ur1dcDyEv6xFj9Pm7MfGtxUiYm26oNYwG3Wzkln6giKSVBQ7o4hrxXP/zf5tx/vW1+99//YknKv/2bv5gPrt4zf/fv/Ucze+L8ELPaNpKkZJxxDekmQUhokstyFLMBG9axH22BABAAAkAACBQQiNf42nU1V39i+ceNafz7RazVBZcofkm61G56ZeuO87rtp4fIUIvieaKTVEVSumbTufurt6+af/af/o8lJv/hfziC8ujf/70lKJMmKZZty50aOemm8IVDp1BBHhAAAkAACEwTgSj4UC/njpt5fKJAdiVXf2r50mZzbJo5Tj0EkIhE5BOibL9u143J1m2/X2iVrC35RBVJKQkqGZArG0PeP/733xgiKq9+9L35/ZX75vSZC56g9CEpzVwcu6KJb94YdwiLSQNdu21cfxzLkgzOZ7LROt2SthxdGe2M0EQcbwPTRCZ2TsSkK7eNvb5gJ0U7t0onbcuNAvKBABAAAkAACIyPgF7jI1Ji173GroX+6JdYh9P1l3ZN9fXJ7Hb93FX9EDlajzkmCEuQSv13syp+ScU6TeqIoIuhOLZyp1CULBELzZtGHJlv6yXlGgrafAw3k2Mp8kN5cmSlDTk9lM/x46xwzF/KPbn3ep6QPa0iKbLhVO7/+Uf/0/yj331tnn37akBO+hAU1wdyFppQ+Mo9k2m6l29GVHq5aN8GUf6sIzo0cc4UCRIOLyfU9FEvqSd3T/YWyrxt3C9cgQAQAAJAAAhsHgEdfMg1z2pvyYVbw+J1OFd/avkSSVrLAwIlC3GfOO4l4xcCSKbpXgTxNqZqCaD3HQlq3JaP0JPPzHwcV5Ab6HcE2I2na5OWV7bBv2yW9ms9UsSB3et5Qna/iqSUBEmhfe9ZXu1Vy/+H/+ZqRFJ0nWLaOo7Y1bCVySH5bYh0fM2yWzZsPVfVi5xQlRMrtzs3anu4tce9IWByJNvKezJWpAXT5zcM/gEpgoBCIAAEgAAQAALjIcBrO0vMkQtbnliHc/Wnlu/6597sg6DwaKev2ieC+MU5gngpLGIbXdbGOiHeor6Pr9gOUSZjpoxcHz8xSSrKYx107aknqCfbH9597BMdBlUkpWs2vbu/evsrv5NSbV1icnSOViIpXCa1Seek/FXplpzQ8TA+ZmYfPJYtyYuUJe+VnqC9tA33QAAIAAEgAAS2h0AUfNBay6+i7fs+8Z2U1Dqcqz+1fHwPpbdTRT5RjJMKsU6r0e2Q8EtmUb9IKkQ9K0ekczFUUZ7svpBV1Tcp47DuY5/o+l9FUkqCOpH978aW93dODfnfvMihiBTwle2Xael0VE7p1JZuqh7vhHA7me6+r+LfBtDkGxAWri9luzc2fq63k7usl7KN+4UrEAACQAAIAIHNIxCt8UEAKNc0uk+sw7n6U8tXpGnzyO6vhsgnLMFjkkHhFR2Tl/EM31Ofpc90GHQ7a7Kc7ju5jsywLFlPy3XtfEzm1ZTk+UrKxlV62B7Z/vDuY5/oMKgiKV2zk3MnvzhvnZgJgiIt/svszAzsJKm/+FRySMJMl/PRMemojoDYrcb5wiz8/xKi2toHmY+aLcT2KMvUtp2cMUNPgAAQAAJAYPoIJIMPsXa55dSteRwUhuswB61uPePl1/Y8ktPisYN8FwCLNTf5EnP647UNC1f5xGwh4xkV98gYSoxz9+V2VV/UCb/orupJuQRCMr4LfTGUJ5GTsuU91QnTUVwpxRzQfdIn2v5XkZSSoCF4ji1viA1oAwSAABAAAkAACIyPANb48THdd4k784lg923fUTxZ9pd8ooqknCxY0BsgAASAABAAAkBgUwiUgo9N6YTcaSOwK5+wuxb+pMy0MTo060o+UUVSSoKGgDq2vCE2oA0QAAJAAAgAASAwPgJY48fHdN8lbs8nxNF5+5sk/B8S7TuCJ8/+kk9UkZSTBw16BASAABAAAkAACGwCgVLwsQl9kDl9BOAT0x+jbVtY8okqklISNKRTY8sbYgPaAAEgAASAABAAAuMjgDV+fEz3XSJ8Yt9HcHz7Sz5RRVLGNw0SgQAQAAJAAAgAgZOIQCn4OIn9RZ9WIwCfWI3RodUo+UQVSSkJGgLqOvKuLR8aohJtgAAQAAJAAAgAgS0gQGs8PsAAPgAfWOUDuemoiqTkhGw7nwjKz9deN5fe+sW2VUMfEAACQAAIAAEg0AMBCkzwBwQkAvAJiQbuCYGST1SRlJKgIVAPkUcE5c61N8ydKy+Y25ePQFSGAI82QAAIAAEgAAQ2jMCQNX7DJkH8jhGAT+x4ACaovuQTVSRl132zOyjfvW5+uvKi+fHykfnh4ilz48Ij5rXnHghM++PzfwrSSAABIAAEgAAQAALbRaAUfGzXEmibCgLwiamMxHTsKPlEFUkpCRrS3Rp57ojXG56g3Lp42ty48HCSoNx9/64BURkyImgDBIAAEAACQGAcBGrW+HE0QsrUEYBPTH2Etm9fySeqSMr2TXca+Tsod75yR7xuXTxlbmZ2UIig3H3rnvnm5W/Nb3752w2ZvDQL+nGgxVLJp/y5aY5VNpJAAAgAASAABA4MgWTwsVyYmf1xvZmZ91gs7S+Fp+rn5Gw6vx3D42ZuZvIXzHN61Zjbdm1/4hiCKmfiiOPGzNeOL0j2Jn/UMPwBxShEWvH9AwXVBJKZsbBjJHAUYz9r8ZV+y/5O17TPd+OSb9e4uJN9ZzYzDl9qm4pHHXzO33Jx6bFpFo3ZdcianCfa0a8iKSVBfbzpk08/M+fOnct+qDz3987ZB83ty8/YI14/fP643UF5qXnT8Ofqi1+b7RAUstA57nzOTsJW5xyay0vXddqW5KIMCAABIAAEgMD2EYhjBlrnOLjrseYdN6bx7wJl/ZycTeczhqRnJkhKTi/Xb6+WaKzqP8nKBZVKXpDs066nnYHcmsTSLHm8gr52MmKf6Mq6uz596Wr3uxsiM9dG4Kj7GfgsWZaTIa0W8ny2bqfTXNHlz+cpn6GymZkl/MmSl0VjSUqzyJEn1rHZa8knqkjKumYSQbl//372Q+WlPyIqNz9+2NCV/4ik8N8HT3644R0U1tQ6y7Ixc/kmpZczsgx9zTmgroc0EAACQAAIAIHpIxAFH/TGWbxep0Ap/WY51Td6S98GYjk5m85vzSK7F41Y/3N6dTcooPUxg+hPkD80FujTjuqsIkna6KFpqauTEflEVyTu+vRFVO91O0Rmro3oG429H9OUITkZsq6Q57N1O53mii5/sUg8S9YvF3nSS+V+R4blbf9a8okqklIS1KdbmqQ89qtfB4RlFUkhHZKgUFqSFErXH/FqB54IR7uN5iZNt23pJ9DAETtnoa05X0eTFMuwicXShyaGnEySx/Xy23Z9MEYdIAAEgAAQAAJTQEDHDBEpsUFUY5q5WEeDtVb2gtZJF2Cn5SzNpvOtNbSuE9ESxCKnV1rP991xHvHmW8jKv3nv4g7TxhJ8jGix7BtDMIaZ+lHMQla3ekWM5Lo/Lx/bs2PL2yrc+9R/N+vionJfnA0UiLtYqrXJn1PS6T4y2aZcXCb67vVwG9InyZ7wX67ir9o2XyBupDzO1u10WtfTMqhf5GOFdpZcUT3uC8vc7lXPE1J7FUmRDYfcEwm5e++e/xBJkek+JEXr1SSFyp99+6quVkjTAIptW/uQ8uTBg85XFiMHvc89PeeLlsywLL6mZHIerkAACAABIAAE9hMBHXzkg3leD/ka91e+EMzJ2XS+IwdtfCCIRU5v1AsK3O3RG+qneCEZBPRUxjGIlCDyg/pcR5RzVnSlOhyQ6voqHcQsIkayfRBBuU2zTOJuLXkRO2bSDO0TFBvJ3TVXV9liiZLQycTJkwdZX5EOr1zW8ZntDZVRH/jK5bk2up7Tmd6VyMlgHXTV8jhP+gHVES+zE+NIz4iH3ftnH/3Slu3fRz4hTKgiKSVBQmb2lknK02feM/pDZIVJCuvJXaUCTVKIoJz/0pinXvlCVivcxwMYDHT7QPqBt5JUG/+QifzgjUTrWCykj8yCxSgCAkAACAABIDB1BHgNZzuLwXxyXaSWcdCZk7PVfB8EusC8O1HhXkpGgbeNCbpgnnrGxCuIOaIAnNGL44tAZ7Ydt7ca8yQlG7MIvVbUqnSrz46nDLJdvvYJuyMVfaF8lY5CeQJnp1m3ae3kS9L/cm0oPxxLK6bFkEO9XnptpZQ8rVunveEdqSX97dGzzqdy7bj97q+RTwiTqkiKaDfolkjIjRt/9h/aSZFpJik1wiVJYYLy6kff292U2RPne4jSA+gmRO9kvRyX2whZ2QelncCic4CibQ+rUQUIAAEgAASAwJQRiIIPWk/94qqC++RaS2trHOjqt++enOTkj5If/+9K9ogSBYU5+XJwqE703QUXO0hM/PEqv0vAQuIYgfrdvb2Py7lld6U6HFyr+tmYRdWLyJAuF9rkm/02O/KJNr/cF62jkO7dj85Oe0fj0zsuI/2MYyjH9kP4eH48ZbuUvEIfZdNgPNrnJfi+tJYTNJ5EIucTZFwVSSkJ6tNTIiHXr1/3HyIpMj2UpBBRGUZQyGoaQLGNGDg4Ow5fuZeJQbftaMeEJ1Qll5tafeTcPWT6NrgBAkAACAABILBfCEQxQ7S+yvUysS6q4N/3Pidn0/neANrg6d5au90ADloT8YFt52KCMH7l/46Z21LFUnvGqzPEE7Rsu66uk826tB5nX7g7k7In1a61a0mRDf/pei4/8gmubiHlL3/rtjrNL4bbxpZgMDaubHU/hGIfj5EexofKtV5uI+otG/GzEyndORksi/VIvZzHfUqlub2S35Ktrv+qnJtN6FryiSqSsm6fNEmRBIXuh5AUadPpMxcqdlC4pRtA94UsdyzLTSKhs1l27N+CpAfdvQkQTmUnTHGGkP67N/EFwVCm2/q1b2aCWYztxBUIAAEgAASAwP4gkAw+2iCqe2udX2vdmirWUPlCMZLT4rLpfIZfkhTKy+nl+nTVMUEbU/h+2jTFF6k+i7hD6OLf5XAmtO2yMQTJ6IJhOhIUxBzaPitH6LV9KaRV+5QZkU/06ovWGeI9W+j/wYrqdxiyHVF/bX/y/scvsS1GrTwX/JN8xjHUFe6K2VHpjmNZfal/pDwupzwRT1rC1PWJbOpskfWoP2xbX/2sczfXyCeEGVUkpSRIyMzervM7KVmhqqDfES/ZSDuCLMM9EAACQAAIAAEgMASBdWOGITrRZtoIwCemPT67sK7kE1UkZRfGb14nSMrmMYYGIAAEgAAQODQESsHHoWGx3f5SXBO+dZc7Ltu1JdR22D4x3XEJR2m7qZJPVJGUkqAhXRpb3hAb8mcOh0lDKyAABIAAEAACQCD1mxhA5dARmEbcd+ijMK3+l3yiiqRMq1uwBggAASAABIAAEJgqAqXgY6o2w67NIgCf2Cy++yi95BNVJKUkaAgwY8sbYgPaAAEgAASAABAAAuMjgDV+fEz3XSJ8Yt9HcHz7Sz5RRVLGNw0SgQAQAAJAAAgAgZOIQCn4OIn9RZ9WIwCfWI3RodUo+UQVSSkJGgLqOvKuLR8aohJtgAAQAAJAAAgAgS0gQGs8PsAAPgAfWOUDuemoiqTkhGw7nwjKz9deN5fe+sW2VUMfEAACQAAIAAEg0AMBCkzwBwQkAvAJiQbuCYGST1SRlJKgIVAPkUcE5c61N8ydKy+Y25ePQFSGAI82QAAIAAEgAAQ2jMCQNX7DJkH8jhGAT+x4ACaovuQTVSRl132zOyjfvW5+uvKi+fHykfnh4ilz48Ij5rXnHghM++PzfwrSSAABIAAEgAAQAALbRaAUfGzXEmibCgLwiamMxHTsKPlEFUkpCRrS3Rp57ojXG56g3Lp42ty48HCSoNx9/64BURkyImgDBIAAEAACQGAcBGrW+HE0QsrUEYBPTH2Etm9fySeqSMr2TXca+Tsod75yR7xuXTxlbmZ2UIig3H3rnvnm5W/Nb3752w2ZrH81dG6a45FUHTdmPhtR3khmQQwQAAJAAAgAgRoEksHHcmFm7a+hz3ssnMtF98vpQf2cnE3nEwBWx8IsJRg5vbKOMea4mfv+zxaBhLYmxReJGGCU2IBkK7uVfaMkU/i0gpM+MYrSTQjJjIVROIqxn7X4Sr9lf6dr4MPe5E5evl1jFu1zw/Kc+1DbmUn7Evtbwp+s7mPTLBozVvjqu1N5U/KJKpJSEtTHpk8+/cycO3cu+6Hy3N87Zx80ty8/Y494/fD543YH5aXmTcOfqy9+bbZDUMjC0HHtpDPf/UDnsEM+EAACQAAIAIFtIxDHDF0wptfRpG3HjWl8HC/X3ZycTecfm2ZOAeFCBfvatkxQaIkGkwTZRvY+ly/rpO77tKM6q/SnZPfNy+HTtY99oivr7vr0pavd726IzFwbgWMwppaFCp8ly3IypNVCns/W7XSaK7r8+Tzlc1RGJD8us3HrorEkpVnkyBPr2Oy15BNVJGVdM4mg3L9/P/uh8tIfEZWbHz9s6Mp/RFL474MnP9zwDgpr0s6i01wPVyAABIAAEAACh4lAFHzQG2exe0CBUvrNcgovCoDbYCsnZ9P53ixa8znYd4HpXLyopLfhopu+laGA1tcT/Qnyh8YTfdpJu/vU70yvu5N6wpaRT4TFbWoTtg2RmWsj+kc+58c01ZmcDFlXyPPZup1Oc0WXv1gkniX7PBChjkmKbU3ls4yvsvgtXEs+UUVSSoL69EOTlMd+9euAsKwiKaRDEhRKS5JC6fojXu3AL+mYldtWdpOmeyPgJ9DAEbWzyHTnMLztZycmv01HE5uTHUxiXr6U1U5+vq10JlUvYOtOfrgl2GeEUAcIAAEgAASAwDgI6JghIiU2iGrs7kR6rZV20JrniEFaztIepfJyqKmVP15+Z01ni8sThEMfBeoa2bvuOI8IHHuRFLnm6zWeyrpjcZIIhurZ7kx9uyvAcpiEtXpFjESxi30TH8RMUhPrkXnuXvuEaeOhLl5J2eZsoEDcxVWtTf6ckk7X4OPqer/xsRjZq+Vyfyhf4lPaicjJYFmsh+Vxvm6n07qetInK2CcL7Sy5onpaN8vezjX2iU5vFUnpmg27IxJy9949/yGSItN9SIrWrEkKlT/79lVdrZCmAZx1TNg+pDx58KDzlcWEg24fVs+knTzv8NrJlwv35qidPL1E/+ZFynayPJmJbGM7SYpop2SzDlyBABAAAkAACGwLAR3qR/2KAAAgAElEQVR85MiFW78oUKJ1LB0wUXDP62pOzqbzO9wSdooA36/ZXQN3R2uzfavt1nZPJoI1W6zlQXuRH9TnSqKcs6Ir1WF8dX2V5ljFjomIkWwfurFIfj+nMI7aJ5hIhqYqW1obePyDeMc2lPUV6fCCZR2f2d5QWcr/cm24PstxOtO7EjkZ3JauWh7n6RiPCSRd43EMdvDIH21c2ke/tGX795FPCBOqSEpJkJCZvWWS8vSZ94z+EFlhksJ6clepQJMUIijnvzTmqVe+kNUK9/EABgPdPpDhpENtUs5CapQ8MXHxmwI3MVE94WQByWkd07blOq4LnW1Kj9Tb6uwe6EL3UQQEgAAQAAJAYAMI8BrOonMkwpYn11oqiYPOnJxN53M/oqDSB4SuRrdOdy3ciYp4Pad1Oqyv13aWIfKTa7wo5ybRleqwDap+K9PHKRTj2MBH1ZOxhpWvyylT6gmN0D7BJ03CeEXLrEjbfnAfpW4tQ5aRyamjT7k2lJ/Q0WIYx4uSbCi9NpmSp3XrNMsR+aS/jSU7nxLl3GRi18gnhH1VJEW0G3RLJOTGjT/7D+2kyDSTlBrhkqQwQXn1o+/tbsrsifM9ROkBdBOid7IqxyV1Sl72gXHbpfRghhOraJ9om3c80a7tNclNM/sesKAKEAACQAAIAIE1EIiCD1pP/eLarYFWRXKtpfU4EeDl5Gw632NB620XpIZreBvwin76/vmXkSyofQMf1I3Xclc7zg/X+LictXRXabeqn4g30npVOx3z2EZST6ed7iKfaIvLfVmlU5T37kdo1ygkxZ7Qnwc+HsWESq1LpvASfbKVdJoFyfz2eaGjed7XZDm3mdY15xNkZRVJKQnq02UiIdevX/cfIikyPZSkEFEZRlDIahpAsXUZODiV0UTEV+5ladB1GaWFfBZBV9I1X5hFcB5Qtndt/fwV2JYiU/FkHk2eUj/ugQAQAAJAAAhsCIEoZgjWML3WJdZaRTq8mTk5m873BpDtHUmxAa4PCumlfGrNV+s5yWqJWXd0x2Zmvugs8fKGiJec6fKuJstmu3V9Z1+4o8FtZGyRaifLuQ3rCS2IfEIUd/HKKh2l+MeVre6HUOxjPNIr7dZ2cBtRb9mIn6BI6c7JYFl0FfJ8tm6n01xR5bc+1fVflXOzCV1LPlFFUtbtkyYpkqDQ/RCSIm06feZCxQ4Kt3QD6L6Q5Y5wOVIQOptl+X4SKg16osxOnOJ4WMc62v/O0P8fi62zigc+aCvyyXw/wfF/idiWy/zggeM+4woEgAAQAAJAYLMIJIMPsT6tWmv57bo8guSDr0hO25dN51s1tM7LYDb8IrncLQoQDtbz7nsevp82xiDZIl7wLzlFbCH6KAkOkSOLlY8xAu1RMBzV1/ZZOUKv77uMRXQ5VaK8EB+2JPKJXn1J6JDt7H8JrW3qMGQ4ov5ao1bFep0cwtb5n+wf3Ys6rIw7bLGQtvkCcSPlcbbus9IT2CLlU38k9loOy5/ONfIJYVoVSSkJEjKzt+v8TkpWqCrod8RLNpr+AEprcQ8EgAAQAAJAYB8QWDdm2Ic+wsY6BOATdXgdQu2ST1SRlJMJFkjKyRxX9AoIAAEgAAR2iUAp+NilXSdfd/zWXe647LL/h+0T0x2XqfpEFUkZ27nGljcMZJCUYbihFRAAAkAACACBPALTWOPz9qFk+wjAJ7aP+dQ1lnyiiqRMvaOwDwgAASAABIAAEJgGAqXgYxoWwoptIwCf2Dbi09dX8okqklISNASGseUNsQFtgAAQAAJAAAgAgfERwBo/Pqb7LhE+se8jOL79JZ+oIinjmwaJQAAIAAEgAASAwElEoBR8nMT+ok+rEYBPrMbo0GqUfKKKpJQEDQF1HXnXlg8NUYk2QAAIAAEgAASAwBYQoDUeH2AAH4APrPKB3HRURVJyQradTwTl52uvm0tv/WLbqqEPCAABIAAEgAAQ6IEABSb4AwISAfiERAP3hEDJJ6pISknQEKiHyCOCcufaG+bOlRfM7ctHICpDgEcbIAAEgAAQAAIbRmDIGr9hkyB+xwjAJ3Y8ABNUX/KJKpKy677ZHZTvXjc/XXnR/Hj5yPxw8ZS5ceER89pzDwSm/fH5PwVpJIAAEAACQAAIAIHtIlAKPrZrCbRNBQH4xFRGYjp2lHyiiqSUBA3pbo08d8TrDU9Qbl08bW5ceDhJUO6+f9eAqAwZEbQBAkAACAABIDAOAjVr/DgaIWXqCMAnpj5C27ev5BNVJGX7pjuN/B2UO1+5I163Lp4yNzM7KERQ7r51z3zz8rfmN7/87WZNXi7MbDbzn3lzvFl9kA4EgAAQAAJAYE8QSAYfYt3stWbm6u9L/p6M1bbMTPpErfLjxsxnc5MOuUo/0H1smkVjEKnVAr7Z+iWfqCIpJUF9uvDJp5+Zc+fOZT9Unvt75+yD5vblZ+wRrx8+f9zuoLzUvGn4c/XFr832CYp8SI5NM5+ZXpNurpPIBwJAAAgAASBwQhCIYwYKIBdmaftXCiYZgFz9fcnnfuDKCMQ+wSVjXdN+ddzMzWzRWJLSLBCrjYX2GHJKPlFFUtY1hgjK/fv3sx8qL/0RUbn58cOGrvxHJIX/Pnjyw+3soBhHSBZupmX1xlh2zxNwl407IAAEgAAQAAKHhkAUfNDuh1g4KXAsvtjL1d+X/EMb8B79jXyiR5u6KmmSYmW0u2/CBetEo/ZGECj5RBVJKQnqY7kmKY/96tcBYVlFUkiHJCiUliSF0vVHvFqHXtL2oTu65SbNBBEhB5835jhLRqiN211ZLmamexDUQ0PtbWGb33THxoIJ2+rh42RMflybxWJuZv6NVB/0UQcIAAEgAASAwPYQ0DFDREos2WjCUwi8zhp676dIjK2/3Jv87SG9P5q0T9AJlC5WMsaI8XcvfjkGkvUSMZWP3xqzSB4FW5oFxW/2JTPHU/uD20m2VPuE7GsVSZENh9wTCbl7757/EEmR6T4kRevVJIXKn337qq5WSJOzzxz5oFqWGLTHuNoJkRt74kF1rLNzCV8FsZFtlwszn3eTbTfxtrr5CaU2nnioh5Bk2AOYrk1AZlg9rkAACAABIAAEJoKADj66ta810K+TtK5R4MhXV56rvy/5ExmGSZmhfcKSEo6BLEdhMuJiHV8kYzPrJ3zcPqxHvjFLkpRJwQBjBAKRT4iyKpJSEiRkZm+ZpDx95j2jP0RWmKSwntxVKtAkhQjK+S+NeeqVL2S1wj05ODu7q+bJSDBhMgtnIpNi4t1OiiU7LZFZ/v9dj4Z2ajyLZ31at0gHuyjtmwT7tIo6hV6hCAgAASAABIDALhHgNZxtyJELW25f0nGA6lrk6u9LPvcb1w4B7ROmIs4KY7M2jopeGiNG6tDej7vYJzq7q0hK12zYHZGQGzf+7D+0kyLTTFJqpEuSwgTl1Y++t7spsyfO9xClHVrshojt5nBSDOt4JZZYMHlhwsLkhtILswweKK1bpANZXgO9Z4hIlSzFPRAAAkAACACBKSAQBR9+58RZF6yrCZKi37L7+jk5U8ufwiBMzIbIJ3JxViIGAkmZ2GCOZE7KJ1h0FUkpCWKBpSuRkOvXr/sPkRSZHkpSiKgMIyhkLQX94n960A+GJRULsyCCITtnJ1SZp+Twg6eOeS0WfGyLdfOuik7H8px6kBQ5DLgHAkAACACBaSIQxQzB+irXMrqn9ZSvbX9y9fclf5rDslOrIp8ga5JxFvmC2FnLjXkbw/GxMCKyOO610yGuVp70iVZKFUmp1qwaaJIiCQrdDyEpUsXpMxcqdlC4pZso3RfR3bEqdnZXw+2ayP+RhFvatzzid1LCdu2DJ4+S2YcsR0pIqrPF/9/ftn73pTFng6rjjcENEAACQAAIAIHpIJAMPtodE/qNMbdmujWWv2dpg0z5nc+oftu/fcmfznBMwpKkT7T/Y2oUZwUxUCF2Er4wb3JfnJ9E92FEAoG0T7iKVSSlJCihN8pa53dSImGZjH5HvGRjBP0SDdwDASAABIAAEBgDgXVjhjFsgIxpIQCfmNZ4TMGakk9UkZQpdGZ8G0BSxscUEoEAEAACQODQESgFH4eOzaH2Hz5xqCOf73fJJ6pISklQXn2+ZGx5eU2lEpCUEjooAwJAAAgAASAwBIFprPFDLEebTSEAn9gUsvsrt+QTVSRlfyGA5UAACAABIAAEgMA2ESgFH9u0A7qmgwB8YjpjMRVLSj5RRVJKgoZ0dmx5Q2xAGyAABIAAEAACQGB8BLDGj4/pvkuET+z7CI5vf8knqkjK+KZBIhAAAkAACAABIHASESgFHyexv+jTagTgE6sxOrQaJZ+oIiklQUNAXUfeteVDQ1SiDRAAAkAACAABILAFBGiNxwcYwAfgA6t8IDcdVZGUnJBt5xNB+fna6+bSW7/YtmroAwJAAAgAASAABHogQIEJ/oCARAA+IdHAPSFQ8okqklISNATqIfKIoNy59oa5c+UFc/vyEYjKEODRBggAASAABIDAhhEYssZv2CSI3zEC8IkdD8AE1Zd8ooqk7Lpvdgflu9fNT1deND9ePjI/XDxlblx4xLz23AOBaX98/k9BGgkgAASAABAAAkBguwiUgo/tWgJtU0EAPjGVkZiOHSWfqCIpJUFDulsjzx3xesMTlFsXT5sbFx5OEpS77981ICpDRgRtgAAQAAJAAAiMg0DNGj+ORkiZOgLwiamP0PbtK/lEFUnZvulOI38H5c5X7ojXrYunzM3MDgoRlLtv3TPfvPyt+c0vf7thk49NM5+Z2az9zBtzvGGNVvxxY+azuWm2omwbHYIOIAAEgAAQOGkIJIOP5cKvmfMei9hy0a2xQf2cnF3lt4N33MzNrBAL2HKOGRbLxJBnfmB6hHVfYunjltnMBLgmLBozK+kTtQqKWGTwszqOTbPYUpxW26cDrl/yiSqSUhLUB99PPv3MnDt3Lvuh8tzfO2cfNLcvP2OPeP3w+eN2B+Wl5k3Dn6svfm22SlDsQzIzwRxz3JgmNefkOhXllx6uqDIygAAQAAJAAAhMFoE4ZqA1bmHcMtljvQvWVFk/J2dX+TwEpH+WJyk2bljVf9lPltvnWtOupq7UPbRdJyP2ia5snLu0jZYcLhpLUprFdonZOP06uVJKPlFFUtaFiAjK/fv3sx8qL/0RUbn58cOGrvxHJIX/Pnjyw63uoAQEhY1Y65p+uNYSicZAAAgAASAABHaAQBR80C6HWDgpcOz/Fp9OLrQnCHJydpXfYkv9WTSNmed2Uoik+DLRnyB/aBxQ066mrnScoe06GZFPdEUj3RVsbHfZhAuOpBNi1kGg5BNVJKUkqI+BmqQ89qtfB4RlFUkhHZKgUFqSFErXH/FqHXpJR6jctrKbNN1RrsCZycFpggnehmR6but029SdnFZfo7e8Kb+rzxN5sD3rhciHMCevtSuwI3yDs1jMzcy/1cr0A9lAAAgAASAABAYgoGOGiJRYUtHYY9OerPA6G+mjtc6tYWk5S7OrfGsqrbW0RtPVE5GoE6Zb08WR7aCNXN9le5kfHjVfLKksjh9k6/BeyjLOZt+e44R1dYQaOaV9go7M+9CGKsnxD+IXWS9v/7xpzCJ5HH5pFnZcqF/cR7YK110ioH1C2lJFUmTDIfdEQu7eu+c/RFJkug9J0Xo1SaHyZ9++qqsV0u3DzZOKfSjSb2tocrEPUzChpEQ7mf7BkzJNq48L6YH0REE9eIFoWabvZ93bqZK85aJ9a+Vs8ItCoAcJIAAEgAAQAALrI6CDjxyJMHZdpMCR1qZ0AEnrL69ZOTm7yjeGAt82bijFB3Z9pnpuDeaXkTYw55jAYiAIjB8Gse6THF+fK4hyzspeZV1570iCxXltHWnl2ifCvhNHYTJCdvE9EynGRdoc1iMfmCVJStoe5O4egcgnhElVJKUkSMjM3jJJefrMe0Z/iKwwSWE9uatUoEkKEZTzXxrz1CtfyGqFe+nsrlr4kPCEySycHxbOT4i2pCQsD2Xyg0ZtpX5538q1kxq/IeF2sp68V/KsHdy2vdqJTbdJ9AFZQAAIAAEgAATWQIDXcBaRIxG2vF3rotjbEoCOoFDdnJxJ5OdISiYuIELQxQfUu9z6LPLbtZ1Jm8NXlLuMwr+ibi5OWFtHWr32iY6gUv1ynNXhpOznl8xWpShLm4DciSEQ+0RnYBVJ6ZoNuyMScuPGn/2HdlJkmklKjXRJUpigvPrR93Y3ZfbE+R6itEO7LU6eKHnS46sTGNaJlGQmIydT65Npea/JkHhTE0xiqo0sS9jhbNVtoh4gAwgAASAABIDAWghEwYd6Ox+sq0mSItc9YUpOzk7y6XiRehlI6SBwdjsUUV5LwMJdkdz6HOcTfvS/dKVjC4FXdCtkZeME12i4jkipzYh8QpDOwB8SdoGkpDHd99yUT3CfqkhKSRALLF2JhFy/ft1/iKTI9FCSQkRlGEEha+lhFW9p9INB6fnCLPQZxtSE6v8nEieTiY49o+q3sMXkYMGSaXmvJjVrV+VOiu6bHxylx+fjBggAASAABIDAOAhEMUOwvsp1iO7p9AFfW/2KdHircnJ2le8Na18uaoJiy6lvTChE/yzBkScvJC5ScDq/C+zT5VJCdy/r0r2IgbpK/m6YDt88uIl8gkpp3KI4y9m1Oo4K6zlSxbFSoBqJiSKQ9InW1iqSsm7/NEmRBIXuh5AUadPpMxcqdlC4pXtY3ZfI3dsQ/1DYKm7XJHzT0ba1E6J4gyInpqBMPjBOX/ffw4dpelNg//9ya0Sr276VIaLEcmQbeU92qXRgB393RdVhKHAFAkAACAABIDASAsngo33B1+0AuHWOjy7ZILNdS13AKdZYGUxHclqjd5XPmNmAO/NbHHo91v20aVqfU30W67boY/edVvd9ji5+YINSVyGLirVdFH+srSOl15ikTyR3lLRdHP+QXGW/sDX/xfm0PcjdPQJpn3B2VZGUkqA+3Vznd1L6yKc6/Y54SWnK2WUR7oEAEAACQAAIAIFBCKwbMwxSikaTRgA+Menh2YlxJZ+oIik7sX7jSkFSNg4xFAABIAAEgMDBIVAKPg4OjK12mOKacDdG7rhs1RSlDD6hAEEys7vmgKkiKSfTuUBS8IwAASAABIAAEBgbgZMZM4yN0mHJg08c1nj36W3JJ6pISh9lqAMEgAAQAAJAAAgAgVLwAXQOEwH4xGGOe6nXJZ+oIiklQSUDUAYEgAAQAAJAAAgcFgKIGQ5rvPv0Fj7RB6XDqlPyiSqScliwobdAAAgAASAABIDAUARKwcdQmWi33wjAJ/Z7/DZhfcknqkhKSdAqw68tH1pVBeVAAAgAASAABIDACUGAYgZ8gAF8AD6wygdyU14VSckJWZVPBOXna6+bS2/9YlXVZPmtW7cMPsAAPgAfgA/AB+AD++MDFJjgDwhIBMgn8AzvzzO8jbEqzRNVJKUkSDqhvCeCcufaG+bOlRfM7ctHg4jKNkCCDjw08AH4AHwAPgAfGM8HhsQMMn7A/clDACRlvOfrpMxVpXmiiqTUPi52B+W7181PV140P14+Mj9cPGVuXHjEvPbcA4GoPz7/pyCtEydlINAPPJzwAfgAfAA+cCg+UAo+9DqP9GEgAJKC+U/Pf6V5ooqklATpx8sd8XrDE5RbF0+bGxceThKUu+/fNSWiojuENJwcPgAfgA/AB+AD0/aBmphBxxBIn0wEQFKm/czuYk4tzRNVJKXvI8PfQbnzlTvideviKXMzs4NCBOXuW/fMNy9/a37zy98mVYSgvWuOZo+as5fUQF86ax5N5Vd9n4VkH5l3q9ooO4ptL5mzj3a/Anv0bk1b1A39AHgAD/gAfAA+MGUfSAYfy4WZtb+GPm+Ok2u+zFwuujUzqJ+Ts+n81rjjZm5m88b4HuT0ys4YY2w7/jX4xVKVUjLzA9PHjZnP5qYHZAmZnEWyFyallWusdz02zbwbr1T39oukZOLNWypWfPfI+/SsjSHfPepwYH+n66NnLyW+k9PJy7c7a47Yb9qriyGp7czMjt5NyL1lLp191MzWjo03O88m54nWEYsk5ZNPPzPnzp3Lfqg89/fO2QfN7cvP2CNeP3z+uN1Beal50/Dn6otfmz4EheSHk3DOaVaB2Kdd5yi3rBMmyFCRhKy24V0mJpZUbZIQrbIF5aFfAQ/gAR+AD8AHxvSBOPiQQXImGJdBxXFjGh9Ry/o5OZvOZ+NIz0yQlJxert9eLdFgkkBtUqQjl69kRck+7XraGcnum7E0Sx6voK9d+34kpU+8VvusDpGZayNiRR3LXTprznKcZ+PFnAxpv5DnY0zdTqe5vct/9NFUvEplRJZSZdx+99d4nuj8pUhSiKDcvXcv+6Hy0h8RlZsfP2zoyn9EUvjvgyc/LO6gcL1w0swN1Cqg+7SjOkwc+tRfpbNULnWV6qEsHH/gATzgA/AB+MA++EAUfNBug3i9TrsKwe4IL/rJK72lb4P6nJxN57d2kd2LpjFz3knJ6dX9oMCd2xjRnyC/D9nQgindp92mSYq0S+rq8k8cSaFdlEfPmkueXOi5qU8smYoHdTudZj0u/+jo0XiXhmw7OkqfPsray3K3d43mic5dzEZJCumRBIXSkqRQOnfES9jYcydFDqA+VkVlYustsy3mdk+IpGTqW8bMchSZeZeOm7ky2oJzW2wundzes86T3p7bh8UHNm7vAQbWwBo+AB/YRx/QwUdESmxw39gjQp6sUJ4P5GUk0AW9aTlLe5TKy6GmLXkYq761hggFES1BLHLypfV83x1fE7soQlaebEgSoo9VURnHJrOACLJed2UMM/XJDi9H7fgsuzLX/bk/4hRgzgoVcePsmKT0ide6QNwdp5LxHs0NOt1HJs8prq6P0wLSoeVyG8qXMWDuGFfKNpYhr1Ie52vdOq3raRnUL9pBybXj9ru/6nmCfYWuGycpUhnda5JCec++fVVXC9Lh5JwDXOQnCYAozzJIqiMdT26RqfbvHrWslfJnHZMm3fLcoU2zTEFeskRp9w4T4g17gAd8AD4AH4AP1PuADj7ywbwMnjk4DsIAQ8E9B8M5OZvON5ndj5zesActabJHvFqSwLtKQUBPZYLAeCEiP6jPFUQ5Z0VXqsP46voqvVy0eFO+ONpGumfdWFgi6GWK79xw35QNEUnpFa+5OMsTiYiUyPhMkQ4f78k62pepjOI0vnJ5ro2u15Gi+LvGORmsg65aHufpGFQQ0USsSt9n8frppbrd4emjX9qy/Xs9T0iXWUlSbtz4s3n6zHvRh/L5uBcryF2lQk1SiKCc/9KYp175QlYL7sPFIQe4yG93PDqHTg14aiCkowh55OTBLkrrKJZoqHrFh0fotORFOqAo8w8V8sKxBx7AAz4AH4AP7IsPcEzAC3oxmG+D3zi2dbsGTFBIVk7OVvPF7kdOL/fbXu0uBRMEV8LEi65dvxVZ8EJEfrvjITHJ78B4Ae2RMLZByKMqwS5KG+NYo1S96FiZLm/12fGMyRb5ROC/veK1ijjLyuteDHe6tAw1j7QvmH2Qb+OwXBvKT+ho+9JPhtSfkqd16zS3F/mkvz161hEWUT7R2FLPE9Jje5EUIiSpD5MUKXDVvSQpTFBe/eh7u5sye+J8snnnZDQoOcDjfD5y5RwmLg/lsmx2PFW/t+Ordll7b5nOidjZcI3HBJgAE/gAfAA+sI8+EAUfagcgCO6TJEV8b0NGBzk5G81vwiNVfCyKjqbl9Gqbo2Ns7bGtjqEUvlsSkwHCj3Y1XPO4XKp391SnRFK4TLbUclelu7Yh+XL5EUlpA+dyvLYqrhLlvWM1NaeMQVJutadlgpMywrYsSaA6HHuyXbqdTqfqtUe86OsH/nsyuXbcfvfXaJ7oXGj1ca/r16+b3GcoSSGi0pegkK3h5JwDPJ1Pju92VNLlsWx2FF2f0qlzh6l6codElL/7rvjvjUV+1nF37zwhPrAHeMAH4APwAfhAPx+Igo9gN0EGuxw887WNUlTw72OXnJxN53sD2p0HJh05vbK+3YFgQiH6Z8mOJAcSFykgnd8RvXS5lOB2W1iXrk9pcYzLN0zVkzskony5FP+9scj3sozJkRR6pvLxmo6X3PEqv2MRnEzZ8nGvd8+Kn8RI6da2p54dqsOxJ5frdjqdqdeSre4kUa4dt9/9NZonhL+s3EnJERTKH0JShG5z+syF4g4K1w0XBAJcnstj4iAGoh0kesPA/2c1yfD//3TAcuUAkYzOUaL67Vaek8v/L7XQa8lGIa3a+wcMJEURUTkmuA/9H3gAD/gAfGA/fCAZfBDxaNdwtwMQHueyuwNt8M87BVyfrv6IUySnjRg2nc+BCRETJimUl9PL9elqyYyIX3Q/bdqRhbjPIugXumZ+Z4RMkMe0pGK+JxlMUhL1tX21x71U+2CDqDUhIim94jUdV90yt2S76H+wovodzhxrRTGdjb1CYmF3dIJdiE4OjUn30ptjxVBX/HslCdujmI/qsDx+tnU7pSewRb4Yp/5IWVoOy5/ONTlPtP5SJCnr/E4KPxKrrrkjXrIdFqTpOBPGAmMBH4APwAfgA318oBR8yDUe94eDQERSooAdz1afZ+sk1SnNE0WSMpXHZvzBiBmp3HEZXx8eOmAKH4APwAfgA4flA6XgYyrxxcm0I96NkTsuu+zzYZMUxJ6pNaA0T1SRlJKgTTp9qlPIO6zFDuON8YYPwAfgA/vlA7uKGTYZj0D2eggcNknZr+d3W/NtaZ6oIinruebw1tsCCnrwAMEH4APwAfgAfGAcHygFH8MjArTcZwRAUsZ5tk7SHFWaJ6pISknQJh+akzQY6AseUPgAfAA+AB84BB/YVcywyXgEstdDACQFc5+e+0rzRBVJWc81h7fWHUIaTg4fgA/AB+AD8IFp+0Ap+BgeEaDlPiMAkjLtZ3YXc2ppnqgiKSVBQx6aseUNsQFtgAAQAAJAAAgAgfERoDUeH2AAH4APrIWhXmQAACAASURBVPKB3OxTRVJyQpAPBIAAEAACQAAIAAGJAAUm+AMCEgH4hEQD94RAySeqSEpJ0BCox5ZHNvzTD/52iCloAwSAABAAAkAACIyIwCbW+BHNg6gdIACf2AHoE1dZ8okqkjLxfpqzv79u/sV/vmn++g/Xp24q7AMCQAAIAAEgcKIRKAUfJ7rj6FwWAfhEFpqDLSj5RBVJKQkagu6Y8v76D//L/Ov/9n/N+S+N+Vf/5ScQlSEDgjZAAAgAASAABEZCYMw1fiSTIGbHCMAndjwAE1Rf8okqkjLBvlmT/skHf2v+5cU7lqAQSfl3f/MX87svfjSP/YM/rGEy/WLrwizXkFBqulzMzLw5DqssF2a2yGkke+ZGNwkFIAUEgAAQAAJAYBoIJIMPWudmM/uJ1sCU2bn6k8o/Ns3c9Yn6ll3GU/07sLykT4yFwXFj5luLkzIx2VZtGAu43cop+UQVSSkJGtLFMeS9+uH/Nuf+623zu//+F0tS/u3f/MV8cPWe+bt/7z+a2RPnh5jVtpEkJeOMa0g3CUJCxCU/uW3AhnXsR1sgAASAABAAAgUE4jW+dl3N1Z9e/pLfL9ogdXMvOAtw70VR7BN7YXbCyHVjsnXbJ0za06yST1SRlCn2/6/evmr+2X/6P5aY/If/4QjKo3//95agTJqkRBOZnHRTSMOhU6ggDwgAASAABKaJQBR8qJdzx808PlEgu5KrP7V8abNZtZYHlQ8uEfnE3iKwbky2bvu9BS4yvOQTVSSlJCjS2iNjDHn/+N9/Y4iovPrR9+b3V+6b02cueILSh6TQFq3fcqaJb94YdwiLJxq6dtu4/jiWJRmcz29NWqdb0pajK6OdEZqI4+1ttz3sd07EpEs7Klzf67MTHx/30s6t0knbegwIqgABIAAEgAAQGAkBvcZHpMSue409KpVah9P1l3ZN9fXJ1nb93FX9AC6xlgf5SFgEtE+YILahKjKeae+b1BHB1BE72dZQ8OVjsXnTiCPzJblhu5k89p+VJwdX2pDTQ/mpOE/KOZz72Ce6vleRlK7ZdO7++Uf/0/yj331tnn37akBO+hAU1wtyFiIZfOW+yTTdM0GgcpVeLlqiQ/mzjujQZDVTJEg4vJxQ00e9pJ7cvbZH1nOTdzCZc/dwBQJAAAgAASCwQQR08CHXPKvWB/S0bsXrcK7+1PKpL2STfbno3zxuENg9Fq19IoqngviK/GLWfVfXxlTtS2HvOxIMGf+4tjwcbnw4jivIDfTLGKokr2yDf9ks7dd6pIgDu499ogOgiqSUBHUi+9+xvNqr1vAP/83ViKToOsW0dRz9fRBySLVDwt9zF2w63PGgNvwQkMYVaZJjd27ojYBo19rjZHO+lCXvlZ6sbUUEUAgEgAAQAAJAYFQEeG1noTlyYcsT63Cu/tTyuX9dP3jdDkqQSP5wXyGeKcVQbawTvoQVsnx8xbCLsh5yfWzHJKkoj3XQtaeeoJ5sf3j3ep6QCFSRFNlwavd/9fZXfiel2rbE5OgcrURSuExqk85J+avSLTmh42F8zMw+eCxbkhcpS94rPUF7aRvugQAQAAJAAAhsD4Eo+KC1ll9tt7sPPshMrcO5+lPLV5CmT0aoSgeajHyiGCcVYp0WP7dDwi+ZRf0iqRD1rByRzsVQRXlyMIWsqr5JGYd1H/tE1/8qklIS1Insfze2vL9zasj/5kUORaSAr2y/TEuno3JKi2Nc3KTokNwufMPCD1gwUQeEhetLG9xZTD/X28ld1kvZ5o3EDRAAAkAACACBjSMQrfFBACjXNLpPrMO5+lPLX1IEwX+yX5yHKyMQ+YRZFc9wbEMS0th2O2uynO6ZvPBxPJYl62m5rp2PydjwNu7juMvFbizPV1I2rtKTai9lHcZ97BNdv6tIStfs5NzJL85bp2OCYB2SdzToe3ntl5w6D/VfyOrOoZYckjDT5fwFLemo7oG1MucLs/DHwFTb9q2T070Ij5nZCRxfyjo5XoqeAAEgAAT2D4Fk8CHWLrecujWPg8JwHaZls/vSNC+/Fokp5as1N7Bz/4Ztoxav8onZQsYzKu6RMZQY/+7L7aq+qJP84jwf4ZdyqfdqPP3uX1aehEzaIO+pTpiO4kop5oDukz7R9r+KpJQEDcFzbHlDbEAbIAAEgAAQAAJAYHwEsMaPj+m+S9yZTwS7b/uO4smyv+QTVSTlZMGC3gABIAAEgAAQAAKbQqAUfGxKJ+ROG4Fd+YTdtfAnZaaN0aFZV/KJKpJSEjQE1LHlDbEBbYAAEAACQAAIAIHxEcAaPz6m+y5xez4hjs7b3yTpju/vO4Ynzf6ST1SRlJMGDPoDBIAAEAACQAAIbAaBUvCxGY2QOnUE4BNTH6Ht21fyiSqSUhI0pFtjyxtiA9oAASAABIAAEAAC4yOANX58TPddInxi30dwfPtLPlFFUsY3DRKBABAAAkAACACBk4hAKfg4if1Fn1YjAJ9YjdGh1Sj5RBVJKQkaAuo68q4tHxqiEm2AABAAAkAACACBLSBAazw+wAA+AB9Y5QO56aiKpOSEbDufCMrP1143l976xbZVQx8QAAJAAAgAASDQAwEKTPAHBCQC8AmJBu4JgZJPVJGUkqAhUA+RRwTlzrU3zJ0rL5jbl49AVIYAjzZAAAgAASAABDaMwJA1fsMmQfyOEYBP7HgAJqi+5BNVJGXXfbM7KN+9bn668qL58fKR+eHiKXPjwiPmteceCEz74/N/CtJIAAEgAASAABAAAttFoBR8bNcSaJsKAvCJqYzEdOwo+UQVSSkJGtLdGnnuiNcbnqDcunja3LjwcJKg3H3/rgFRGTIiaAMEgAAQAAJAYBwEatb4cTRCytQRgE9MfYS2b1/JJ6pIyvZNdxr5Oyh3vnJHvG5dPGVuZnZQiKDcfeue+eblb81vfvnbDZm8NAv6caDFUsmn/LlpjlU2kkAACAABIAAEDgyBZPCxXJiZ/XG9mZn3WCztL4Wn6ufk7Crfjq36AUH8wnnk8UmfiGpNJSMX01G++HFI4XOzNl/6Lfs7XdM+38nLt2tc3Nk+CyTLhaDUNhWPOgyPm7mZZePSY9MsGrPrkLXkE1UkpSSoj0t98uln5ty5c9kPlef+3jn7oLl9+Rl7xOuHzx+3OygvNW8a/lx98WuzHYJCFjrHnc/ZSdhql99j3uUG4rpOWyEGt0AACAABIAAEJoBAHDPQOsfBXY8177gxjX8XKOvn5Owq3xhz3Ji5Dxxb8AP7JzAgEzAh9omUUXKsU+VD8obIzLURfmbHnX3a+UHns2RnTobsg5Dns3U7neaKLn8+T70gp7JZkqRY8rJoLElpFjnyxDo2ey35RBVJWddMIij379/Pfqi89EdE5ebHDxu68h+RFP774MkPN7yDwppaZ1k2Zh68Kck5EbcrXddpW5KLMiAABIAAEAAC20cgCj7ojbM4gUCBUvrNcspW2qVoA7GcnF3lG7eDIrqW6gDyVvxPTh1Am4iHhsjMtaH8lpiQzwVxYNcLd5eTIesJeT5bt9NprujyF4vEs2Sfh0X+hA+Va2LNYrd4jeYJobuKpJQECZnZW01SHvvVrwPCsoqkkGBJUCgtSQql6494tQNPhCPYUnaTjp9AA0fsnIW25nwdzZjbNytuq48cOieT5BHbbT+Y6bI+hAIgAASAABDYDwR0zBCREhtENaaZi3U0WGtlP2mddIFhWs7S7Crf7aKIt+nSbNwHCGifMG1cxPHPYpmKh1zMRYG4O07l0t2pFZ12sVZZJpuVi8uoXMvlNpTP4033wn+5ir/mZPgKrR6Wx/m6nU7relQuZVC/iNQX2llyRfVkO5a7vWvsE53uKpLSNRt2RyTk7r17/kMkRab7kBStWZMUKn/27au6WiFNAzjrmLAlFrxtxoPOVxYjB73PPfngoiUzLIuvKZmchysQAAJAAAgAgf1EQAcfORLhgkEKlPS62PVbvhDMydlVviUpxbfpXT8O/U77BMVGcnfN4SPjKsqhtCQCqXKO2xTp8IDrNr5AkASqIwP2XBtdz+kkUhS/Y87JSOnXedwnyic54mW2t7OTT8+I10+xrPXJrlxKn9J95BPCuCqSUhIkZGZvmaQ8feY9oz9EVpiksJ7cVSrQJIUIyvkvjXnqlS9ktcJ9PIDBQNMDFDmeauMfMpEf7KKoHZI+MgsWowgIAAEgAASAwNQR4DWc7cyRCFueXBepJA46c3J2lY+dFB7h1VftE/xdnu5ECskQsZQVWZG2sZckGmyTlsH57TXpf7k2lJ/Q0cZ9nigkbVd6fR0tT+vWaZYj8j0xoffiTFhEOTeZ2DXyCWFfFUkR7QbdEgm5cePP/kM7KTLNJKVGuCQpTFBe/eh7u5sye+J8D1F6AN2E6J2sl+NyGyEr+6DQ89eD+PSwHFWAABAAAkAACEwVgSj4oLXPL670XXNxjj65LtLaKt8mtz3NydlVPr6T0tsFI59oW5IvdC+ERSxlyyvS2dhLy1AmJ/0v14byNalw8mw/hI/HhEvp9f3T8rRunWY5Mr99XoLvS8tybjOta84nyMoqklIS1KfLREKuX7/uP0RSZHooSSGiMoygkNU0gGIbMXBwKiPH4Sv3MjHoth3tmPCEquRyUy+rh0zfBjdAAAgAASAABPYLgShmiNZXuV4m1lpFOnzvc3J2lU+GpYJc/O9efsj4JvIJLrD/MRaTVh1j6TS/GG4bW+zZl1xZuDND9bQMobg6LhPx27IRPzuR0l3SyzYIeZwV2ZuTo/JbP+z6r8q9/OnclHyiiqSs2yVNUiRBofshJEXadPrMhYodFG7pBtB9Icsdy3IkOHQ2y479mdP0oLs3AfygdP8lIX95a0b/3Zv4gmAo023P2boBC2c7cQUCQAAIAAEgsD8IJIOPNojq3prn11q3pspz+OKFYiSnxWVX+aTev6xsbfYxw/6M2aYtjXxCjBf/xgjZQMeVungoEXPJdgv9P1hR/c5vOKQKZXJP8/7HL7F9DOdfaJN83vkIdcmdQqchYTur9lcpjzN1O6UnsEXEnXZXj20jWVoOy5/ONfIJYVoVSSkJEjKzt+v8TkpWqCrod8RLNpr+AEprcQ8EgAAQAAJAYB8QWDdm2Ic+wsY6BOATdXgdQu2ST1SRlJMJFkjKyRxX9AoIAAEgAAR2iUAp+NilXdC9OwQO2yfi3RC5e7S7Udmt5pJPVJGUkqAhXRxb3hAb9mErbFi/0AoIAAEgAASAwO4QmMYav7v+Q3OMAHwixuTQc0o+UUVSDh1I9B8IAAEgAASAABDoh0Ap+OgnAbVOGgLwiZM2ouv3p+QTVSSlJGiImWPLG2ID2gABIAAEgAAQAALjI4A1fnxM910ifGLfR3B8+0s+UUVSxjcNEoEAEAACQAAIAIGTiEAp+DiJ/UWfViMAn1iN0aHVKPlEFUkpCRoC6jryri0fGqISbYAAEAACQAAIAIEtIEBrPD7AAD4AH1jlA7npqIqk5IRsO58Iys/XXjeX3vrFtlVDHxAAAkAACAABINADAQpM8AcEJALwCYkG7gmBkk9UkZSSoCFQD5FHBOXOtTfMnSsvmNuXj0BUhgCPNkAACAABIAAENozAkDV+wyZB/I4RgE/seAAmqL7kE1UkZdd9szso371ufrryovnx8pH54eIpc+PCI+a15x4ITPvj838K0kgAASAABIAAEAAC20WgFHxs1xJomwoC8ImpjMR07Cj5RBVJKQka0t0aee6I1xueoNy6eNrcuPBwkqDcff+uAVEZMiJoAwSAABAAAkBgHARq1vhxNELK1BGAT0x9hLZvX8knqkjK9k13Gvk7KHe+cke8bl08ZW5mdlCIoNx965755uVvzW9++dsNmax/NXRumuORVB03Zj4bUd5IZkEMEAACQAAIAIEaBJLBx3JhZrOZ/cx7LJzLhatLbYL6OTkbzs/aY4E5Ns28s3c2b0wuNDhu5h6H2WKZgJXijEQsMEqMQLIXJqU1YcioWUmfGFXDmMIyY2AUfsLn+BfkpZ+wv0c+7E3t5OXbNWbRPjcsz7kNtZ2ZtA8Z4/ws4UdW97FpFnkf9eZt+KbkE1UkpSSoTx8++fQzc+7cueyHynN/75x90Ny+/Iw94vXD54/bHZSXmjcNf66++LXZDkEhC0PHtU5QmIxyfUI+EAACQAAIAIGTikAcM3TBmF5HkxgcN6bxkbRcd3NyNpyftcdQNGjms5kJ+EZQX/TQ1mWSIPsl6qg4Q5aU73PyZKscTrLOZu5jn0jp6dOHVLtS3hCZuTYCv2AsnR90Pkv25GRIW4U8n63b6TRXdPnzeYqIUBmR5rjMxq2LxpKUZqFeALDoLV1LPlFFUta1lwjK/fv3sx8qL/0RUbn58cOGrvxHJIX/Pnjyww3voLAm7Sw6zfVwBQJAAAgAASBwmAhEwQe9cRZRPAVKwe5IESbapWiDrZycTecH9gl7jNtBEV0LakYJCmz9i00hJ8gfGlf0aUd1VpGkyOpRMiKfSErt04dkw0LmEJm5NgI/8jk/lin1ORmyrpDns3U7neaKLn+xSDxL9nlYpHfkqDmVa2LNYrd4LflEFUkpCerTH01SHvvVrwPCsoqkkA5JUCgtSQql6494tQO/dG9Buu04N+n4CTRwRO0sMt05DG/78RsWt0VHE0NiQvPypazu7Uy4vUc9VfWCtJMft6F2+AMCQAAIAAEgsHkEdMwQkRIbRDX2iFR6rZU20prnAuu0nKU92uLlUFMrf7x8aY1bg9tAX79NDysmU92xHvGWuxdJkWu/XuupTBw3y7ImxjJT3/aH5TCZSXajOlP7hGnjoS5eSdlEeXNDgbiLq1y6Oy2o0zW4uLreb3wsRl3Tcrm7lM+40H1pJyIng2WxHpbH+bqdTut6VC5lUL/ItwrtLLmierIdy93eNfaJTncVSemaDbsjEnL33j3/IZIi031IitasSQqVP/v2VV2tkKYBnHVM2D6cPGnwoPOVxYSDbrfNPJN28rzDaydfLtybo3by9BIXvE0sZTtZfp6JbGM7SYpop2SzDlyBABAAAkAACGwLAR185MhFF/DTOpYOmCio53U1J2fT+RI3aY99EeljAFkrc09rtD2C49Z4v7sUrN1iTQ/EiPygPlcS5ZwVXakO46zrqzTHLJGMYRnaJ5hIhtKUDTa+6cY/iHdsQ1lfkQ4vWNbxme0NlREefOXyXBtdz+kkouXjNRYhYzOfp2+0PCrXuinNxJGu8fiRT3r9nvBqOVr37tORTwiTqkhKSZCQmb1lkvL0mfeM/hBZYZLCenJXqUCTFCIo57805qlXvpDVCvfxAAYDbScTMfBWUs5ZqFDJ+3/tnT2v3EQXx/cDICokmvAB0ApRkHRUUFKQxhUdERWRQNBQUJgiqaBIRSIkWqSVaIBQAEIpQRENrEIQFES3QuLmBUJzE2me58z4jM+8Xo/Xa3t3/1faa3s8c+bMz8ee87e99zp3JJoA01FE9USQ2QucaK/bch0zhNY3Uc/61IiWpk++oJuW+A0CIAACIAAC4xHgOZx7TIkIvT8619KeMOlM2dl2uRlH6I95W8Kdq3nMwTIxr9N83c7v1Mqf49mSKI/O9WI/NwmWVIf99eo3NvnJhl7azDcwVFzgxwS/aeLmK55PAYvM/ghf46TfxnM9Gn+pNlTO/ISdhp2LK2VDtNPj8+357fxtbi/Kqf8ml2xjSeznJjNbBjEh/CsSKaJdr1USIcfHf9sPPUmR2yxSSoxLkcIC5f2v/tJPUxYvXOtgyj+A5gJkg6wocKk7z17yhDF/dYFOTPfCKtpH2qYDT7RrRk1248q+AxZUAQEQAAEQAIENCATJB82ndnJt50DdRXSupflYvjHQOJOys+1yLZgi/sRe4U5xIx/tTUmuZPIOySbIJbiqn2Pot8LlXB/mArapXaE6nBR79SN5h202wEoQE41NN1/xfArGnNmf9N9v4w0mGn+pNlTO/Fw7ehwixtPHUbaL2fP79re5vSxvzhf6+oKNMbmf28xrmYoJ8rJIpOQMdRkyiZCjoyP7IZEit/uKFBIq/QQKeU0HUDxGdAKc9lEg8pJHmTvo/j7aFvbZBC2pr2WlKud9QNnetLXx7vgWE1PhxdMVQLJzrIMACIAACIDA9ggEOYMzh/lzXWSu9USH9TRlZ9vlKX/IsViSG/3rXt68Ltq2r/DowsQXniU3S0Tc7Izvb2uybU6y/frGP/fJBrfhHEO2ketuL7GtICZEpTZf8W3627n8x+zL+y861atkPxJ/gTjidlyfjnst/gVFrG/fd7Yhl8KeLfbb+dtc0Stv4rAdv7efm81omYuJIpGy6Zh8kSIFCq33ESnSp3MXrhc8QeGW5gCaL2SZ17GMKHCDTavjTso0EhD6wineJWxVh/mb6nabfPLaO235AtH43gSjeRwr/oKDLE+ofR49liAAAiAAAiCwDQLR5EPMT6fNtXredd7DFzf8AjvNCLZYnvWHunfma/FdVx9uop61r3MNygVE3mBvdoocQYxVChx64yL/mhbZYJFC+sqr7/unD5To18lTZLk/0HA7iIlOY4j0IdtVIv/RXVL9lh2nWME4dd3Tcr3WDjE1yT/ZZ35uX+7TMOog4nuARdrjnX47rx/HF5kb0njYt679c5/TLIOYEG4UiZScIWEzubrJ/0lJGvV2dHvFSzbyA0HuwzoIgAAIgAAIgEAfApvmDH36RJt5E0BMzPv4TOFdLiaKRMoUzm+/T4iU7TNGDyAAAiAAAodGIJd8HBqLacYb3n2XT1ym8OmwY2J+x2OKGPD7zMVEkUjJGfI77bI9tL0ufYZ1IFJCJigBARAAARAAgc0IzGOO32wMaD0sAcTEsDz3wVouJopEyj7AwBhAAARAAARAAAS2TyCXfGy/d/QwRwKIiTkelWl9ysVEkUjJGeozxKHt9fEBbUAABEAABEAABIYngDl+eKa7bhExsetHcHj/czFRJFKGdw0WQQAEQAAEQAAE9pFALvnYx/FiTKcTQEyczujQauRiokik5Az1gbqJvTurp/p0iTYgAAIgAAIgAAIjEKA5Hh8wQAwgBk6LgdTlqEikpIyMXU4C5b87l9QPV58eu2v0BwIgAAIgAAIg0IEAJSb4AQFJADEhaWCdCORiokik5Az1Qd3HHgmUh3cuq4e33lQPbp6HUOkDHm1AAARAAARAYMsE+szxW3YJ5icmgJiY+ADMsPtcTBSJlKnHpp+g/HlJ/Xvrovrn5nl178ZZdXz9GfXB6084rv38xi/ONjZAAARAAARAAATGJZBLPsb1BL3NhQBiYi5HYj5+5GKiSKTkDPUZbok984rXZStQ7t84p46vn4kKlJPPTxSESp8jgjYgAAIgAAIgMAyBkjl+mB5hZe4EEBNzP0Lj+5eLiSKRMr7rpkf+DsrDX80rXvdvnFV3E09QSKCcXH2kfn/7D/Xhcx9t1+VVpRaLhf0s6/V2+4N1EAABEAABENgRAtHkQ8ybnebMVP1dKd+RYzWWm9GYKO18XavlYqniKVfuH3SvVV3VCplaKfDt1s/FRJFIyRnqMoRvvv1OXblyJfmh/amfT997Uj24+ap+xeve98/rJyhv1R8r/ty++JsaX6DIk2St6uVCdbropgaJchAAARAAARDYEwJhzkAJZKVWeny5ZJIBpOrvSjmPA0smEMYE7xlqGY+rdb1Ui6rWIqWukKsNRXsIO7mYKBIpmzpDAuXx48fJD+3P/ZBQufv1GUVL/iGRwj9fvPjlOE9QlBEklbnScvdKaXXPF+C2GGsgAAIgAAIgcGgEguSDnn6IiZMSx+yNvVT9XSk/tAPeYbxBTHRoU1YlLlK0jebpmwjBMtOovRUCuZgoEik5Q10890XKsy+94wiW00QK9SEFCm1LkULb5a94NQG9oseH5tUtc9GMCBEK8GWt1kkxQm3M05VVtVDtieCdNNRe72zK6/a1MeeCrfvh18lY/Jg2VbVUC3tHqgt91AEBEAABEACB8Qj4OUMgSrTYqN23EHieVXTfzxMxuv5qZ8rHI707PfkxQW+gtLmSUkocf3Pjl3MgWS+SU9n8rVZV9FWwlaoof9M3mTmf2h1u++ypHxNyrEUiRTbss04i5OTRI/shkSK3u4gUv19fpND+1z657VfLbFOwL4z4oFpaGDSvcTUXRG5shQfV0cHOe3gphI1su6rUctlebNsLb9M3n6HUxgoP7yQkG/oFTNPGETPcPZYgAAIgAAIgMBMCfvLRzn2Ng3aepHmNEkdemv2p+rtSPpPDMCs3/JjQooRzIK1RWIyYXMfukrmZjhN+3d6tR7GxiIqUWWGAM4JAEBNiX5FIyRkSNpOrLFJeufCZ8j8kVlikcD+ppezAFykkUK79pNTL7/4oq2XWKcA52E01K0acCyarcBYyMSXePknRYqcRMqv/P/Wo6UmNVfHcn9+32HaeojR3EvTZKupkRoVdIAACIAACIDAlAZ7D2YeUuND79U06TlBNi1T9XSnncWPZEvBjQhXkWW5u1uRRwU1j5Egt7d1YC2Oi9btIpLTN+q2RCDk+/tt+6EmK3GaRUmJdihQWKO9/9Zd+mrJ44VoHU35Ai6ch4nGze1F069hOtLBg8cKChcUNbVdq5ZxQft9i27Fle6D7DIGoknuxDgIgAAIgAAJzIBAkH/bJifHOmVcjIsW/y27rp+zMrXwOB2FmPgQxkcqzIjkQRMrMDuZA7sRigk0XiZScITaYW5IIOTo6sh8SKXK7r0ghodJPoJC3lPSLv/TgnxhaVFSqIoEhB6cvqLLMs8MnnveaV1Xxa1vcNz9V8bdDe6Z7iBR5GLAOAiAAAiAwTwJBzuDMr3Iuo3WaT3nZjCdVf1fK53lYJvUqiAnyJppnUSyIJ2upY97kcPxaGAlZvO416SEu7jwaE42VIpFS3LPXwBcpUqDQeh+RIrs4d+F6wRMUbmkulOaL6Oa1Kg52U8M8NZF/kYRb6rs84v+kuO2aB0jjVQAACwRJREFUE0++SqZPspQoIavGF/u3v3X99ktjxgevjnUGKyAAAiAAAiAwHwLR5KN5YkL/Y8zMmWaO5e9Z6iRTfuczqN+Mb1fK53M4ZuFJNCaav5ga5FlODpTJnUQsLOvUF+dnMXw4ESEQjwlTsUik5AxF+g2KNvk/KYGxREG3V7xkYyT9kgbWQQAEQAAEQGAIApvmDEP4ABvzIoCYmNfxmIM3uZgoEilzGMzwPkCkDM8UFkEABEAABA6dQC75OHQ2hzp+xMShHvn0uHMxUSRScobS3af3DG0v3VNuD0RKjg72gQAIgAAIgEAfAvOY4/t4jjbbIoCY2BbZ3bWbi4kikbK7COA5CIAACIAACIDAmARyyceYfqCv+RBATMznWMzFk1xMFImUnKE+gx3aXh8f0AYEQAAEQAAEQGB4Apjjh2e66xYRE7t+BIf3PxcTRSJleNdgEQRAAARAAARAYB8J5JKPfRwvxnQ6AcTE6YwOrUYuJopESs5QH6ib2LuzeqpPl2gDAiAAAiAAAiAwAgGa4/EBA8QAYuC0GEhdjopESsrI2OUkUP67c0n9cPXpsbtGfyAAAiAAAiAAAh0IUGKCHxCQBBATkgbWiUAuJopESs5QH9R97JFAeXjnsnp460314OZ5CJU+4NEGBEAABEAABLZMoM8cv2WXYH5iAoiJiQ/ADLvPxUSRSJl6bPoJyp+X1L+3Lqp/bp5X926cVcfXn1EfvP6E49rPb/zibGMDBEAABEAABEBgXAK55GNcT9DbXAggJuZyJObjRy4mikRKzlCf4ZbYM694XbYC5f6Nc+r4+pmoQDn5/ERBqPQ5ImgDAiAAAiAAAsMQKJnjh+kRVuZOADEx9yM0vn+5mCgSKeO7bnrk76A8/NW84nX/xll1N/EEhQTKydVH6ve3/1AfPvfRll1eq3q5UItF81nWar3lHrX5da2Wi6WqR+lsjAGhDxAAARAAgX0jEE0+VpWdM5cdJrFV1c6xTv2UnanKm4O3rpdqkckF9H7OGapV5JAn/sH0APO+ZGnzlsVCOVwjHg1ZFI2J0g6yLBL8dB9rVVcj5WmlYzrg+rmYKBIpOUNd+H7z7XfqypUryQ/tT/18+t6T6sHNV/UrXve+f14/QXmr/ljx5/bF39SoAkWfJAvlXGPWtapj15zUoILy3MkVVEYBCIAACIAACMyWQJgz0BxXKTNNdpjvnDlV1k/ZmaqcDwH1v0iLFJ03nDZ+OU6222VZ0q6kruy7b7vWRhgT7b5h1uI+anFY1Vqk1NW4wmyYce2vlVxMFImUTRGRQHn8+HHyQ/tzPyRU7n59RtGSf0ik8M8XL3456hMUR6CwExst4yfXRibRGARAAARAAAQmIBAkH/SUQ0yclDh2v4tPby40bxCk7ExV3rCl8VR1rZapJykkUuw+MR6nvG8eUNKupK4MnL7tWhtBTLS7BlrL+Ng8ZRMhOFCfMLMJgVxMFImUnKEuDvoi5dmX3nEEy2kihfqQAoW2pUih7fJXvJqAXtErVOaxsrlomle5nGCmAKcLjHM3JDFyXad9TN3aafqr/UfeVN7W5wu583jWGpEnYcpe45fjh3sHp6qWamHvaiXGgWIQAAEQAAEQ6EHAzxkCUaJFRa1fm7ZihefZoD+a68wcFrezUlOVa1dprqU5mpZWiASDUO2cLl7ZdtrI+V22l+Xuq+bVivaF+YNs7a5LW8r4bNtznrBpH26PvOXHBL0yb1MbqiSPv5O/yHpp/5d1raro6/ArVenjQuPiMbJXWE5JwI8J6UuRSJEN+6yTCDl59Mh+SKTI7S4ixe/XFym0/7VPbvvVMtvNyc0XFX1SxO/W0MVFn0zOBSVm2ti0J560qZr+eCedkFYoeCeeY1ru89cX7d2pnL1V1dy1Mj7YScHpBxsgAAIgAAIgsDkBP/lIiQil50VKHGluiieQNP/ynJWyM1W5UpT4NnlDLj/Q8zPVM3Mw34zUiTnnBJqBEDD2MIh5n+zY+lxB7Oei5FLWletGJGjOG/cR79yPCXfspFFYjJBfvM5CirlIn916FAOLqEiJ+4PS6QkEMSFcKhIpOUPCZnKVRcorFz5T/ofECosU7ie1lB34IoUEyrWflHr53R9ltcy6DHZTzT1J+ILJKpxPFi6PmNaixN3v2uQTjdrK/uV6Y1df1PgOCbeT9eS6Z0/7wW2bpb6w+W0iY0ARCIAACIAACGxAgOdwNpESEXp/M9cFubcWAK1AobopO7MoT4mURF5AgqDND2h0qflZlDdzO4s2w1fsNwWZ36JuKk/YuI94935MtAKV6ufzrJaT5z/fZNZdin1xF1A6MwJhTLQOFomUtlm/NRIhx8d/2w89SZHbLFJKrEuRwgLl/a/+0k9TFi9c62DKD2jziJMvlHzR46Ux6NYJOklcjIxNvz+5Ldd9MSTu1DgXMa+N3Bfxw/jqtwlGgAIQAAEQAAEQ2IhAkHx4d+edeTUqUuS8J1xJ2ZmknF4v8m4G0raTOJsnFEFZI8DcpyKp+TksJ370V7riuYXgFawKW8k8wTTq30fQqS4IYkKITiceIn5BpMSZ7nppLCZ4TEUiJWeIDeaWJEKOjo7sh0SK3O4rUkio9BMo5C2drOIujX9i0PayUpX/DmPsgmr/EomxyUJHv6NqH2GLi4OGJbflundR034VPknxx2YPjtePLccKCIAACIAACAxDIMgZnPlVzkO0Tm8f8LLp3xMd1quUnanKrWPNzUVfoOj9NDYWFGJ8WuDINy8kF2k4Xt4m9vH90kK7LuvSusiB2kp2rV8ftrmzEsQE7aXjFuRZxq/T8yi3nhFVnCs5XWNjpgSiMdH4WiRSNh2fL1KkQKH1PiJF+nTuwvWCJyjc0pys5kvk5m6IPSl0FfPUxL3T0bTVF0RxB0VemJx98oQx/bV/Ht7dpjsF+u+XayeavvVdGRJKbEe2kevkl7ft+MHfXfHqMAosQQAEQAAEQGAgAtHko7nB1z4BMPMcv7qkk8xmLjUJp5hjZTId2GmcnqqcmemEO/G/OPz52B+n3qb5OTZmMW+LMbbfaTXf52jzB3YothS2aLfvF+UfG/cR61epaExEnyj5fnH+Q3Y9/4Wv6S/Ox/1B6fQE4jFh/CoSKTlDXYa5yf9J6WKf6nR7xUta84Jd7sI6CIAACIAACIBALwKb5gy9OkWjWRNATMz68EziXC4mikTKJN5vvVOIlK0jRgcgAAIgAAIHRyCXfBwcjFEHTHmN+zRGPnEZ1RWvM8SEBwSbiadrBkyRSNnP4IJIwTkCAiAAAiAAAkMT2M+cYWhKh2UPMXFYx7vLaHMxUSRSunSGOiAAAiAAAiAAAiCQSz5A5zAJICYO87jnRp2LiSKRkjOUcwD7QAAEQAAEQAAEDosAcobDOt5dRouY6ELpsOrkYqJIpBwWNowWBEAABEAABECgL4Fc8tHXJtrtNgHExG4fv214n4uJIpGSM7QNx2ETBEAABEAABEBgNwlQzoAPGCAGEAOnxUDqClckUlJGUA4CIAACIAACIAACkgAlJvgBAUkAMSFpYJ0I5GKiSKTkDAE1CIAACIAACIAACDAB5AxMAksmgJhgElgygVxMFIkUNoglCIAACIAACIAACOQI5JKPXDvs218CiIn9PbZ9R5aLiSKRkjPU1zm0AwEQAAEQAAEQ2D8CyBn275huOiLExKYE9699LiaKRMp20IT/GbVabaennbG6rtVysVT1emc8hqMgAAIgAAIg4BDIJR9ORWwcDAHExMEc6s4DzcXE/wCalGyiF4ol9gAAAABJRU5ErkJggg==;" parent="WIyWlLk6GJQsqaUBKTNV-1" vertex="1">
          <mxGeometry x="800" y="440" width="809" height="603" as="geometry" />
        </mxCell>
        <mxCell id="BjjVGWqRsL4OBueb088s-50" value="" style="endArrow=classic;html=1;rounded=0;exitX=0.292;exitY=1.007;exitDx=0;exitDy=0;entryX=0.5;entryY=1;entryDx=0;entryDy=0;exitPerimeter=0;endSize=2;" parent="WIyWlLk6GJQsqaUBKTNV-1" source="BjjVGWqRsL4OBueb088s-35" target="BjjVGWqRsL4OBueb088s-39" edge="1">
          <mxGeometry width="50" height="50" relative="1" as="geometry">
            <mxPoint x="510" y="272" as="sourcePoint" />
            <mxPoint x="560" y="222" as="targetPoint" />
            <Array as="points">
              <mxPoint x="490" y="252" />
              <mxPoint x="705" y="252" />
            </Array>
          </mxGeometry>
        </mxCell>
      </root>
    </mxGraphModel>
  </diagram>
</mxfile>
